<svg width="240" height="240" viewBox="0 0 240 240" fill="none" xmlns="http://www.w3.org/2000/svg">
<rect width="240" height="240" rx="120" fill="#262626"/>
<g clip-path="url(#clip0_3627_8446)">
<path d="M89.1098 62.4492C89.0531 62.4492 88.9956 62.4322 88.9454 62.3969C88.8173 62.3067 88.7868 62.1304 88.8779 62.0029C88.9306 61.9289 94.0787 54.5446 88.3316 47.8129C85.9736 45.0509 82.7836 43.9927 80.0436 43.9927C80.0183 43.9927 79.9926 43.9927 79.9676 43.9927C80.5133 45.8739 80.4159 47.5464 79.6431 48.8295C78.9128 50.0425 77.6093 50.7552 76.3158 50.6439C75.1755 50.5461 74.2746 49.8506 73.8436 48.7357C73.2115 47.0999 73.8732 45.5132 75.6131 44.4916C76.5448 43.9444 77.7967 43.5747 79.199 43.4685C78.8421 42.4963 78.312 41.4678 77.6138 40.4103C75.5387 37.2658 71.7568 35.0891 67.2371 34.4382C63.4073 33.8866 59.7367 34.5363 57.8849 36.0924C57.7641 36.1936 57.5844 36.178 57.4836 36.0593C57.3819 35.9404 57.3967 35.7617 57.5166 35.6609C59.4875 34.0047 63.3349 33.3049 67.3188 33.8789C72 34.553 75.9258 36.8207 78.0904 40.1005C78.8501 41.2516 79.4187 42.375 79.7904 43.4397C82.7374 43.3713 86.2189 44.4641 88.7657 47.4472C94.8025 54.5183 89.3975 62.2525 89.3419 62.3296C89.2864 62.4071 89.1987 62.4486 89.1095 62.4486L89.1098 62.4492ZM79.383 44.0139C78.02 44.1001 76.8023 44.4509 75.9036 44.9788C74.4008 45.8614 73.8442 47.1572 74.376 48.5341C74.7258 49.4391 75.4507 50.0032 76.3654 50.0818C77.4367 50.1736 78.5348 49.5688 79.1543 48.5404C79.8642 47.3618 79.9294 45.7953 79.383 44.0139Z" fill="#292A2E"/>
<path d="M52.9701 40.6506C52.5474 40.7766 52.0973 40.756 51.6828 40.5878C51.2043 40.3934 50.8303 40.026 50.6303 39.5526C50.4304 39.0792 50.4278 38.5569 50.6235 38.0819C50.8195 37.6071 51.1898 37.236 51.6669 37.0373C52.6499 36.6286 53.789 37.0887 54.2018 38.0658C54.6148 39.043 54.1496 40.1713 53.1649 40.5811C53.1008 40.6076 53.0359 40.6308 52.9701 40.6506ZM52.023 37.5101C51.9771 37.5237 51.9318 37.5398 51.8868 37.5587C51.5501 37.6989 51.2886 37.9606 51.1505 38.2958C51.0123 38.6313 51.014 38.9998 51.155 39.3339C51.2963 39.6679 51.5604 39.9274 51.8982 40.0644C52.236 40.2015 52.6072 40.2001 52.9442 40.0596C53.6392 39.7705 53.9676 38.9741 53.6762 38.2842C53.4033 37.6393 52.6832 37.3129 52.0227 37.5098L52.023 37.5101Z" fill="#292A2E"/>
<path d="M52.9647 36.221C52.5417 36.3473 52.0917 36.3264 51.6772 36.1582C51.1984 35.9641 50.8244 35.5964 50.6247 35.123C50.4244 34.6496 50.4219 34.1276 50.6178 33.6525C50.8138 33.1774 51.1841 32.8064 51.6615 32.6077C52.1378 32.4101 52.6651 32.407 53.1436 32.6012C53.6224 32.7953 53.9964 33.163 54.1961 33.6364C54.3964 34.1095 54.3989 34.6318 54.203 35.1069C54.0073 35.582 53.6367 35.953 53.1593 36.1517C53.0952 36.1783 53.0302 36.2015 52.9647 36.221ZM52.0187 33.0799C51.9723 33.0938 51.9267 33.1099 51.8814 33.1288C51.5447 33.269 51.2833 33.5307 51.1448 33.8659C51.0069 34.2011 51.0084 34.5699 51.1497 34.904C51.2909 35.238 51.5547 35.4977 51.8928 35.6345C52.2307 35.7716 52.6001 35.7705 52.9391 35.63C53.2758 35.4898 53.5373 35.2281 53.6757 34.8929C53.8136 34.5578 53.8121 34.1889 53.6709 33.8549C53.5296 33.5208 53.2658 33.2611 52.9277 33.1243C52.6351 33.0056 52.3173 32.9909 52.0187 33.0799Z" fill="#292A2E"/>
<path d="M52.4137 38.2197C53.8126 38.2197 54.9466 37.4683 54.9466 36.5413C54.9466 35.6143 53.8126 34.8628 52.4137 34.8628C51.0149 34.8628 49.8809 35.6143 49.8809 36.5413C49.8809 37.4683 51.0149 38.2197 52.4137 38.2197Z" fill="#434343"/>
<path d="M53.5337 38.3429C53.1854 38.4469 52.806 38.5018 52.4151 38.5021C50.8351 38.5035 49.5966 37.6429 49.5957 36.5432C49.5948 35.4433 50.8317 34.5813 52.4114 34.5796C53.1438 34.579 53.8363 34.7698 54.3612 35.1171C54.9215 35.4876 55.2303 35.9924 55.2309 36.5381C55.2314 37.0839 54.9235 37.5892 54.3638 37.9608C54.1194 38.1231 53.8382 38.2517 53.5337 38.3424V38.3429ZM51.4657 35.2805C50.7046 35.5077 50.1651 35.9947 50.1654 36.5427C50.166 37.2992 51.1957 37.9377 52.4143 37.9368C53.0355 37.9363 53.6155 37.778 54.0468 37.4914C54.443 37.2283 54.6612 36.89 54.6609 36.5393C54.6606 36.1883 54.4418 35.8505 54.045 35.588C53.6126 35.302 53.0327 35.1448 52.412 35.1454C52.0762 35.1454 51.7549 35.194 51.4657 35.2805Z" fill="#292A2E"/>
<path d="M53.0348 38.1681L52.9749 34.9042L52.1569 34.8711L52.0996 38.2063L53.0348 38.1681Z" fill="#292A2E"/>
<path d="M49.0525 37.2513C49.1969 37.2513 49.314 37.1352 49.314 36.9919C49.314 36.8486 49.1969 36.7324 49.0525 36.7324C48.9081 36.7324 48.791 36.8486 48.791 36.9919C48.791 37.1352 48.9081 37.2513 49.0525 37.2513Z" fill="#292A2E"/>
<path d="M49.2576 35.8631C49.402 35.8631 49.5191 35.747 49.5191 35.6037C49.5191 35.4604 49.402 35.3442 49.2576 35.3442C49.1132 35.3442 48.9961 35.4604 48.9961 35.6037C48.9961 35.747 49.1132 35.8631 49.2576 35.8631Z" fill="#292A2E"/>
<path d="M136.047 47.4533C135.925 47.4533 135.812 47.3753 135.775 47.2535C135.759 47.2032 134.238 42.1765 135.032 36.5081C135.769 31.2519 138.691 24.3523 148.429 21.3311C150.013 20.8397 151.406 20.5359 152.63 20.3756C153.088 17.5322 154.834 14.4477 158.738 12.3196C168.013 7.26294 174.279 11.7998 174.34 11.8462C174.466 11.94 174.491 12.1169 174.397 12.2416C174.302 12.3665 174.124 12.3913 173.998 12.2981C173.939 12.254 167.951 7.94094 159.012 12.815C155.364 14.8038 153.694 17.6582 153.219 20.3081C157.515 19.8884 159.572 21.3099 160.495 22.3839C161.669 23.7498 161.928 25.6286 161.154 27.1709C160.499 28.4783 159.237 29.2111 157.783 29.1235C155.384 28.9839 153.399 26.9818 152.727 24.0228C152.517 23.1012 152.442 22.0597 152.552 20.9694C151.329 21.1347 150.005 21.4349 148.599 21.8709C141.009 24.2257 136.634 29.1766 135.596 36.5861C134.819 42.1322 136.304 47.0393 136.319 47.0882C136.365 47.2374 136.281 47.3957 136.13 47.4412C136.102 47.4496 136.075 47.4533 136.047 47.4533ZM153.132 20.8999C153.009 21.9716 153.078 22.9961 153.282 23.8982C153.898 26.6051 155.678 28.4345 157.817 28.5591C159.034 28.6281 160.094 28.0171 160.645 26.9188C161.316 25.5798 161.087 23.9437 160.061 22.7502C158.729 21.2006 156.299 20.5746 153.132 20.8999Z" fill="#292A2E"/>
<path d="M180.976 14.7031C180.59 14.7031 180.212 14.5937 179.879 14.3818C179.423 14.0901 179.107 13.6396 178.992 13.1128C178.754 12.0256 179.452 10.9485 180.548 10.7122C181.644 10.476 182.729 11.1687 182.967 12.2559C183.205 13.3434 182.507 14.4202 181.411 14.6565C181.266 14.6878 181.12 14.7031 180.976 14.7031ZM180.98 11.2311C180.877 11.2311 180.773 11.2422 180.669 11.2645C179.88 11.4346 179.378 12.2098 179.549 12.9927C179.632 13.372 179.859 13.6964 180.187 13.9064C180.516 14.1164 180.909 14.187 181.29 14.1042C182.079 13.9341 182.582 13.1589 182.411 12.376C182.262 11.6966 181.653 11.2311 180.98 11.2311Z" fill="#292A2E"/>
<path d="M180.117 19.3157C179.731 19.3157 179.352 19.2064 179.02 18.9944C178.563 18.7027 178.248 18.2522 178.133 17.7254C178.018 17.1986 178.116 16.6588 178.41 16.2055C178.704 15.7522 179.158 15.4396 179.689 15.3252C180.219 15.2104 180.764 15.3082 181.221 15.5999C181.678 15.8915 181.993 16.342 182.108 16.8688C182.223 17.3956 182.125 17.9354 181.831 18.3887C181.537 18.8421 181.083 19.1546 180.552 19.2691C180.407 19.3005 180.261 19.3157 180.117 19.3157ZM180.124 15.8438C180.019 15.8438 179.914 15.8548 179.81 15.8774C179.427 15.9599 179.101 16.1849 178.889 16.5113C178.678 16.8377 178.607 17.2263 178.69 17.6056C178.773 17.9849 179 18.3093 179.328 18.5193C179.658 18.7296 180.049 18.7997 180.431 18.7171C180.814 18.6346 181.14 18.4097 181.352 18.0832C181.563 17.7568 181.634 17.3682 181.551 16.9889C181.468 16.6097 181.241 16.2852 180.912 16.0752C180.673 15.9226 180.401 15.844 180.123 15.844L180.124 15.8438Z" fill="#292A2E"/>
<path d="M183.176 15.529C183.356 14.5636 182.321 13.5649 180.864 13.2982C179.407 13.0315 178.081 13.5978 177.901 14.5632C177.722 15.5285 178.757 16.5272 180.214 16.7939C181.67 17.0606 182.997 16.4943 183.176 15.529Z" fill="#434343"/>
<path d="M180.933 17.1427C180.681 17.1427 180.423 17.1193 180.164 17.0721C179.405 16.933 178.724 16.6032 178.247 16.1434C177.74 15.6542 177.518 15.0748 177.623 14.5121C177.728 13.9494 178.143 13.4868 178.793 13.2092C179.403 12.9484 180.157 12.8817 180.917 13.0204C181.677 13.1595 182.358 13.4893 182.834 13.9491C183.342 14.4383 183.563 15.0177 183.458 15.5804C183.354 16.1431 182.938 16.6057 182.288 16.8833C181.886 17.0551 181.421 17.1427 180.933 17.1427ZM180.146 13.5145C179.737 13.5145 179.35 13.5868 179.018 13.7284C178.549 13.9288 178.252 14.2436 178.183 14.6147C178.114 14.9858 178.278 15.3848 178.644 15.7381C179.041 16.1208 179.617 16.3975 180.267 16.5162C180.917 16.6346 181.555 16.5809 182.063 16.3641C182.532 16.1637 182.829 15.8489 182.898 15.4778C182.967 15.1067 182.803 14.7077 182.437 14.3541C182.04 13.9715 181.464 13.695 180.814 13.5761C180.588 13.5348 180.364 13.5142 180.146 13.5142V13.5145Z" fill="#292A2E"/>
<path d="M180.21 13.2329L179.637 16.643L180.482 16.834L181.191 13.3722L180.21 13.2329Z" fill="#292A2E"/>
<path d="M183.644 16.9015C183.797 16.9015 183.921 16.7785 183.921 16.6268C183.921 16.475 183.797 16.3521 183.644 16.3521C183.491 16.3521 183.367 16.475 183.367 16.6268C183.367 16.7785 183.491 16.9015 183.644 16.9015Z" fill="#292A2E"/>
<path d="M184.126 15.4952C184.279 15.4952 184.403 15.3722 184.403 15.2205C184.403 15.0688 184.279 14.9458 184.126 14.9458C183.974 14.9458 183.85 15.0688 183.85 15.2205C183.85 15.3722 183.974 15.4952 184.126 15.4952Z" fill="#292A2E"/>
<path d="M184.705 66.5404V172.097C184.705 174.606 182.656 176.639 180.127 176.639H45.63C43.1019 176.639 41.0527 174.606 41.0527 172.097V87.1481C41.0527 84.6399 43.1019 82.6067 45.63 82.6067H126.304C128.832 82.6067 130.881 80.5736 130.881 78.0653V66.5404C130.881 64.0322 132.931 61.999 135.459 61.999H180.127C182.656 61.999 184.705 64.0322 184.705 66.5404Z" fill="#B18D41"/>
<path d="M180.127 176.921H45.6297C42.9487 176.921 40.7676 174.757 40.7676 172.097V87.1481C40.7676 84.488 42.9487 82.324 45.6297 82.324H126.304C128.671 82.324 130.596 80.4135 130.596 78.0652V66.5403C130.596 63.8803 132.777 61.7163 135.458 61.7163H180.127C182.808 61.7163 184.989 63.8803 184.989 66.5403V172.097C184.989 174.757 182.808 176.921 180.127 176.921H180.127ZM45.6297 82.8896C43.2626 82.8896 41.3373 84.8001 41.3373 87.1483V172.098C41.3373 174.446 43.2629 176.356 45.6297 176.356H180.127C182.494 176.356 184.419 174.446 184.419 172.098V66.5403C184.419 64.1921 182.494 62.2815 180.127 62.2815H135.458C133.091 62.2815 131.166 64.1921 131.166 66.5403V78.0652C131.166 80.7253 128.985 82.8893 126.304 82.8893H45.6297V82.8896Z" fill="#262626"/>
<path d="M193.25 66.5404V172.097C193.25 174.606 191.2 176.639 188.672 176.639H54.1749C51.6469 176.639 49.5977 174.606 49.5977 172.097V87.1481C49.5977 84.6399 51.6469 82.6067 54.1749 82.6067H134.849C137.377 82.6067 139.426 80.5736 139.426 78.0653V66.5404C139.426 64.0322 141.475 61.999 144.003 61.999H188.672C191.2 61.999 193.25 64.0322 193.25 66.5404Z" fill="#434343"/>
<path d="M188.672 176.921H54.1746C51.4936 176.921 49.3125 174.757 49.3125 172.097V87.1481C49.3125 84.488 51.4936 82.324 54.1746 82.324H134.849C137.216 82.324 139.141 80.4135 139.141 78.0652V66.5403C139.141 63.8803 141.322 61.7163 144.003 61.7163H188.671C191.352 61.7163 193.534 63.8803 193.534 66.5403V172.097C193.534 174.757 191.352 176.921 188.671 176.921H188.672ZM54.1746 82.8896C51.8075 82.8896 49.8822 84.8001 49.8822 87.1483V172.098C49.8822 174.446 51.8078 176.356 54.1746 176.356H188.672C191.039 176.356 192.964 174.446 192.964 172.098V66.5403C192.964 64.1921 191.039 62.2815 188.672 62.2815H144.003C141.636 62.2815 139.711 64.1921 139.711 66.5403V78.0652C139.711 80.7253 137.53 82.8893 134.849 82.8893H54.1746V82.8896Z" fill="#262626"/>
<path d="M110.571 119.792C112.32 119.792 113.737 118.386 113.737 116.651C113.737 114.917 112.32 113.511 110.571 113.511C108.823 113.511 107.406 114.917 107.406 116.651C107.406 118.386 108.823 119.792 110.571 119.792Z" fill="#292A2E"/>
<path d="M132.277 119.792C134.025 119.792 135.442 118.386 135.442 116.651C135.442 114.917 134.025 113.511 132.277 113.511C130.528 113.511 129.111 114.917 129.111 116.651C129.111 118.386 130.528 119.792 132.277 119.792Z" fill="#292A2E"/>
<path d="M125.667 124.844H117.18V125.409H125.667V124.844Z" fill="#262626"/>
<g opacity="0.1">
<path d="M107.306 125.634C108.866 125.634 110.13 124.974 110.13 124.16C110.13 123.346 108.866 122.686 107.306 122.686C105.747 122.686 104.482 123.346 104.482 124.16C104.482 124.974 105.747 125.634 107.306 125.634Z" fill="#B18D41"/>
<path d="M135.542 125.634C137.102 125.634 138.366 124.974 138.366 124.16C138.366 123.346 137.102 122.686 135.542 122.686C133.983 122.686 132.719 123.346 132.719 124.16C132.719 124.974 133.983 125.634 135.542 125.634Z" fill="#B18D41"/>
</g>
</g>
<defs>
<clipPath id="clip0_3627_8446">
<rect width="187.034" height="203.586" fill="white" transform="translate(26.4824 9.93115)"/>
</clipPath>
</defs>
</svg>
