<svg width="32" height="32" viewBox="0 0 32 32" fill="none" xmlns="http://www.w3.org/2000/svg">
<path d="M4.47 16.5298L13.47 25.5298C13.6122 25.6623 13.8002 25.7345 13.9945 25.731C14.1888 25.7276 14.3742 25.6489 14.5116 25.5115C14.649 25.3741 14.7277 25.1887 14.7312 24.9944C14.7346 24.8001 14.6625 24.612 14.53 24.4698L6.81125 16.7498H27C27.1989 16.7498 27.3897 16.6708 27.5303 16.5302C27.671 16.3895 27.75 16.1988 27.75 15.9998C27.75 15.8009 27.671 15.6102 27.5303 15.4695C27.3897 15.3289 27.1989 15.2498 27 15.2498H6.81125L14.53 7.52985C14.6625 7.38767 14.7346 7.19963 14.7312 7.00532C14.7277 6.81102 14.649 6.62564 14.5116 6.48822C14.3742 6.35081 14.1888 6.2721 13.9945 6.26867C13.8002 6.26524 13.6122 6.33737 13.47 6.46985L4.47 15.4698C4.32955 15.6105 4.25066 15.8011 4.25066 15.9998C4.25066 16.1986 4.32955 16.3892 4.47 16.5298Z" fill="#B18D41"/>
</svg>
