<svg width="16" height="16" viewBox="0 0 16 16" fill="none" xmlns="http://www.w3.org/2000/svg">
<g id="icon/ArrowSquareIn">
<path id="Vector" d="M8.00028 8.5V12.5C8.00028 12.6326 7.9476 12.7598 7.85383 12.8536C7.76006 12.9473 7.63289 13 7.50028 13C7.36767 13 7.24049 12.9473 7.14672 12.8536C7.05296 12.7598 7.00028 12.6326 7.00028 12.5V9.7075L2.85403 13.8538C2.80757 13.9002 2.75242 13.9371 2.69173 13.9622C2.63103 13.9873 2.56598 14.0003 2.50028 14.0003C2.43458 14.0003 2.36953 13.9873 2.30883 13.9622C2.24813 13.9371 2.19298 13.9002 2.14653 13.8538C2.10007 13.8073 2.06322 13.7521 2.03808 13.6914C2.01294 13.6308 2 13.5657 2 13.5C2 13.4343 2.01294 13.3692 2.03808 13.3086C2.06322 13.2479 2.10007 13.1927 2.14653 13.1462L6.29278 9H3.50028C3.36767 9 3.24049 8.94732 3.14672 8.85355C3.05296 8.75979 3.00028 8.63261 3.00028 8.5C3.00028 8.36739 3.05296 8.24021 3.14672 8.14645C3.24049 8.05268 3.36767 8 3.50028 8H7.50028C7.63289 8 7.76006 8.05268 7.85383 8.14645C7.9476 8.24021 8.00028 8.36739 8.00028 8.5ZM13.0003 2H5.00028C4.73506 2 4.48071 2.10536 4.29317 2.29289C4.10563 2.48043 4.00028 2.73478 4.00028 3V6C4.00028 6.13261 4.05296 6.25979 4.14672 6.35355C4.24049 6.44732 4.36767 6.5 4.50028 6.5C4.63289 6.5 4.76006 6.44732 4.85383 6.35355C4.9476 6.25979 5.00028 6.13261 5.00028 6V3H13.0003V11H10.0003C9.86767 11 9.74049 11.0527 9.64672 11.1464C9.55296 11.2402 9.50028 11.3674 9.50028 11.5C9.50028 11.6326 9.55296 11.7598 9.64672 11.8536C9.74049 11.9473 9.86767 12 10.0003 12H13.0003C13.2655 12 13.5198 11.8946 13.7074 11.7071C13.8949 11.5196 14.0003 11.2652 14.0003 11V3C14.0003 2.73478 13.8949 2.48043 13.7074 2.29289C13.5198 2.10536 13.2655 2 13.0003 2Z" fill="white"/>
</g>
</svg>
