<svg width="32" height="32" viewBox="0 0 32 32" fill="none" xmlns="http://www.w3.org/2000/svg">
<path d="M27.53 16.5298L18.53 25.5298C18.3878 25.6623 18.1998 25.7345 18.0055 25.731C17.8112 25.7276 17.6258 25.6489 17.4884 25.5115C17.351 25.3741 17.2723 25.1887 17.2688 24.9944C17.2654 24.8001 17.3375 24.612 17.47 24.4698L25.1887 16.7498H5C4.80109 16.7498 4.61032 16.6708 4.46967 16.5302C4.32902 16.3895 4.25 16.1988 4.25 15.9998C4.25 15.8009 4.32902 15.6102 4.46967 15.4695C4.61032 15.3289 4.80109 15.2498 5 15.2498H25.1887L17.47 7.52985C17.3375 7.38767 17.2654 7.19963 17.2688 7.00532C17.2723 6.81102 17.351 6.62564 17.4884 6.48822C17.6258 6.35081 17.8112 6.2721 18.0055 6.26867C18.1998 6.26524 18.3878 6.33737 18.53 6.46985L27.53 15.4698C27.6705 15.6105 27.7493 15.8011 27.7493 15.9998C27.7493 16.1986 27.6705 16.3892 27.53 16.5298Z" fill="#B18D41"/>
</svg>
