<svg width="21" height="21" viewBox="0 0 21 21" fill="none" xmlns="http://www.w3.org/2000/svg">
<path d="M15.8125 11.1158L9.40169 17.5267C8.69842 18.2299 7.74459 18.625 6.75002 18.625C5.75546 18.625 4.80162 18.2299 4.09836 17.5267C3.39509 16.8234 3 15.8696 3 14.875C3 13.8804 3.39509 12.9266 4.09836 12.2233L13.215 3.10667C13.4472 2.87456 13.7229 2.69046 14.0263 2.56488C14.3296 2.4393 14.6548 2.37471 14.9831 2.37479C15.3114 2.37487 15.6365 2.43961 15.9399 2.56533C16.2432 2.69105 16.5187 2.87528 16.7509 3.1075C16.983 3.33972 17.1671 3.61539 17.2926 3.91875C17.4182 4.22212 17.4828 4.54726 17.4827 4.87559C17.4827 5.20392 17.4179 5.52902 17.2922 5.83233C17.1665 6.13564 16.9822 6.41122 16.75 6.64333L7.62669 15.7667C7.39001 15.9936 7.07366 16.1176 6.74581 16.1134C6.41797 16.1092 6.10488 15.9764 5.87402 15.7436C5.64317 15.5108 5.51303 15.1966 5.51166 14.8687C5.51029 14.5409 5.63779 14.2256 5.86669 13.9908L12.375 7.4825M7.63419 15.7583L7.62586 15.7667" stroke="#4B5675" stroke-width="1.5" stroke-linecap="round" stroke-linejoin="round"/>
</svg>
