<svg width="12" height="13" viewBox="0 0 12 13" fill="none" xmlns="http://www.w3.org/2000/svg">
<g id="Attachment Icon">
<path id="Vector" fill-rule="evenodd" clip-rule="evenodd" d="M2.8125 1.25C2.2945 1.25 1.875 1.67 1.875 2.1875V10.8125C1.875 11.33 2.295 11.75 2.8125 11.75H9.1875C9.705 11.75 10.125 11.33 10.125 10.8125V6.875C10.125 6.37772 9.92746 5.90081 9.57583 5.54917C9.2242 5.19754 8.74728 5 8.25 5H7.3125C7.06386 5 6.8254 4.90123 6.64959 4.72541C6.47377 4.5496 6.375 4.31114 6.375 4.0625V3.125C6.375 2.62772 6.17746 2.15081 5.82583 1.79917C5.47419 1.44754 4.99728 1.25 4.5 1.25H2.8125ZM3.75 8C3.75 7.90054 3.78951 7.80516 3.85983 7.73484C3.93016 7.66451 4.02554 7.625 4.125 7.625H7.875C7.97446 7.625 8.06984 7.66451 8.14017 7.73484C8.21049 7.80516 8.25 7.90054 8.25 8C8.25 8.09946 8.21049 8.19484 8.14017 8.26516C8.06984 8.33549 7.97446 8.375 7.875 8.375H4.125C4.02554 8.375 3.93016 8.33549 3.85983 8.26516C3.78951 8.19484 3.75 8.09946 3.75 8ZM4.125 9.125C4.02554 9.125 3.93016 9.16451 3.85983 9.23483C3.78951 9.30516 3.75 9.40054 3.75 9.5C3.75 9.59946 3.78951 9.69484 3.85983 9.76517C3.93016 9.83549 4.02554 9.875 4.125 9.875H6C6.09946 9.875 6.19484 9.83549 6.26516 9.76517C6.33549 9.69484 6.375 9.59946 6.375 9.5C6.375 9.40054 6.33549 9.30516 6.26516 9.23483C6.19484 9.16451 6.09946 9.125 6 9.125H4.125Z" fill="#B18D41"/>
<path id="Vector_2" d="M6.48535 1.408C6.89861 1.88448 7.12573 2.49427 7.12485 3.125V4.0625C7.12485 4.166 7.20885 4.25 7.31235 4.25H8.24985C8.88058 4.24912 9.49037 4.47624 9.96685 4.8895C9.74687 4.05285 9.30861 3.28965 8.69691 2.67794C8.0852 2.06623 7.322 1.62798 6.48535 1.408Z" fill="#B18D41"/>
</g>
</svg>
