<svg width="16" height="16" viewBox="0 0 16 16" fill="none" xmlns="http://www.w3.org/2000/svg">
<path d="M12.4991 4V12C12.4991 12.2652 12.3938 12.5196 12.2063 12.7071C12.0187 12.8946 11.7644 13 11.4991 13H10.4991C10.2339 13 9.97958 12.8946 9.79204 12.7071C9.6045 12.5196 9.49915 12.2652 9.49915 12V8.5H6.49915V12C6.49915 12.2652 6.39379 12.5196 6.20625 12.7071C6.01872 12.8946 5.76436 13 5.49915 13H4.49915C4.23393 13 3.97958 12.8946 3.79204 12.7071C3.6045 12.5196 3.49915 12.2652 3.49915 12V4C3.49915 3.73478 3.6045 3.48043 3.79204 3.29289C3.97958 3.10536 4.23393 3 4.49915 3H5.49915C5.76436 3 6.01872 3.10536 6.20625 3.29289C6.39379 3.48043 6.49915 3.73478 6.49915 4V7.5H9.49915V4C9.49915 3.73478 9.6045 3.48043 9.79204 3.29289C9.97958 3.10536 10.2339 3 10.4991 3H11.4991C11.7644 3 12.0187 3.10536 12.2063 3.29289C12.3938 3.48043 12.4991 3.73478 12.4991 4ZM2.24915 4.5H1.99915C1.73393 4.5 1.47958 4.60536 1.29204 4.79289C1.1045 4.98043 0.999146 5.23478 0.999146 5.5V7.5H0.51602C0.386812 7.49809 0.261674 7.54518 0.165779 7.6318C0.0698841 7.71842 0.0103475 7.83814 -0.000854534 7.96688C-0.00539574 8.03527 0.00417387 8.10387 0.0272599 8.1684C0.0503459 8.23294 0.0864552 8.29205 0.133345 8.34204C0.180235 8.39204 0.236903 8.43186 0.299831 8.45903C0.362759 8.48621 0.430602 8.50015 0.499145 8.5H0.999146V10.5C0.999146 10.7652 1.1045 11.0196 1.29204 11.2071C1.47958 11.3946 1.73393 11.5 1.99915 11.5H2.24915C2.31545 11.5 2.37904 11.4737 2.42592 11.4268C2.47281 11.3799 2.49915 11.3163 2.49915 11.25V4.75C2.49915 4.6837 2.47281 4.62011 2.42592 4.57322C2.37904 4.52634 2.31545 4.5 2.24915 4.5ZM15.9991 7.96688C15.988 7.83836 15.9286 7.71882 15.833 7.63223C15.7373 7.54564 15.6125 7.49841 15.4835 7.5H14.9991V5.5C14.9991 5.23478 14.8938 4.98043 14.7063 4.79289C14.5187 4.60536 14.2644 4.5 13.9991 4.5H13.7491C13.6828 4.5 13.6193 4.52634 13.5724 4.57322C13.5255 4.62011 13.4991 4.6837 13.4991 4.75V11.25C13.4991 11.3163 13.5255 11.3799 13.5724 11.4268C13.6193 11.4737 13.6828 11.5 13.7491 11.5H13.9991C14.2644 11.5 14.5187 11.3946 14.7063 11.2071C14.8938 11.0196 14.9991 10.7652 14.9991 10.5V8.5H15.4991C15.5677 8.50015 15.6355 8.48621 15.6985 8.45903C15.7614 8.43186 15.8181 8.39204 15.8649 8.34204C15.9118 8.29205 15.9479 8.23294 15.971 8.1684C15.9941 8.10387 16.0037 8.03527 15.9991 7.96688Z" fill="#D9D9D9"/>
</svg>
