<svg width="20" height="21" viewBox="0 0 20 21" fill="none" xmlns="http://www.w3.org/2000/svg">
<g id="briefcase">
<path id="Vector" d="M15 7H13.5714V5.85714C13.5714 4.94286 12.5714 4.14286 11.4286 4.14286H8.57143C7.42857 4.14286 6.42857 4.94286 6.42857 5.85714V7H5V5.85714C5 4.25714 6.57143 3 8.57143 3H11.4286C13.4286 3 15 4.25714 15 5.85714V7Z" fill="#9397B6"/>
<path id="Vector_2" d="M17.7143 7H2.28571C1.51429 7 1 7.66667 1 8.46667V17.8C1 18.4667 1.51429 19 2.28571 19H17.7143C18.4857 19 19 18.4667 19 17.8V8.46667C19 7.66667 18.4857 7 17.7143 7Z" stroke="#9397B6" stroke-width="1.5" stroke-miterlimit="10"/>
</g>
</svg>
