<svg width="25" height="25" viewBox="0 0 25 25" fill="none" xmlns="http://www.w3.org/2000/svg">
<g id="briefcase">
<path id="Vector" d="M18.75 8.125H16.9643V6.69643C16.9643 5.55357 15.7143 4.55357 14.2857 4.55357H10.7143C9.28571 4.55357 8.03571 5.55357 8.03571 6.69643V8.125H6.25V6.69643C6.25 4.69643 8.21429 3.125 10.7143 3.125H14.2857C16.7857 3.125 18.75 4.69643 18.75 6.69643V8.125Z" fill="black"/>
<path id="Vector_2" d="M22.1429 8.125H2.85714C1.89286 8.125 1.25 8.95833 1.25 9.95833V21.625C1.25 22.4583 1.89286 23.125 2.85714 23.125H22.1429C23.1071 23.125 23.75 22.4583 23.75 21.625V9.95833C23.75 8.95833 23.1071 8.125 22.1429 8.125Z" stroke="black" stroke-width="1.5" stroke-miterlimit="10"/>
</g>
</svg>
