<svg width="14" height="14" viewBox="0 0 14 14" fill="none" xmlns="http://www.w3.org/2000/svg">
<path d="M11.6845 5.55977L7.30953 9.93477C7.2689 9.97545 7.22065 10.0077 7.16754 10.0297C7.11442 10.0518 7.05749 10.0631 7 10.0631C6.9425 10.0631 6.88557 10.0518 6.83246 10.0297C6.77935 10.0077 6.7311 9.97545 6.69047 9.93477L2.31547 5.55977C2.23338 5.47768 2.18726 5.36634 2.18726 5.25024C2.18726 5.13415 2.23338 5.0228 2.31547 4.94071C2.39756 4.85862 2.5089 4.8125 2.625 4.8125C2.7411 4.8125 2.85244 4.85862 2.93453 4.94071L7 9.00673L11.0655 4.94071C11.1061 4.90006 11.1544 4.86782 11.2075 4.84582C11.2606 4.82382 11.3175 4.8125 11.375 4.8125C11.4325 4.8125 11.4894 4.82382 11.5425 4.84582C11.5956 4.86782 11.6439 4.90006 11.6845 4.94071C11.7252 4.98136 11.7574 5.02962 11.7794 5.08273C11.8014 5.13584 11.8127 5.19276 11.8127 5.25024C11.8127 5.30773 11.8014 5.36465 11.7794 5.41776C11.7574 5.47087 11.7252 5.51913 11.6845 5.55977Z" fill="#9397B6"/>
</svg>
