<svg width="20" height="20" viewBox="0 0 20 20" fill="none" xmlns="http://www.w3.org/2000/svg">
<path opacity="0.2" d="M17.5 9.99996C17.5002 11.3171 17.1535 12.6111 16.4948 13.7517C15.8361 14.8923 14.8886 15.8393 13.7477 16.4974C12.6068 17.1556 11.3126 17.5017 9.9955 17.5009C8.67836 17.5001 7.38465 17.1525 6.24453 16.4929L3.32344 17.4672C3.21332 17.5039 3.09514 17.5092 2.98216 17.4825C2.86918 17.4559 2.76586 17.3983 2.68377 17.3162C2.60169 17.2341 2.54408 17.1308 2.51742 17.0178C2.49076 16.9048 2.49609 16.7867 2.53281 16.6765L3.50703 13.7554C2.93118 12.7594 2.5922 11.6442 2.51633 10.4962C2.44045 9.34817 2.62972 8.19808 3.06948 7.13491C3.50923 6.07175 4.18769 5.12401 5.05236 4.36502C5.91703 3.60604 6.94473 3.05616 8.05593 2.75793C9.16713 2.4597 10.332 2.42112 11.4605 2.64518C12.589 2.86923 13.6509 3.34991 14.5639 4.05002C15.4769 4.75013 16.2165 5.65091 16.7257 6.68265C17.2348 7.71439 17.4998 8.84944 17.5 9.99996Z" fill="#8C8C8C"/>
<path d="M9.99982 1.875C8.59706 1.87469 7.21812 2.23757 5.99721 2.9283C4.7763 3.61904 3.75501 4.6141 3.03277 5.81664C2.31052 7.01918 1.91192 8.38822 1.87575 9.79052C1.83958 11.1928 2.16709 12.5806 2.82638 13.8188L1.93966 16.4789C1.86621 16.6992 1.85556 16.9355 1.90888 17.1615C1.96221 17.3874 2.07741 17.5941 2.24158 17.7582C2.40575 17.9224 2.61239 18.0376 2.83836 18.0909C3.06432 18.1443 3.30067 18.1336 3.52091 18.0602L6.18107 17.1734C7.27073 17.753 8.47811 18.0767 9.71156 18.12C10.945 18.1633 12.1721 17.925 13.2997 17.4232C14.4273 16.9215 15.4258 16.1694 16.2194 15.2241C17.0129 14.2789 17.5807 13.1652 17.8796 11.9678C18.1785 10.7703 18.2007 9.52047 17.9445 8.31315C17.6882 7.10584 17.1603 5.97276 16.4008 4.99993C15.6413 4.02711 14.6701 3.24009 13.561 2.69864C12.4519 2.15718 11.234 1.87551 9.99982 1.875ZM9.99982 16.875C8.79121 16.8758 7.6038 16.5575 6.55763 15.9523C6.48104 15.9079 6.39587 15.8803 6.30779 15.8713C6.21971 15.8622 6.13071 15.872 6.0467 15.9L3.12482 16.875L4.09904 13.9531C4.12712 13.8692 4.13705 13.7802 4.12816 13.6921C4.11927 13.604 4.09177 13.5188 4.04748 13.4422C3.28964 12.132 2.98537 10.6083 3.18187 9.10747C3.37837 7.60667 4.06466 6.21267 5.13426 5.14171C6.20387 4.07076 7.597 3.38271 9.09755 3.18431C10.5981 2.98592 12.1222 3.28826 13.4334 4.04444C14.7445 4.80062 15.7695 5.96837 16.3493 7.36652C16.9291 8.76468 17.0313 10.3151 16.64 11.7773C16.2487 13.2394 15.3858 14.5316 14.1852 15.4533C12.9846 16.375 11.5134 16.8748 9.99982 16.875Z" fill="#595959"/>
</svg>
