<svg width="20" height="20" viewBox="0 0 20 20" fill="none" xmlns="http://www.w3.org/2000/svg">
<g id="icon/ClockCountdown">
<path id="Vector" d="M16.2505 7.50017C16.2505 7.31475 16.3055 7.13349 16.4085 6.97932C16.5116 6.82515 16.658 6.70499 16.8293 6.63403C17.0006 6.56308 17.1891 6.54451 17.3709 6.58068C17.5528 6.61686 17.7198 6.70615 17.851 6.83726C17.9821 6.96837 18.0714 7.13542 18.1075 7.31727C18.1437 7.49913 18.1251 7.68763 18.0542 7.85894C17.9832 8.03024 17.8631 8.17666 17.7089 8.27967C17.5547 8.38269 17.3735 8.43767 17.188 8.43767C16.9394 8.43767 16.7009 8.3389 16.5251 8.16308C16.3493 7.98727 16.2505 7.74881 16.2505 7.50017ZM15.313 5.62517C15.4985 5.62517 15.6797 5.57019 15.8339 5.46717C15.9881 5.36416 16.1082 5.21774 16.1792 5.04644C16.2501 4.87513 16.2687 4.68663 16.2325 4.50477C16.1964 4.32292 16.1071 4.15587 15.976 4.02476C15.8448 3.89365 15.6778 3.80436 15.4959 3.76818C15.3141 3.73201 15.1256 3.75058 14.9543 3.82153C14.783 3.89249 14.6366 4.01265 14.5335 4.16682C14.4305 4.32099 14.3755 4.50225 14.3755 4.68767C14.3755 4.93631 14.4743 5.17477 14.6501 5.35058C14.8259 5.5264 15.0644 5.62517 15.313 5.62517ZM17.5521 10.0002C17.387 9.98655 17.2232 10.0391 17.0968 10.1461C16.9703 10.2532 16.8916 10.4061 16.8779 10.5713C16.766 11.8779 16.2833 13.1254 15.4865 14.1669C14.6898 15.2085 13.6121 16.0008 12.3803 16.4507C11.1485 16.9006 9.81378 16.9893 8.53328 16.7063C7.25278 16.4234 6.07972 15.7806 5.15214 14.8536C4.22456 13.9266 3.58104 12.754 3.2973 11.4736C3.01356 10.1933 3.1014 8.85858 3.5505 7.62649C3.99959 6.3944 4.79124 5.31621 5.83232 4.51877C6.87339 3.72134 8.12057 3.23784 9.42711 3.12517C9.50918 3.1184 9.58912 3.09553 9.66236 3.05786C9.7356 3.0202 9.8007 2.96848 9.85395 2.90565C9.90719 2.84283 9.94755 2.77013 9.9727 2.69171C9.99785 2.61329 10.0073 2.53068 10.0005 2.44861C9.99377 2.36653 9.9709 2.28659 9.93324 2.21336C9.89557 2.14012 9.84385 2.07502 9.78103 2.02177C9.7182 1.96852 9.6455 1.92817 9.56708 1.90301C9.48866 1.87786 9.40606 1.8684 9.32398 1.87517C7.78025 2.00796 6.30656 2.57888 5.07628 3.52076C3.846 4.46265 2.91032 5.73631 2.37932 7.19191C1.84832 8.64751 1.74409 10.2245 2.07889 11.7373C2.4137 13.2501 3.17361 14.6359 4.26922 15.7315C5.36484 16.8271 6.75057 17.587 8.2634 17.9218C9.77622 18.2566 11.3532 18.1524 12.8088 17.6214C14.2644 17.0904 15.5381 16.1547 16.48 14.9244C17.4218 13.6942 17.9928 12.2205 18.1255 10.6767C18.1326 10.5946 18.1233 10.5119 18.0983 10.4333C18.0733 10.3548 18.0329 10.282 17.9796 10.2191C17.9263 10.1562 17.8611 10.1045 17.7877 10.0669C17.7144 10.0294 17.6343 10.0067 17.5521 10.0002ZM10.0005 4.37517C11.1131 4.37517 12.2006 4.70507 13.1256 5.32315C14.0507 5.94124 14.7716 6.81974 15.1974 7.84758C15.6231 8.87541 15.7345 10.0064 15.5175 11.0976C15.3004 12.1887 14.7647 13.191 13.978 13.9776C13.1913 14.7643 12.1891 15.3 11.0979 15.5171C10.0068 15.7341 8.87578 15.6227 7.84795 15.197C6.82012 14.7712 5.94161 14.0503 5.32353 13.1253C4.70544 12.2002 4.37554 11.1127 4.37554 10.0002C4.3772 8.50883 4.97036 7.07906 6.0249 6.02452C7.07943 4.96999 8.50921 4.37682 10.0005 4.37517ZM9.37554 10.0002C9.37554 10.1659 9.44139 10.3249 9.5586 10.4421C9.67581 10.5593 9.83478 10.6252 10.0005 10.6252H13.7505C13.9163 10.6252 14.0753 10.5593 14.1925 10.4421C14.3097 10.3249 14.3755 10.1659 14.3755 10.0002C14.3755 9.83441 14.3097 9.67544 14.1925 9.55823C14.0753 9.44102 13.9163 9.37517 13.7505 9.37517H10.6255V6.25017C10.6255 6.08441 10.5597 5.92544 10.4425 5.80823C10.3253 5.69102 10.1663 5.62517 10.0005 5.62517C9.83478 5.62517 9.67581 5.69102 9.5586 5.80823C9.44139 5.92544 9.37554 6.08441 9.37554 6.25017V10.0002ZM12.5005 3.75017C12.686 3.75017 12.8672 3.69519 13.0214 3.59217C13.1756 3.48916 13.2957 3.34274 13.3667 3.17144C13.4376 3.00013 13.4562 2.81163 13.42 2.62977C13.3839 2.44792 13.2946 2.28087 13.1635 2.14976C13.0323 2.01865 12.8653 1.92936 12.6834 1.89318C12.5016 1.85701 12.3131 1.87558 12.1418 1.94653C11.9705 2.01749 11.8241 2.13765 11.721 2.29182C11.618 2.44599 11.563 2.62725 11.563 2.81267C11.563 3.06131 11.6618 3.29977 11.8376 3.47558C12.0134 3.6514 12.2519 3.75017 12.5005 3.75017Z" fill="#8C8C8C"/>
</g>
</svg>
