<svg width="20" height="21" viewBox="0 0 20 21" fill="none" xmlns="http://www.w3.org/2000/svg">
<g id="dashboard-apps">
<path id="Vector" d="M13.3333 4.66659C13.3333 4.44557 13.4211 4.23361 13.5774 4.07733C13.7337 3.92105 13.9456 3.83325 14.1666 3.83325H15.8333C16.0543 3.83325 16.2663 3.92105 16.4226 4.07733C16.5788 4.23361 16.6666 4.44557 16.6666 4.66659V7.99992C16.6666 8.22093 16.5788 8.43289 16.4226 8.58917C16.2663 8.74545 16.0543 8.83325 15.8333 8.83325H14.1666C13.9456 8.83325 13.7337 8.74545 13.5774 8.58917C13.4211 8.43289 13.3333 8.22093 13.3333 7.99992V4.66659ZM3.33331 12.9999C3.33331 12.7789 3.42111 12.5669 3.57739 12.4107C3.73367 12.2544 3.94563 12.1666 4.16665 12.1666H5.83331C6.05433 12.1666 6.26629 12.2544 6.42257 12.4107C6.57885 12.5669 6.66665 12.7789 6.66665 12.9999V16.3333C6.66665 16.5543 6.57885 16.7662 6.42257 16.9225C6.26629 17.0788 6.05433 17.1666 5.83331 17.1666H4.16665C3.94563 17.1666 3.73367 17.0788 3.57739 16.9225C3.42111 16.7662 3.33331 16.5543 3.33331 16.3333V12.9999ZM3.33331 4.66659C3.33331 4.44557 3.42111 4.23361 3.57739 4.07733C3.73367 3.92105 3.94563 3.83325 4.16665 3.83325H9.16665C9.38766 3.83325 9.59962 3.92105 9.7559 4.07733C9.91218 4.23361 9.99998 4.44557 9.99998 4.66659V7.99992C9.99998 8.22093 9.91218 8.43289 9.7559 8.58917C9.59962 8.74545 9.38766 8.83325 9.16665 8.83325H4.16665C3.94563 8.83325 3.73367 8.74545 3.57739 8.58917C3.42111 8.43289 3.33331 8.22093 3.33331 7.99992V4.66659ZM9.99998 12.9999C9.99998 12.7789 10.0878 12.5669 10.2441 12.4107C10.4003 12.2544 10.6123 12.1666 10.8333 12.1666H15.8333C16.0543 12.1666 16.2663 12.2544 16.4226 12.4107C16.5788 12.5669 16.6666 12.7789 16.6666 12.9999V16.3333C16.6666 16.5543 16.5788 16.7662 16.4226 16.9225C16.2663 17.0788 16.0543 17.1666 15.8333 17.1666H10.8333C10.6123 17.1666 10.4003 17.0788 10.2441 16.9225C10.0878 16.7662 9.99998 16.5543 9.99998 16.3333V12.9999Z" stroke="#9397B6" stroke-width="2" stroke-linecap="round" stroke-linejoin="round"/>
</g>
</svg>
