<svg width="20" height="21" viewBox="0 0 20 21" fill="none" xmlns="http://www.w3.org/2000/svg">
<g id="date">
<path id="Vector" d="M15.8333 3.83341H14.1667V3.00008C14.1667 2.77907 14.0789 2.56711 13.9226 2.41083C13.7663 2.25455 13.5543 2.16675 13.3333 2.16675C13.1123 2.16675 12.9004 2.25455 12.7441 2.41083C12.5878 2.56711 12.5 2.77907 12.5 3.00008V3.83341H7.5V3.00008C7.5 2.77907 7.4122 2.56711 7.25592 2.41083C7.09964 2.25455 6.88768 2.16675 6.66666 2.16675C6.44565 2.16675 6.23369 2.25455 6.07741 2.41083C5.92113 2.56711 5.83333 2.77907 5.83333 3.00008V3.83341H4.16666C3.50362 3.83341 2.86774 4.09681 2.3989 4.56565C1.93006 5.03449 1.66666 5.67037 1.66666 6.33341V16.3334C1.66666 16.9965 1.93006 17.6323 2.3989 18.1012C2.86774 18.57 3.50362 18.8334 4.16666 18.8334H15.8333C16.4964 18.8334 17.1323 18.57 17.6011 18.1012C18.0699 17.6323 18.3333 16.9965 18.3333 16.3334V6.33341C18.3333 5.67037 18.0699 5.03449 17.6011 4.56565C17.1323 4.09681 16.4964 3.83341 15.8333 3.83341ZM16.6667 16.3334C16.6667 16.5544 16.5789 16.7664 16.4226 16.9227C16.2663 17.079 16.0543 17.1667 15.8333 17.1667H4.16666C3.94565 17.1667 3.73369 17.079 3.57741 16.9227C3.42113 16.7664 3.33333 16.5544 3.33333 16.3334V10.5001H16.6667V16.3334ZM16.6667 8.83341H3.33333V6.33341C3.33333 6.1124 3.42113 5.90044 3.57741 5.74416C3.73369 5.58788 3.94565 5.50008 4.16666 5.50008H5.83333V6.33341C5.83333 6.55443 5.92113 6.76639 6.07741 6.92267C6.23369 7.07895 6.44565 7.16675 6.66666 7.16675C6.88768 7.16675 7.09964 7.07895 7.25592 6.92267C7.4122 6.76639 7.5 6.55443 7.5 6.33341V5.50008H12.5V6.33341C12.5 6.55443 12.5878 6.76639 12.7441 6.92267C12.9004 7.07895 13.1123 7.16675 13.3333 7.16675C13.5543 7.16675 13.7663 7.07895 13.9226 6.92267C14.0789 6.76639 14.1667 6.55443 14.1667 6.33341V5.50008H15.8333C16.0543 5.50008 16.2663 5.58788 16.4226 5.74416C16.5789 5.90044 16.6667 6.1124 16.6667 6.33341V8.83341Z" fill="black"/>
</g>
</svg>
