<svg width="20" height="21" viewBox="0 0 20 21" fill="none" xmlns="http://www.w3.org/2000/svg">
<g id="date">
<path id="Vector" d="M15.8333 3.83329H14.1667V2.99996C14.1667 2.77895 14.0789 2.56698 13.9226 2.4107C13.7663 2.25442 13.5544 2.16663 13.3333 2.16663C13.1123 2.16663 12.9004 2.25442 12.7441 2.4107C12.5878 2.56698 12.5 2.77895 12.5 2.99996V3.83329H7.5V2.99996C7.5 2.77895 7.41221 2.56698 7.25593 2.4107C7.09965 2.25442 6.88769 2.16663 6.66667 2.16663C6.44566 2.16663 6.2337 2.25442 6.07742 2.4107C5.92114 2.56698 5.83334 2.77895 5.83334 2.99996V3.83329H4.16667C3.50363 3.83329 2.86775 4.09668 2.3989 4.56553C1.93006 5.03437 1.66667 5.67025 1.66667 6.33329V16.3333C1.66667 16.9963 1.93006 17.6322 2.3989 18.1011C2.86775 18.5699 3.50363 18.8333 4.16667 18.8333H15.8333C16.4964 18.8333 17.1323 18.5699 17.6011 18.1011C18.0699 17.6322 18.3333 16.9963 18.3333 16.3333V6.33329C18.3333 5.67025 18.0699 5.03437 17.6011 4.56553C17.1323 4.09668 16.4964 3.83329 15.8333 3.83329ZM16.6667 16.3333C16.6667 16.5543 16.5789 16.7663 16.4226 16.9225C16.2663 17.0788 16.0544 17.1666 15.8333 17.1666H4.16667C3.94566 17.1666 3.7337 17.0788 3.57742 16.9225C3.42114 16.7663 3.33334 16.5543 3.33334 16.3333V10.5H16.6667V16.3333ZM16.6667 8.83329H3.33334V6.33329C3.33334 6.11228 3.42114 5.90032 3.57742 5.74404C3.7337 5.58776 3.94566 5.49996 4.16667 5.49996H5.83334V6.33329C5.83334 6.55431 5.92114 6.76627 6.07742 6.92255C6.2337 7.07883 6.44566 7.16663 6.66667 7.16663C6.88769 7.16663 7.09965 7.07883 7.25593 6.92255C7.41221 6.76627 7.5 6.55431 7.5 6.33329V5.49996H12.5V6.33329C12.5 6.55431 12.5878 6.76627 12.7441 6.92255C12.9004 7.07883 13.1123 7.16663 13.3333 7.16663C13.5544 7.16663 13.7663 7.07883 13.9226 6.92255C14.0789 6.76627 14.1667 6.55431 14.1667 6.33329V5.49996H15.8333C16.0544 5.49996 16.2663 5.58776 16.4226 5.74404C16.5789 5.90032 16.6667 6.11228 16.6667 6.33329V8.83329Z" fill="black"/>
</g>
</svg>
