<svg width="12" height="13" viewBox="0 0 12 13" fill="none" xmlns="http://www.w3.org/2000/svg">
<g id="Attachment Download Icon">
<path id="Vector" fill-rule="evenodd" clip-rule="evenodd" d="M6 1.625C6.09946 1.625 6.19484 1.66451 6.26516 1.73483C6.33549 1.80516 6.375 1.90054 6.375 2V7.845L7.985 6.235C8.01933 6.19816 8.06073 6.16861 8.10673 6.14811C8.15273 6.12761 8.20239 6.11659 8.25274 6.1157C8.30309 6.11482 8.3531 6.12408 8.3998 6.14294C8.44649 6.1618 8.48891 6.18987 8.52452 6.22548C8.56013 6.26109 8.5882 6.30351 8.60706 6.3502C8.62592 6.3969 8.63518 6.44691 8.6343 6.49726C8.63341 6.54761 8.62239 6.59727 8.60189 6.64327C8.58139 6.68927 8.55184 6.73067 8.515 6.765L6.265 9.015C6.19469 9.08523 6.09938 9.12467 6 9.12467C5.90062 9.12467 5.80531 9.08523 5.735 9.015L3.485 6.765C3.44816 6.73067 3.41861 6.68927 3.39811 6.64327C3.37761 6.59727 3.36659 6.54761 3.3657 6.49726C3.36482 6.44691 3.37408 6.3969 3.39294 6.3502C3.4118 6.30351 3.43987 6.26109 3.47548 6.22548C3.51109 6.18987 3.55351 6.1618 3.6002 6.14294C3.6469 6.12408 3.69691 6.11482 3.74726 6.1157C3.79761 6.11659 3.84727 6.12761 3.89327 6.14811C3.93927 6.16861 3.98067 6.19816 4.015 6.235L5.625 7.845V2C5.625 1.90054 5.66451 1.80516 5.73484 1.73483C5.80516 1.66451 5.90054 1.625 6 1.625ZM1.5 8.375C1.59946 8.375 1.69484 8.41451 1.76517 8.48484C1.83549 8.55516 1.875 8.65054 1.875 8.75V9.875C1.875 10.0739 1.95402 10.2647 2.09467 10.4053C2.23532 10.546 2.42609 10.625 2.625 10.625H9.375C9.57391 10.625 9.76468 10.546 9.90533 10.4053C10.046 10.2647 10.125 10.0739 10.125 9.875V8.75C10.125 8.65054 10.1645 8.55516 10.2348 8.48484C10.3052 8.41451 10.4005 8.375 10.5 8.375C10.5995 8.375 10.6948 8.41451 10.7652 8.48484C10.8355 8.55516 10.875 8.65054 10.875 8.75V9.875C10.875 10.2728 10.717 10.6544 10.4357 10.9357C10.1544 11.217 9.77282 11.375 9.375 11.375H2.625C2.22718 11.375 1.84564 11.217 1.56434 10.9357C1.28304 10.6544 1.125 10.2728 1.125 9.875V8.75C1.125 8.65054 1.16451 8.55516 1.23483 8.48484C1.30516 8.41451 1.40054 8.375 1.5 8.375Z" fill="#071437"/>
</g>
</svg>
