<svg width="12" height="13" viewBox="0 0 12 13" fill="none" xmlns="http://www.w3.org/2000/svg">
<g id="right-arrow">
<path id="Vector" d="M6.35498 8.26999L9.17998 5.43999C9.22685 5.39351 9.26404 5.33821 9.28943 5.27728C9.31481 5.21635 9.32788 5.151 9.32788 5.08499C9.32788 5.01899 9.31481 4.95363 9.28943 4.8927C9.26404 4.83177 9.22685 4.77647 9.17998 4.72999C9.0863 4.63687 8.95957 4.58459 8.82748 4.58459C8.69539 4.58459 8.56866 4.63687 8.47498 4.72999L5.97498 7.20499L3.49998 4.72999C3.4063 4.63687 3.27957 4.58459 3.14748 4.58459C3.01539 4.58459 2.88866 4.63687 2.79498 4.72999C2.74774 4.7763 2.71015 4.83152 2.6844 4.89246C2.65866 4.9534 2.64526 5.01884 2.64498 5.08499C2.64526 5.15114 2.65866 5.21659 2.6844 5.27752C2.71015 5.33846 2.74774 5.39368 2.79498 5.43999L5.61998 8.26999C5.6668 8.32074 5.72363 8.36125 5.78688 8.38895C5.85013 8.41666 5.91843 8.43096 5.98748 8.43096C6.05653 8.43096 6.12484 8.41666 6.18808 8.38895C6.25133 8.36125 6.30816 8.32074 6.35498 8.26999Z" fill="#9397B6"/>
</g>
</svg>
