<svg width="16" height="16" viewBox="0 0 16 16" fill="none" xmlns="http://www.w3.org/2000/svg">
<path d="M13.3538 11.3538L10.3538 14.3538C10.2838 14.4238 10.1947 14.4714 10.0977 14.4908C10.0006 14.5101 9.90002 14.5002 9.80861 14.4623C9.71719 14.4244 9.63908 14.3603 9.58414 14.278C9.5292 14.1957 9.49992 14.0989 9.5 14V11.5H4C3.86739 11.5 3.74021 11.4473 3.64645 11.3536C3.55268 11.2598 3.5 11.1326 3.5 11V2C3.5 1.86739 3.55268 1.74021 3.64645 1.64645C3.74021 1.55268 3.86739 1.5 4 1.5C4.13261 1.5 4.25979 1.55268 4.35355 1.64645C4.44732 1.74021 4.5 1.86739 4.5 2V10.5H9.5V8C9.49992 7.90105 9.5292 7.80431 9.58414 7.72201C9.63908 7.63971 9.71719 7.57556 9.80861 7.53769C9.90002 7.49981 10.0006 7.48991 10.0977 7.50924C10.1947 7.52856 10.2838 7.57624 10.3538 7.64625L13.3538 10.6462C13.4002 10.6927 13.4371 10.7478 13.4623 10.8085C13.4874 10.8692 13.5004 10.9343 13.5004 11C13.5004 11.0657 13.4874 11.1308 13.4623 11.1915C13.4371 11.2522 13.4002 11.3073 13.3538 11.3538Z" fill="#D9D9D9"/>
</svg>
