<svg width="12" height="12" viewBox="0 0 12 12" fill="none" xmlns="http://www.w3.org/2000/svg">
<g id="edit" clip-path="url(#clip0_1220_7035)">
<path id="Vector" d="M1.75 12.0008H9.25C9.71485 11.9995 10.1602 11.8138 10.4883 11.4845C10.8164 11.1552 11.0004 10.7091 11 10.2443V6.47579C11 6.34318 10.9473 6.21601 10.8536 6.12224C10.7598 6.02847 10.6326 5.97579 10.5 5.97579C10.3674 5.97579 10.2402 6.02847 10.1464 6.12224C10.0527 6.21601 10 6.34318 10 6.47579V10.2443C10.0007 10.444 9.92207 10.6358 9.78146 10.7777C9.64085 10.9195 9.44971 10.9997 9.25 11.0008H1.75C1.55029 10.9997 1.35915 10.9195 1.21854 10.7777C1.07793 10.6358 0.999336 10.444 1 10.2443V2.75729C0.999336 2.55758 1.07793 2.36576 1.21854 2.22393C1.35915 2.0821 1.55029 2.00185 1.75 2.00079H5.5C5.63261 2.00079 5.75979 1.94812 5.85355 1.85435C5.94732 1.76058 6 1.6334 6 1.50079C6 1.36819 5.94732 1.24101 5.85355 1.14724C5.75979 1.05347 5.63261 1.00079 5.5 1.00079H1.75C1.28515 1.00212 0.839818 1.18781 0.511729 1.51712C0.183641 1.84642 -0.000398546 2.29244 6.48054e-07 2.75729V10.2443C-0.000398546 10.7091 0.183641 11.1552 0.511729 11.4845C0.839818 11.8138 1.28515 11.9995 1.75 12.0008Z" fill="#9397B6"/>
<path id="Vector_2" d="M4.72823 5.2726L4.33373 7.0796C4.31587 7.16156 4.31892 7.2467 4.3426 7.32717C4.36628 7.40764 4.40982 7.48087 4.46923 7.5401C4.52944 7.59784 4.6027 7.64021 4.68277 7.66362C4.76285 7.68704 4.84739 7.6908 4.92923 7.6746L6.73223 7.2791C6.82584 7.25854 6.91158 7.2115 6.97923 7.1436L11.5362 2.5866C11.6755 2.44731 11.7861 2.28194 11.8615 2.09993C11.9368 1.91793 11.9757 1.72285 11.9757 1.52585C11.9757 1.32884 11.9368 1.13377 11.8615 0.951763C11.7861 0.769758 11.6755 0.604388 11.5362 0.465097C11.2506 0.192165 10.8708 0.039856 10.4757 0.039856C10.0807 0.039856 9.70084 0.192165 9.41523 0.465097L4.86523 5.0266C4.79694 5.09378 4.74938 5.17917 4.72823 5.2726ZM10.1222 1.1726C10.2174 1.08147 10.344 1.03059 10.4757 1.03059C10.6075 1.03059 10.7341 1.08147 10.8292 1.1726C10.9217 1.26691 10.9735 1.39374 10.9735 1.52585C10.9735 1.65795 10.9217 1.78478 10.8292 1.8791L10.4757 2.2326L9.76873 1.5256L10.1222 1.1726ZM5.67223 5.6296L9.05923 2.2341L9.75923 2.9376L6.37073 6.3341L5.47323 6.5311L5.67223 5.6296Z" fill="#9397B6"/>
</g>
<defs>
<clipPath id="clip0_1220_7035">
<rect width="12" height="12" fill="white"/>
</clipPath>
</defs>
</svg>
