<svg width="113" height="123" viewBox="0 0 113 123" fill="none" xmlns="http://www.w3.org/2000/svg">
<path d="M37.8378 31.7298C37.8035 31.7298 37.7688 31.7196 37.7385 31.6982C37.661 31.6437 37.6426 31.5372 37.6977 31.4602C37.7295 31.4154 40.8398 26.9541 37.3676 22.8871C35.943 21.2183 34.0157 20.579 32.3603 20.579C32.345 20.579 32.3295 20.579 32.3143 20.579C32.6441 21.7155 32.5852 22.726 32.1183 23.5012C31.6771 24.2341 30.8896 24.6647 30.1081 24.5974C29.4192 24.5384 28.8748 24.1182 28.6144 23.4445C28.2326 22.4563 28.6323 21.4977 29.6835 20.8804C30.2464 20.5498 31.0028 20.3265 31.85 20.2623C31.6344 19.6749 31.3141 19.0536 30.8923 18.4146C29.6386 16.5149 27.3537 15.1998 24.623 14.8065C22.3092 14.4732 20.0915 14.8658 18.9727 15.8059C18.8998 15.8671 18.7912 15.8577 18.7303 15.7859C18.6688 15.7141 18.6778 15.6061 18.7502 15.5452C19.941 14.5446 22.2655 14.1218 24.6724 14.4686C27.5006 14.8759 29.8725 16.2459 31.1802 18.2275C31.6392 18.9229 31.9827 19.6017 32.2073 20.2449C33.9878 20.2036 36.0912 20.8638 37.6299 22.6661C41.2771 26.9382 38.0116 31.611 37.978 31.6576C37.9445 31.7044 37.8915 31.7295 37.8376 31.7295L37.8378 31.7298ZM31.9612 20.5918C31.1377 20.6439 30.402 20.8558 29.859 21.1748C28.9511 21.708 28.6148 22.4909 28.9361 23.3228C29.1474 23.8695 29.5854 24.2104 30.138 24.2578C30.7853 24.3133 31.4487 23.9479 31.823 23.3266C32.2519 22.6145 32.2913 21.6681 31.9612 20.5918Z" fill="#292A2E"/>
<path d="M16.0034 18.5597C15.748 18.6359 15.4761 18.6234 15.2257 18.5218C14.9365 18.4044 14.7106 18.1824 14.5898 17.8964C14.469 17.6104 14.4674 17.2948 14.5856 17.0078C14.704 16.7209 14.9278 16.4967 15.216 16.3767C15.8099 16.1298 16.4981 16.4078 16.7475 16.9981C16.997 17.5885 16.716 18.2701 16.1211 18.5177C16.0824 18.5338 16.0431 18.5478 16.0034 18.5597ZM15.4311 16.6624C15.4034 16.6706 15.3761 16.6803 15.3489 16.6917C15.1455 16.7764 14.9875 16.9345 14.904 17.1371C14.8205 17.3397 14.8216 17.5624 14.9068 17.7642C14.9921 17.966 15.1517 18.1228 15.3558 18.2056C15.5599 18.2884 15.7841 18.2876 15.9877 18.2027C16.4076 18.028 16.606 17.5469 16.43 17.1301C16.2651 16.7404 15.8301 16.5432 15.431 16.6622L15.4311 16.6624Z" fill="#292A2E"/>
<path d="M15.9998 15.8836C15.7442 15.9599 15.4723 15.9473 15.2219 15.8457C14.9326 15.7284 14.7066 15.5063 14.586 15.2203C14.465 14.9342 14.4635 14.6189 14.5819 14.3318C14.7003 14.0448 14.924 13.8206 15.2124 13.7006C15.5002 13.5812 15.8187 13.5794 16.1078 13.6967C16.3971 13.814 16.6231 14.0361 16.7437 14.3221C16.8647 14.6079 16.8663 14.9235 16.7479 15.2105C16.6296 15.4975 16.4057 15.7217 16.1173 15.8418C16.0786 15.8578 16.0393 15.8718 15.9998 15.8836ZM15.4282 13.9859C15.4002 13.9943 15.3726 14.004 15.3453 14.0154C15.1419 14.1001 14.9839 14.2583 14.9002 14.4608C14.8169 14.6633 14.8178 14.8861 14.9032 15.0879C14.9885 15.2897 15.1479 15.4467 15.3522 15.5293C15.5563 15.6121 15.7795 15.6114 15.9843 15.5266C16.1877 15.4419 16.3457 15.2838 16.4293 15.0813C16.5126 14.8788 16.5117 14.6559 16.4264 14.4541C16.341 14.2523 16.1817 14.0954 15.9774 14.0127C15.8006 13.941 15.6086 13.9321 15.4282 13.9859Z" fill="#292A2E"/>
<path d="M15.667 17.0911C16.5121 17.0911 17.1973 16.6371 17.1973 16.0771C17.1973 15.517 16.5121 15.063 15.667 15.063C14.8218 15.063 14.1367 15.517 14.1367 16.0771C14.1367 16.6371 14.8218 17.0911 15.667 17.0911Z" fill="#434343"/>
<path d="M16.3441 17.1658C16.1336 17.2286 15.9044 17.2617 15.6683 17.2619C14.7136 17.2628 13.9654 16.7428 13.9648 16.0785C13.9643 15.4139 14.7116 14.8931 15.666 14.8921C16.1085 14.8917 16.5268 15.007 16.844 15.2169C17.1825 15.4407 17.3691 15.7457 17.3694 16.0754C17.3698 16.4051 17.1837 16.7104 16.8456 16.9349C16.6979 17.0329 16.528 17.1106 16.3441 17.1654V17.1658ZM15.0947 15.3155C14.6348 15.4528 14.3089 15.747 14.309 16.0781C14.3094 16.5352 14.9315 16.9209 15.6677 16.9204C16.0431 16.9201 16.3935 16.8245 16.654 16.6513C16.8934 16.4923 17.0252 16.288 17.0251 16.0761C17.0249 15.864 16.8927 15.6599 16.653 15.5013C16.3917 15.3285 16.0414 15.2336 15.6664 15.2339C15.4635 15.2339 15.2693 15.2633 15.0947 15.3155Z" fill="#292A2E"/>
<path d="M16.0416 17.0603L16.0054 15.0883L15.5112 15.0684L15.4766 17.0834L16.0416 17.0603Z" fill="#292A2E"/>
<path d="M13.6365 16.5059C13.7238 16.5059 13.7945 16.4357 13.7945 16.3491C13.7945 16.2626 13.7238 16.1924 13.6365 16.1924C13.5492 16.1924 13.4785 16.2626 13.4785 16.3491C13.4785 16.4357 13.5492 16.5059 13.6365 16.5059Z" fill="#292A2E"/>
<path d="M13.7595 15.6675C13.8468 15.6675 13.9175 15.5973 13.9175 15.5108C13.9175 15.4242 13.8468 15.354 13.7595 15.354C13.6723 15.354 13.6016 15.4242 13.6016 15.5108C13.6016 15.5973 13.6723 15.6675 13.7595 15.6675Z" fill="#292A2E"/>
<path d="M66.1951 22.6696C66.1212 22.6696 66.0533 22.6225 66.0305 22.5489C66.0211 22.5185 65.1021 19.4816 65.5821 16.0569C66.0269 12.8813 67.7923 8.7128 73.6758 6.8875C74.633 6.59056 75.4743 6.40701 76.2138 6.31019C76.4909 4.59229 77.5457 2.72873 79.9041 1.443C85.5079 -1.61204 89.2933 1.12899 89.3307 1.15699C89.4064 1.21368 89.4217 1.32057 89.3647 1.39587C89.3078 1.47134 89.2001 1.48637 89.1238 1.43002C89.088 1.40338 85.4706 -1.20242 80.0698 1.74232C77.8658 2.94388 76.857 4.66844 76.5701 6.26938C79.1651 6.01582 80.4082 6.87469 80.9656 7.52353C81.675 8.34876 81.8314 9.4839 81.3642 10.4157C80.9682 11.2056 80.2056 11.6483 79.3274 11.5954C77.8782 11.511 76.6788 10.3014 76.2723 8.51371C76.1459 7.95689 76.1003 7.32769 76.1667 6.66894C75.4277 6.76882 74.628 6.95016 73.7785 7.21363C69.193 8.6363 66.5499 11.6275 65.9228 16.104C65.4533 19.4548 66.3505 22.4195 66.3596 22.449C66.3875 22.5392 66.3362 22.6348 66.2455 22.6623C66.2286 22.6674 66.2118 22.6696 66.1951 22.6696ZM76.5176 6.62693C76.4431 7.27441 76.4844 7.89338 76.6081 8.43841C76.98 10.0738 78.0553 11.1791 79.3475 11.2544C80.0829 11.2961 80.7233 10.9269 81.0561 10.2634C81.4616 9.45436 81.3234 8.4659 80.7037 7.74483C79.8989 6.80861 78.4304 6.4304 76.5176 6.62693Z" fill="#292A2E"/>
<path d="M93.3379 2.88293C93.1049 2.88293 92.8764 2.81685 92.6757 2.68878C92.3996 2.51257 92.2091 2.2404 92.1394 1.92212C91.9957 1.26525 92.4174 0.614526 93.0796 0.47178C93.742 0.329034 94.3973 0.74754 94.5414 1.40441C94.6851 2.06145 94.2634 2.71201 93.6011 2.85475C93.5136 2.8737 93.4253 2.88293 93.3379 2.88293ZM93.3405 0.785275C93.2785 0.785275 93.2156 0.791934 93.1526 0.805423C92.6759 0.908214 92.3725 1.37658 92.4759 1.84955C92.526 2.0787 92.6631 2.27472 92.8617 2.40158C93.0605 2.52845 93.2975 2.57114 93.5281 2.52111C94.0048 2.41832 94.3084 1.94995 94.2049 1.47698C94.1151 1.0665 93.7475 0.785275 93.3405 0.785275Z" fill="#292A2E"/>
<path d="M92.8206 5.66974C92.5876 5.66974 92.3589 5.60366 92.1582 5.4756C91.8822 5.29939 91.6918 5.02721 91.6221 4.70894C91.5526 4.39066 91.6118 4.06453 91.7896 3.79065C91.967 3.51677 92.2415 3.32792 92.5623 3.25877C92.8827 3.18944 93.2116 3.24852 93.4878 3.42473C93.7639 3.60095 93.9542 3.87312 94.0239 4.1914C94.0934 4.50967 94.0342 4.8358 93.8564 5.10968C93.679 5.38356 93.4045 5.57241 93.0837 5.64157C92.9961 5.66052 92.908 5.66974 92.8206 5.66974ZM92.8249 3.57209C92.7617 3.57209 92.6984 3.57875 92.6351 3.59241C92.4041 3.64227 92.2067 3.77818 92.0789 3.9754C91.9512 4.17261 91.9083 4.40739 91.9586 4.63654C92.0086 4.86568 92.1458 5.0617 92.3444 5.18857C92.5433 5.31561 92.78 5.35795 93.0108 5.30809C93.2417 5.25823 93.4391 5.12232 93.567 4.9251C93.6947 4.72789 93.7375 4.49311 93.6873 4.26396C93.6372 4.03482 93.5 3.8388 93.3014 3.71193C93.1569 3.61973 92.9925 3.57226 92.8247 3.57226L92.8249 3.57209Z" fill="#292A2E"/>
<path d="M94.6687 3.38198C94.7771 2.79876 94.1516 2.19535 93.2715 2.03422C92.3914 1.87309 91.59 2.21526 91.4816 2.79848C91.3731 3.3817 91.9986 3.98511 92.8787 4.14624C93.7588 4.30737 94.5602 3.9652 94.6687 3.38198Z" fill="#434343"/>
<path d="M93.312 4.35701C93.1597 4.35701 93.0038 4.34284 92.8474 4.31432C92.3886 4.23031 91.9773 4.03105 91.6893 3.75324C91.3828 3.45767 91.2488 3.10764 91.3123 2.76768C91.3754 2.42772 91.6265 2.1482 92.0191 1.98052C92.3879 1.82292 92.8434 1.78263 93.3026 1.86646C93.7614 1.95047 94.1727 2.14974 94.4606 2.42754C94.7671 2.72311 94.9012 3.07315 94.8377 3.41311C94.7745 3.75307 94.5234 4.03258 94.1309 4.20026C93.8877 4.30408 93.6067 4.35701 93.312 4.35701ZM92.8367 2.16493C92.5892 2.16493 92.3555 2.20864 92.155 2.29419C91.8716 2.41525 91.6925 2.60546 91.6506 2.82966C91.609 3.05385 91.7078 3.29495 91.9291 3.50839C92.169 3.73958 92.5171 3.90674 92.9097 3.97846C93.3021 4.05 93.6876 4.01756 93.9948 3.88659C94.2782 3.76553 94.4574 3.57532 94.4992 3.35113C94.5408 3.12693 94.442 2.88583 94.2207 2.67223C93.9808 2.44103 93.6327 2.27404 93.2401 2.20216C93.1038 2.17723 92.9684 2.16476 92.8367 2.16476V2.16493Z" fill="#292A2E"/>
<path d="M92.8773 1.99463L92.5312 4.05488L93.0419 4.17031L93.47 2.07881L92.8773 1.99463Z" fill="#292A2E"/>
<path d="M94.9505 4.21133C95.0429 4.21133 95.1178 4.13702 95.1178 4.04536C95.1178 3.9537 95.0429 3.87939 94.9505 3.87939C94.8581 3.87939 94.7832 3.9537 94.7832 4.04536C94.7832 4.13702 94.8581 4.21133 94.9505 4.21133Z" fill="#292A2E"/>
<path d="M95.2434 3.36172C95.3358 3.36172 95.4107 3.28741 95.4107 3.19575C95.4107 3.10409 95.3358 3.02979 95.2434 3.02979C95.1511 3.02979 95.0762 3.10409 95.0762 3.19575C95.0762 3.28741 95.1511 3.36172 95.2434 3.36172Z" fill="#292A2E"/>
<path d="M95.5925 34.2018V97.9758C95.5925 99.4912 94.3544 100.72 92.827 100.72H11.5682C10.0408 100.72 8.80273 99.4912 8.80273 97.9758V46.6523C8.80273 45.1369 10.0408 43.9085 11.5682 43.9085H60.3088C61.8361 43.9085 63.0742 42.6801 63.0742 41.1647V34.2018C63.0742 32.6864 64.3122 31.458 65.8396 31.458H92.827C94.3544 31.458 95.5925 32.6864 95.5925 34.2018Z" fill="#B18D41"/>
<path d="M92.8271 100.89H11.5684C9.9486 100.89 8.63086 99.5827 8.63086 97.9757V46.6521C8.63086 45.045 9.9486 43.7376 11.5684 43.7376H60.309C61.7391 43.7376 62.9023 42.5833 62.9023 41.1646V34.2016C62.9023 32.5945 64.22 31.2871 65.8396 31.2871H92.8269C94.4467 31.2871 95.7644 32.5945 95.7644 34.2016V97.9757C95.7644 99.5827 94.4467 100.89 92.8269 100.89H92.8271ZM11.5684 44.0793C10.1383 44.0793 8.97505 45.2335 8.97505 46.6523V97.9758C8.97505 99.3946 10.1384 100.549 11.5684 100.549H92.8271C94.2572 100.549 95.4204 99.3946 95.4204 97.9758V34.2016C95.4204 32.7829 94.257 31.6286 92.8271 31.6286H65.8398C64.4099 31.6286 63.2467 32.7829 63.2467 34.2016V41.1646C63.2467 42.7717 61.9289 44.0791 60.3091 44.0791H11.5684V44.0793Z" fill="#262626"/>
<path d="M100.755 34.2018V97.9758C100.755 99.4912 99.5165 100.72 97.9892 100.72H16.7303C15.2029 100.72 13.9648 99.4912 13.9648 97.9758V46.6523C13.9648 45.1369 15.2029 43.9085 16.7303 43.9085H65.4709C66.9982 43.9085 68.2363 42.6801 68.2363 41.1647V34.2018C68.2363 32.6864 69.4743 31.458 71.0017 31.458H97.9892C99.5165 31.458 100.755 32.6864 100.755 34.2018Z" fill="#434343"/>
<path d="M97.9892 100.89H16.7305C15.1107 100.89 13.793 99.5827 13.793 97.9757V46.6521C13.793 45.045 15.1107 43.7376 16.7305 43.7376H65.4711C66.9012 43.7376 68.0644 42.5833 68.0644 41.1646V34.2016C68.0644 32.5945 69.3821 31.2871 71.0017 31.2871H97.989C99.6088 31.2871 100.927 32.5945 100.927 34.2016V97.9757C100.927 99.5827 99.6088 100.89 97.989 100.89H97.9892ZM16.7305 44.0793C15.3004 44.0793 14.1372 45.2335 14.1372 46.6523V97.9758C14.1372 99.3946 15.3005 100.549 16.7305 100.549H97.9892C99.4193 100.549 100.583 99.3946 100.583 97.9758V34.2016C100.583 32.7829 99.4191 31.6286 97.9892 31.6286H71.0019C69.572 31.6286 68.4088 32.7829 68.4088 34.2016V41.1646C68.4088 42.7717 67.091 44.0791 65.4713 44.0791H16.7305V44.0793Z" fill="#262626"/>
<path d="M50.803 66.3743C51.8591 66.3743 52.7153 65.5248 52.7153 64.477C52.7153 63.4291 51.8591 62.5796 50.803 62.5796C49.7468 62.5796 48.8906 63.4291 48.8906 64.477C48.8906 65.5248 49.7468 66.3743 50.803 66.3743Z" fill="#292A2E"/>
<path d="M63.9162 66.3743C64.9724 66.3743 65.8286 65.5248 65.8286 64.477C65.8286 63.4291 64.9724 62.5796 63.9162 62.5796C62.8601 62.5796 62.0039 63.4291 62.0039 64.477C62.0039 65.5248 62.8601 66.3743 63.9162 66.3743Z" fill="#292A2E"/>
<path d="M59.9229 69.4268H54.7949V69.7683H59.9229V69.4268Z" fill="#262626"/>
<g opacity="0.1">
<path d="M48.831 69.9042C49.7732 69.9042 50.537 69.5053 50.537 69.0134C50.537 68.5214 49.7732 68.1226 48.831 68.1226C47.8888 68.1226 47.125 68.5214 47.125 69.0134C47.125 69.5053 47.8888 69.9042 48.831 69.9042Z" fill="#B18D41"/>
<path d="M65.8896 69.9042C66.8318 69.9042 67.5956 69.5053 67.5956 69.0134C67.5956 68.5214 66.8318 68.1226 65.8896 68.1226C64.9474 68.1226 64.1836 68.5214 64.1836 69.0134C64.1836 69.5053 64.9474 69.9042 65.8896 69.9042Z" fill="#B18D41"/>
</g>
</svg>
