<svg width="16" height="16" viewBox="0 0 16 16" fill="none" xmlns="http://www.w3.org/2000/svg">
<path d="M4.00653 9.2376C4.00823 9.27146 4.00301 9.30532 3.99121 9.33711C3.97941 9.3689 3.96126 9.39795 3.93788 9.42251C3.91449 9.44706 3.88635 9.46661 3.85518 9.47994C3.824 9.49328 3.79044 9.50014 3.75653 9.5001H0.99903C0.886177 9.50027 0.776586 9.46226 0.688076 9.39224C0.599567 9.32223 0.537345 9.22433 0.51153 9.11447C0.495456 9.03928 0.496197 8.96146 0.5137 8.88658C0.531204 8.8117 0.565037 8.74162 0.61278 8.68134C1.05391 8.09633 1.63921 7.63572 2.31153 7.34447C2.01636 7.07535 1.78997 6.73941 1.65133 6.36481C1.51268 5.9902 1.46582 5.58782 1.51466 5.19138C1.56351 4.79493 1.70663 4.41596 1.93205 4.08621C2.15748 3.75646 2.45863 3.48552 2.8103 3.29608C3.16196 3.10665 3.5539 3.00424 3.95329 2.99743C4.35267 2.99062 4.74787 3.07961 5.10579 3.25695C5.46371 3.43428 5.77392 3.6948 6.01046 4.01667C6.24699 4.33855 6.40295 4.71242 6.46528 5.10697C6.47333 5.16003 6.46382 5.21426 6.43821 5.26142C6.4126 5.30858 6.37229 5.34608 6.32341 5.36822C5.6299 5.68883 5.04257 6.20112 4.63072 6.84464C4.21887 7.48817 3.99969 8.23607 3.99903 9.0001C3.99903 9.0801 3.99903 9.15885 4.00653 9.2376ZM15.3815 8.68072C14.9414 8.09639 14.3575 7.63602 13.6865 7.34447C13.9817 7.07535 14.2081 6.73941 14.3467 6.36481C14.4854 5.9902 14.5322 5.58782 14.4834 5.19138C14.4346 4.79493 14.2914 4.41596 14.066 4.08621C13.8406 3.75646 13.5394 3.48552 13.1878 3.29608C12.8361 3.10665 12.4442 3.00424 12.0448 2.99743C11.6454 2.99062 11.2502 3.07961 10.8923 3.25695C10.5344 3.43428 10.2241 3.6948 9.9876 4.01667C9.75107 4.33855 9.59511 4.71242 9.53278 5.10697C9.52473 5.16003 9.53424 5.21426 9.55985 5.26142C9.58546 5.30858 9.62577 5.34608 9.67465 5.36822C10.3682 5.68883 10.9555 6.20112 11.3673 6.84464C11.7792 7.48817 11.9984 8.23607 11.999 9.0001C11.999 9.0801 11.999 9.15885 11.9915 9.2376C11.9898 9.27146 11.995 9.30532 12.0068 9.33711C12.0187 9.3689 12.0368 9.39795 12.0602 9.42251C12.0836 9.44706 12.1117 9.46661 12.1429 9.47994C12.1741 9.49328 12.2076 9.50014 12.2415 9.5001H14.999C15.1119 9.50027 15.2215 9.46226 15.31 9.39224C15.3985 9.32223 15.4607 9.22433 15.4865 9.11447C15.5027 9.03914 15.502 8.96115 15.4843 8.88615C15.4667 8.81114 15.4327 8.74098 15.3847 8.68072H15.3815ZM9.81903 11.3795C10.3169 10.9982 10.6827 10.4705 10.8652 9.87057C11.0476 9.27063 11.0375 8.6286 10.8362 8.03471C10.6349 7.44083 10.2526 6.92495 9.74297 6.55957C9.23334 6.1942 8.62204 5.99771 7.99497 5.99771C7.3679 5.99771 6.75659 6.1942 6.24697 6.55957C5.73734 6.92495 5.35502 7.44083 5.15373 8.03471C4.95244 8.6286 4.94231 9.27063 5.12476 9.87057C5.30721 10.4705 5.67306 10.9982 6.17091 11.3795C5.28749 11.7622 4.54982 12.4178 4.06591 13.2501C4.02202 13.3261 3.99891 13.4123 3.99892 13.5001C3.99892 13.5879 4.02204 13.6741 4.06593 13.7501C4.10983 13.8262 4.17297 13.8893 4.24899 13.9332C4.32502 13.977 4.41125 14.0001 4.49903 14.0001H11.499C11.5868 14.0001 11.673 13.977 11.7491 13.9332C11.8251 13.8893 11.8882 13.8262 11.9321 13.7501C11.976 13.6741 11.9991 13.5879 11.9991 13.5001C11.9991 13.4123 11.976 13.3261 11.9322 13.2501C11.4472 12.4172 10.7082 11.7616 9.82341 11.3795H9.81903Z" fill="#B18D41"/>
</svg>
