<svg width="13" height="13" viewBox="0 0 13 13" fill="none" xmlns="http://www.w3.org/2000/svg">
<path d="M4.44375 3.81875L5.875 2.38125V8.375C5.875 8.54076 5.94085 8.69973 6.05806 8.81694C6.17527 8.93415 6.33424 9 6.5 9C6.66576 9 6.82473 8.93415 6.94194 8.81694C7.05915 8.69973 7.125 8.54076 7.125 8.375V2.38125L8.55625 3.81875C8.61435 3.87733 8.68348 3.92382 8.75964 3.95555C8.8358 3.98728 8.91749 4.00362 9 4.00362C9.08251 4.00362 9.1642 3.98728 9.24036 3.95555C9.31652 3.92382 9.38565 3.87733 9.44375 3.81875C9.50233 3.76064 9.54883 3.69152 9.58056 3.61536C9.61229 3.53919 9.62862 3.4575 9.62862 3.375C9.62862 3.29249 9.61229 3.2108 9.58056 3.13464C9.54883 3.05847 9.50233 2.98935 9.44375 2.93125L6.94375 0.431246C6.88431 0.374346 6.81422 0.329743 6.7375 0.299996C6.58534 0.237485 6.41466 0.237485 6.2625 0.299996C6.18578 0.329743 6.11569 0.374346 6.05625 0.431246L3.55625 2.93125C3.49798 2.98952 3.45175 3.0587 3.42021 3.13484C3.38868 3.21098 3.37244 3.29258 3.37244 3.375C3.37244 3.45741 3.38868 3.53901 3.42021 3.61515C3.45175 3.69129 3.49798 3.76047 3.55625 3.81875C3.61452 3.87702 3.68371 3.92325 3.75984 3.95478C3.83598 3.98632 3.91759 4.00255 4 4.00255C4.08241 4.00255 4.16402 3.98632 4.24016 3.95478C4.31629 3.92325 4.38548 3.87702 4.44375 3.81875ZM12.125 6.5C11.9592 6.5 11.8003 6.56584 11.6831 6.68305C11.5658 6.80026 11.5 6.95924 11.5 7.125V10.875C11.5 11.0408 11.4342 11.1997 11.3169 11.3169C11.1997 11.4341 11.0408 11.5 10.875 11.5H2.125C1.95924 11.5 1.80027 11.4341 1.68306 11.3169C1.56585 11.1997 1.5 11.0408 1.5 10.875V7.125C1.5 6.95924 1.43415 6.80026 1.31694 6.68305C1.19973 6.56584 1.04076 6.5 0.875 6.5C0.70924 6.5 0.550268 6.56584 0.433058 6.68305C0.315848 6.80026 0.25 6.95924 0.25 7.125V10.875C0.25 11.3723 0.447544 11.8492 0.799175 12.2008C1.15081 12.5525 1.62772 12.75 2.125 12.75H10.875C11.3723 12.75 11.8492 12.5525 12.2008 12.2008C12.5525 11.8492 12.75 11.3723 12.75 10.875V7.125C12.75 6.95924 12.6842 6.80026 12.5669 6.68305C12.4497 6.56584 12.2908 6.5 12.125 6.5Z" fill="white"/>
</svg>
