<svg width="16" height="16" viewBox="0 0 16 16" fill="none" xmlns="http://www.w3.org/2000/svg">
<path d="M3.36999 2.1633C3.32608 2.11381 3.27279 2.07352 3.21319 2.04477C3.1536 2.01603 3.08889 1.99939 3.02282 1.99584C2.95675 1.99228 2.89063 2.00188 2.8283 2.02407C2.76597 2.04625 2.70865 2.08059 2.65969 2.12509C2.61072 2.16959 2.57108 2.22337 2.54305 2.2833C2.51502 2.34324 2.49916 2.40814 2.4964 2.47425C2.49364 2.54035 2.50402 2.60635 2.52696 2.66842C2.54989 2.73048 2.58491 2.78737 2.62999 2.8358L3.83249 4.15893C1.56249 5.55205 0.586244 7.69955 0.543119 7.79705C0.51469 7.861 0.5 7.9302 0.5 8.00018C0.5 8.07016 0.51469 8.13936 0.543119 8.2033C0.564994 8.25268 1.09437 9.42643 2.27124 10.6033C3.83937 12.1708 5.81999 12.9996 7.99999 12.9996C9.12038 13.0059 10.2294 12.7753 11.2544 12.3227L12.6294 13.8358C12.6733 13.8853 12.7266 13.9256 12.7862 13.9543C12.8458 13.9831 12.9105 13.9997 12.9765 14.0033C13.0426 14.0068 13.1087 13.9972 13.1711 13.975C13.2334 13.9529 13.2907 13.9185 13.3397 13.874C13.3886 13.8295 13.4283 13.7757 13.4563 13.7158C13.4843 13.6559 13.5002 13.591 13.503 13.5249C13.5057 13.4588 13.4953 13.3928 13.4724 13.3307C13.4495 13.2686 13.4145 13.2117 13.3694 13.1633L3.36999 2.1633ZM6.32812 6.9033L8.93249 9.76893C8.5403 9.97525 8.09069 10.0455 7.65426 9.96858C7.21783 9.89168 6.81931 9.67201 6.52126 9.34406C6.22321 9.01611 6.04252 8.59846 6.00756 8.15669C5.9726 7.71492 6.08536 7.27405 6.32812 6.9033ZM7.99999 11.9996C6.07624 11.9996 4.39562 11.3002 3.00437 9.92143C2.43332 9.35392 1.94763 8.70655 1.56249 7.99955C1.85562 7.45018 2.79124 5.91268 4.52187 4.9133L5.64687 6.14768C5.21133 6.70549 4.98702 7.39933 5.01358 8.10654C5.04014 8.81375 5.31586 9.4888 5.79202 10.0124C6.26817 10.5359 6.91409 10.8743 7.61561 10.9677C8.31713 11.0611 9.02908 10.9035 9.62562 10.5227L10.5462 11.5352C9.73374 11.8469 8.87023 12.0044 7.99999 11.9996ZM8.37499 6.03518C8.24471 6.01031 8.12963 5.93471 8.05509 5.825C7.98054 5.71529 7.95263 5.58047 7.97749 5.45018C8.00236 5.31989 8.07796 5.20482 8.18767 5.13027C8.29738 5.05573 8.43221 5.02781 8.56249 5.05268C9.19975 5.17622 9.77999 5.50246 10.2167 5.98273C10.6534 6.46301 10.9231 7.07158 10.9856 7.71768C10.998 7.84971 10.9574 7.98123 10.8727 8.08332C10.7881 8.18541 10.6664 8.2497 10.5344 8.26205C10.5188 8.26297 10.5031 8.26297 10.4875 8.26205C10.3625 8.26259 10.2419 8.21631 10.1493 8.13232C10.0568 8.04834 9.99905 7.93274 9.98749 7.8083C9.94541 7.37855 9.76575 6.97386 9.47522 6.65439C9.1847 6.33493 8.79883 6.11776 8.37499 6.03518ZM15.455 8.2033C15.4287 8.26205 14.7956 9.66393 13.37 10.9408C13.3213 10.9858 13.2641 11.0207 13.2018 11.0434C13.1395 11.0661 13.0732 11.0762 13.007 11.073C12.9407 11.0699 12.8758 11.0536 12.8159 11.0251C12.756 10.9966 12.7023 10.9565 12.6581 10.9071C12.6138 10.8577 12.5799 10.7999 12.5582 10.7373C12.5365 10.6746 12.5274 10.6082 12.5316 10.542C12.5358 10.4758 12.5531 10.4111 12.5826 10.3517C12.612 10.2922 12.653 10.2393 12.7031 10.1958C13.4025 9.56744 13.9901 8.82478 14.4406 7.99955C14.0546 7.29191 13.5679 6.64411 12.9956 6.07643C11.6044 4.69893 9.92374 3.99955 7.99999 3.99955C7.59465 3.99906 7.18996 4.03188 6.78999 4.09768C6.72495 4.10918 6.65828 4.10768 6.59382 4.09327C6.52936 4.07886 6.46839 4.05181 6.41444 4.01371C6.3605 3.9756 6.31463 3.92718 6.2795 3.87124C6.24437 3.81531 6.22067 3.75297 6.20978 3.68782C6.19888 3.62268 6.20099 3.55602 6.216 3.49169C6.23101 3.42737 6.25862 3.36666 6.29723 3.31307C6.33583 3.25947 6.38468 3.21406 6.44094 3.17945C6.49719 3.14484 6.55975 3.12172 6.62499 3.11143C7.07947 3.03639 7.53936 2.99897 7.99999 2.99955C10.18 2.99955 12.1606 3.8283 13.7287 5.39643C14.9056 6.5733 15.435 7.74768 15.4569 7.79705C15.4853 7.861 15.5 7.9302 15.5 8.00018C15.5 8.07016 15.4853 8.13936 15.4569 8.2033H15.455Z" fill="#8C8C8C"/>
</svg>
