<svg width="25" height="25" viewBox="0 0 25 25" fill="none" xmlns="http://www.w3.org/2000/svg">
<g id="folder">
<path id="Vector" d="M23.3237 13.7289C23.3237 13.4233 23.0924 13.2705 22.6296 13.2705H8.38135C8.03213 13.2705 7.6589 13.3644 7.26165 13.5521C6.86442 13.7398 6.55231 13.969 6.32531 14.2396L2.47511 18.9934C2.31797 19.2029 2.2394 19.3776 2.2394 19.5172C2.2394 19.8228 2.47075 19.9756 2.93347 19.9756H17.1818C17.531 19.9756 17.9064 19.8796 18.308 19.6875C18.7096 19.4954 19.0196 19.2641 19.2378 18.9934L23.088 14.2396C23.2452 14.0475 23.3237 13.8773 23.3237 13.7289L23.3237 13.7289ZM8.38135 11.5943H18.439V9.49891C18.439 9.14968 18.3167 8.85284 18.0723 8.60839C17.8278 8.36394 17.531 8.24171 17.1818 8.24171H9.63856C9.28933 8.24171 8.99249 8.11948 8.74803 7.87503C8.50358 7.63057 8.38135 7.33373 8.38135 6.9845V6.14637C8.38135 5.79714 8.25912 5.5003 8.01466 5.25585C7.77021 5.01139 7.47337 4.88916 7.12416 4.88917H2.93347C2.58425 4.88917 2.28741 5.0114 2.04295 5.25586C1.7985 5.50032 1.67627 5.79716 1.67627 6.14639V17.3171L5.02881 13.192C5.41295 12.7292 5.91932 12.3473 6.54792 12.0461C7.17653 11.7449 7.78767 11.5943 8.38135 11.5943ZM25 13.7289C25 14.2702 24.7992 14.794 24.3976 15.3004L20.5343 20.0542C20.1589 20.5169 19.6525 20.8989 19.0152 21.2001C18.3779 21.5013 17.7667 21.6519 17.1818 21.6519H2.93347C2.13026 21.6519 1.44055 21.3638 0.864328 20.7875C0.288109 20.2113 0 19.5216 0 18.7184V6.14637C0 5.34315 0.288109 4.65344 0.864328 4.07722C1.44055 3.501 2.13026 3.21289 2.93347 3.21289H7.12416C7.92737 3.21289 8.61709 3.501 9.1933 4.07722C9.76952 4.65344 10.0576 5.34315 10.0576 6.14637V6.56544H17.1818C17.985 6.56544 18.6747 6.85355 19.2509 7.42976C19.8272 8.00598 20.1153 8.69569 20.1153 9.49891V11.5943H22.6297C23.1011 11.5943 23.5333 11.7012 23.9262 11.9151C24.319 12.129 24.6115 12.4368 24.8036 12.8384C24.9345 13.1177 25 13.4146 25 13.7289Z" fill="black"/>
</g>
</svg>
