<svg width="20" height="21" viewBox="0 0 20 21" fill="none" xmlns="http://www.w3.org/2000/svg">
<g id="folder">
<path id="Vector" d="M18.659 11.483C18.659 11.2385 18.4739 11.1163 18.1037 11.1163H6.70508C6.4257 11.1163 6.12712 11.1914 5.80932 11.3415C5.49154 11.4917 5.24185 11.675 5.06025 11.8916L1.98009 15.6946C1.85438 15.8622 1.79152 16.0019 1.79152 16.1137C1.79152 16.3581 1.9766 16.4804 2.34677 16.4804H13.7454C14.0248 16.4804 14.3251 16.4035 14.6464 16.2499C14.9677 16.0962 15.2157 15.9111 15.3903 15.6946L18.4704 11.8916C18.5961 11.7379 18.659 11.6017 18.659 11.483L18.659 11.483ZM6.70508 9.77528H14.7512V8.09901C14.7512 7.81962 14.6534 7.58215 14.4578 7.38659C14.2623 7.19103 14.0248 7.09325 13.7454 7.09325H7.71085C7.43147 7.09325 7.19399 6.99547 6.99843 6.7999C6.80286 6.60433 6.70508 6.36686 6.70508 6.08748V5.41698C6.70508 5.13759 6.6073 4.90012 6.41173 4.70455C6.21617 4.50899 5.9787 4.41121 5.69933 4.41122H2.34677C2.0674 4.41122 1.82993 4.509 1.63436 4.70457C1.4388 4.90013 1.34102 5.1376 1.34102 5.41699V14.3536L4.02305 11.0534C4.33036 10.6833 4.73546 10.3777 5.23834 10.1367C5.74122 9.89577 6.23014 9.77528 6.70508 9.77528ZM20 11.483C20 11.916 19.8394 12.3351 19.5181 12.7402L16.4275 16.5432C16.1271 16.9134 15.722 17.219 15.2122 17.4599C14.7023 17.7009 14.2134 17.8214 13.7454 17.8214H2.34677C1.70421 17.8214 1.15244 17.5909 0.691462 17.1299C0.230487 16.6689 0 16.1172 0 15.4746V5.41698C0 4.7744 0.230487 4.22263 0.691462 3.76165C1.15244 3.30068 1.70421 3.07019 2.34677 3.07019H5.69933C6.3419 3.07019 6.89367 3.30068 7.35464 3.76165C7.81562 4.22263 8.04611 4.7744 8.04611 5.41698V5.75223H13.7454C14.388 5.75223 14.9398 5.98272 15.4007 6.44368C15.8617 6.90466 16.0922 7.45643 16.0922 8.09901V9.77528H18.1037C18.4809 9.77528 18.8266 9.86084 19.1409 10.032C19.4552 10.2031 19.6892 10.4493 19.8429 10.7706C19.9476 10.9941 20 11.2315 20 11.483Z" fill="#9397B6"/>
</g>
</svg>
