<svg width="15" height="16" viewBox="0 0 15 16" fill="none" xmlns="http://www.w3.org/2000/svg">
<g id="inbox" clip-path="url(#clip0_738_9946)">
<path id="Vector" d="M11.875 2.375H3.11875C2.42812 2.375 1.88125 2.93437 1.88125 3.625L1.875 12.375C1.875 13.0656 2.42812 13.625 3.11875 13.625H11.875C12.5656 13.625 13.125 13.0656 13.125 12.375V3.625C13.125 2.93437 12.5656 2.375 11.875 2.375ZM11.875 9.875H9.375C9.375 10.9094 8.53438 11.75 7.5 11.75C6.46562 11.75 5.625 10.9094 5.625 9.875H3.11875V3.625H11.875V9.875ZM10 6.75H8.75V4.875H6.25V6.75H5L7.5 9.25L10 6.75Z" fill="#0C134F"/>
</g>
<defs>
<clipPath id="clip0_738_9946">
<rect width="15" height="15" fill="white" transform="translate(0 0.5)"/>
</clipPath>
</defs>
</svg>
