<svg width="32" height="32" viewBox="0 0 32 32" fill="none" xmlns="http://www.w3.org/2000/svg">
<g id="job">
<path id="Vector" fill-rule="evenodd" clip-rule="evenodd" d="M6.81068 6.48925C7.76668 6.35992 8.93734 6.33725 10.3453 6.33459C10.429 5.24587 10.9206 4.22887 11.7218 3.48699C12.523 2.74512 13.5747 2.33307 14.6667 2.33325H17.3333C18.4248 2.33338 19.4761 2.74539 20.277 3.48696C21.0778 4.22852 21.5694 5.245 21.6533 6.33325C23.0627 6.33725 24.2333 6.35992 25.1893 6.48925C26.3893 6.64925 27.4 6.99592 28.2027 7.79725C29.0053 8.59992 29.3493 9.61059 29.512 10.8106C29.6667 11.9666 29.6667 13.4373 29.6667 15.2599V20.7399C29.6667 22.5626 29.6667 24.0333 29.512 25.1893C29.3493 26.3893 29.0053 27.3999 28.2027 28.2026C27.4 29.0053 26.3893 29.3493 25.1893 29.5119C24.0333 29.6666 22.5627 29.6666 20.74 29.6666H11.26C9.43734 29.6666 7.96668 29.6666 6.81068 29.5119C5.61068 29.3493 4.60001 29.0053 3.79734 28.2026C2.99468 27.3999 2.65068 26.3893 2.48934 25.1893C2.33334 24.0333 2.33334 22.5626 2.33334 20.7399V15.2599C2.33334 13.4373 2.33334 11.9666 2.48934 10.8106C2.64934 9.61059 2.99601 8.59992 3.79734 7.79725C4.60001 6.99459 5.61068 6.65059 6.81068 6.48925ZM19.6427 6.33325H12.3573C12.4375 5.77793 12.7151 5.27009 13.1392 4.90277C13.5633 4.53546 14.1056 4.33327 14.6667 4.33325H17.3333C17.8944 4.33327 18.4367 4.53546 18.8608 4.90277C19.285 5.27009 19.5625 5.77793 19.6427 6.33325ZM7.07734 27.5293C6.09868 27.3973 5.58134 27.1559 5.21201 26.7879C4.84268 26.4186 4.60268 25.9013 4.47068 24.9213C4.33601 23.9146 4.33334 22.5799 4.33334 20.6666V16.1733C9.25068 18.2373 12.1227 19.3653 15.1467 19.5066C15.7147 19.5333 16.2853 19.5333 16.8533 19.5066C19.8773 19.3653 22.7493 18.2373 27.6667 16.1733V20.6666C27.6667 22.5799 27.664 23.9146 27.5293 24.9226C27.3973 25.9013 27.156 26.4186 26.788 26.7879C26.4187 27.1573 25.9013 27.3973 24.9213 27.5293C23.9147 27.6639 22.58 27.6666 20.6667 27.6666H11.3333C9.42001 27.6666 8.08401 27.6639 7.07734 27.5293ZM27.664 14.0039C22.164 16.3173 19.5187 17.3799 16.76 17.5079C16.2533 17.5319 15.7467 17.5319 15.24 17.5079C12.48 17.3799 9.83601 16.3173 4.33601 14.0039C4.34268 12.7733 4.36934 11.8333 4.47068 11.0773C4.60268 10.0986 4.84401 9.58125 5.21201 9.21192C5.58134 8.84259 6.09868 8.60259 7.07868 8.47059C8.08401 8.33592 9.42001 8.33325 11.3333 8.33325H20.6667C22.58 8.33325 23.9147 8.33592 24.9227 8.47059C25.9013 8.60259 26.4187 8.84392 26.788 9.21192C27.1573 9.58125 27.3973 10.0986 27.5293 11.0786C27.6307 11.8333 27.6573 12.7719 27.664 14.0039Z" fill="black"/>
</g>
</svg>
