<svg width="20" height="20" viewBox="0 0 20 20" fill="none" xmlns="http://www.w3.org/2000/svg">
<g id="right-arrow">
<path id="Vector" d="M7.05006 10.5916L11.7667 15.2999C11.8442 15.378 11.9364 15.44 12.0379 15.4823C12.1395 15.5246 12.2484 15.5464 12.3584 15.5464C12.4684 15.5464 12.5773 15.5246 12.6789 15.4823C12.7804 15.44 12.8726 15.378 12.9501 15.2999C13.1053 15.1438 13.1924 14.9325 13.1924 14.7124C13.1924 14.4922 13.1053 14.281 12.9501 14.1249L8.82506 9.95822L12.9501 5.83322C13.1053 5.67709 13.1924 5.46588 13.1924 5.24572C13.1924 5.02557 13.1053 4.81436 12.9501 4.65822C12.8729 4.57948 12.7808 4.51684 12.6793 4.47393C12.5777 4.43101 12.4686 4.40868 12.3584 4.40822C12.2481 4.40868 12.1391 4.43101 12.0375 4.47393C11.9359 4.51684 11.8439 4.57948 11.7667 4.65822L7.05006 9.36655C6.96547 9.44459 6.89796 9.5393 6.85179 9.64472C6.80562 9.75013 6.78178 9.86397 6.78178 9.97905C6.78178 10.0941 6.80562 10.208 6.85179 10.3134C6.89796 10.4188 6.96547 10.5135 7.05006 10.5916Z" fill="black"/>
</g>
</svg>
