<svg width="8" height="14" viewBox="0 0 8 14" fill="none" xmlns="http://www.w3.org/2000/svg">
<path id="Vector" d="M0.629208 5.9458L6.28921 0.295798C6.38217 0.20207 6.49277 0.127676 6.61463 0.0769072C6.73649 0.0261385 6.8672 0 6.99921 0C7.13122 0 7.26193 0.0261385 7.38378 0.0769072C7.50564 0.127676 7.61624 0.20207 7.70921 0.295798C7.89546 0.483161 8 0.736612 8 1.0008C8 1.26498 7.89546 1.51844 7.70921 1.7058L2.75921 6.7058L7.70921 11.6558C7.89546 11.8432 8 12.0966 8 12.3608C8 12.625 7.89546 12.8784 7.70921 13.0658C7.61659 13.1603 7.50615 13.2355 7.38427 13.287C7.2624 13.3384 7.13151 13.3652 6.99921 13.3658C6.8669 13.3652 6.73602 13.3384 6.61414 13.287C6.49227 13.2355 6.38182 13.1603 6.28921 13.0658L0.629208 7.4158C0.527703 7.32216 0.446694 7.2085 0.391287 7.08201C0.335879 6.95551 0.307275 6.8189 0.307275 6.6808C0.307275 6.5427 0.335879 6.40609 0.391287 6.27959C0.446694 6.15309 0.527703 6.03944 0.629208 5.9458Z" fill="#0C134F"/>
</svg>
