<svg width="20" height="21" viewBox="0 0 20 21" fill="none" xmlns="http://www.w3.org/2000/svg">
<g id="logout">
<path id="Vector" d="M18.8854 11.052L15.7604 14.177C15.6084 14.3291 15.4084 14.4062 15.2084 14.4062C15.0084 14.4062 14.8084 14.3302 14.6563 14.177C14.3511 13.8718 14.3511 13.377 14.6563 13.0718L16.4479 11.2802H6.87606C6.44481 11.2802 6.09481 10.9302 6.09481 10.4989C6.09481 10.0677 6.44481 9.71767 6.87606 9.71767H16.4479L14.6563 7.926C14.3511 7.62079 14.3511 7.126 14.6563 6.82079C14.9615 6.51558 15.4563 6.51558 15.7615 6.82079L18.8865 9.94579C19.1917 10.251 19.1917 10.7458 18.8865 11.051L18.8854 11.052ZM7.65627 18.8333C7.65627 18.402 7.30627 18.052 6.87502 18.052H3.75002C3.03231 18.052 2.44794 17.4677 2.44794 16.75V4.24996C2.44794 3.53225 3.03231 2.94788 3.75002 2.94788H6.87502C7.30627 2.94788 7.65627 2.59788 7.65627 2.16663C7.65627 1.73538 7.30627 1.38538 6.87502 1.38538H3.75002C2.16981 1.38538 0.885437 2.66975 0.885437 4.24996V16.75C0.885437 18.3302 2.16981 19.6145 3.75002 19.6145H6.87502C7.30627 19.6145 7.65627 19.2645 7.65627 18.8333Z" fill="#FF5F59"/>
</g>
</svg>
