<svg width="14" height="14" viewBox="0 0 14 14" fill="none" xmlns="http://www.w3.org/2000/svg">
<path d="M12.5594 11.9408L9.82121 9.20318C10.6149 8.25036 11.0106 7.02825 10.9261 5.79108C10.8417 4.55391 10.2835 3.39693 9.36771 2.56082C8.45193 1.72471 7.24906 1.27385 6.00933 1.30203C4.7696 1.3302 3.58845 1.83524 2.7116 2.71209C1.83476 3.58894 1.32971 4.77009 1.30154 6.00982C1.27336 7.24955 1.72423 8.45242 2.56033 9.3682C3.39644 10.284 4.55342 10.8422 5.79059 10.9266C7.02777 11.0111 8.24988 10.6153 9.20269 9.8217L11.9403 12.5599C11.981 12.6005 12.0293 12.6328 12.0824 12.6548C12.1355 12.6768 12.1924 12.6881 12.2499 12.6881C12.3074 12.6881 12.3643 12.6768 12.4174 12.6548C12.4705 12.6328 12.5188 12.6005 12.5594 12.5599C12.6001 12.5193 12.6323 12.471 12.6543 12.4179C12.6763 12.3648 12.6876 12.3079 12.6876 12.2504C12.6876 12.1929 12.6763 12.136 12.6543 12.0829C12.6323 12.0297 12.6001 11.9815 12.5594 11.9408ZM2.18738 6.12537C2.18738 5.3466 2.41831 4.58533 2.85097 3.93781C3.28363 3.29029 3.89858 2.78561 4.61806 2.48759C5.33755 2.18957 6.12925 2.1116 6.89305 2.26353C7.65685 2.41546 8.35844 2.79047 8.90911 3.34114C9.45978 3.89181 9.83479 4.5934 9.98672 5.3572C10.1387 6.121 10.0607 6.9127 9.76266 7.63218C9.46464 8.35167 8.95996 8.96662 8.31244 9.39928C7.66492 9.83194 6.90364 10.0629 6.12488 10.0629C5.08095 10.0617 4.0801 9.6465 3.34193 8.90832C2.60375 8.17015 2.18854 7.1693 2.18738 6.12537Z" fill="#9397B6"/>
</svg>
