<svg width="20" height="21" viewBox="0 0 20 21" fill="none" xmlns="http://www.w3.org/2000/svg">
<g id="manager" clip-path="url(#clip0_1284_8402)">
<path id="Vector" d="M13.75 9.43375V9.375C13.7514 8.88222 13.6551 8.39405 13.4666 7.93875C13.2781 7.48345 13.0012 7.07006 12.6519 6.7225C12.4208 6.49437 12.1594 6.2992 11.875 6.1425V5.7825C11.8751 5.67982 11.8549 5.57813 11.8157 5.48324C11.7765 5.38835 11.719 5.30211 11.6464 5.22945C11.5739 5.15679 11.4877 5.09912 11.3929 5.05976C11.2981 5.02039 11.1964 5.00008 11.0938 5H8.90625C8.80357 5.00008 8.70192 5.02039 8.60709 5.05976C8.51226 5.09912 8.42611 5.15679 8.35356 5.22945C8.28102 5.30211 8.22349 5.38835 8.18428 5.48324C8.14506 5.57813 8.12492 5.67982 8.125 5.7825V6.14188C7.5544 6.46675 7.0802 6.93718 6.7508 7.50518C6.4214 8.07318 6.24859 8.7184 6.25 9.375V9.43375C6.06338 9.49889 5.9023 9.62167 5.79005 9.78437C5.6778 9.94707 5.62019 10.1412 5.62554 10.3388C5.6309 10.5364 5.69895 10.7272 5.81985 10.8836C5.94075 11.0399 6.10825 11.1538 6.29812 11.2088L6.67813 13.1094C6.74938 13.4719 6.89186 13.8166 7.09731 14.1237C7.30276 14.4307 7.56709 14.694 7.875 14.8981L9.1325 15.7362C9.38883 15.9081 9.69046 15.9998 9.99906 15.9998C10.3077 15.9998 10.6093 15.9081 10.8656 15.7362L12.125 14.8981C12.4331 14.6941 12.6977 14.4309 12.9034 14.1239C13.109 13.8168 13.2517 13.472 13.3231 13.1094L13.7031 11.2088C13.893 11.1537 14.0604 11.0397 14.1811 10.8832C14.3019 10.7268 14.3698 10.536 14.375 10.3384C14.3803 10.1408 14.3225 9.94666 14.2102 9.78405C14.0978 9.62144 13.9367 9.49876 13.75 9.43375ZM8.125 6.88375V7.8125C8.125 7.89538 8.15792 7.97487 8.21653 8.03347C8.27513 8.09208 8.35462 8.125 8.4375 8.125C8.52038 8.125 8.59987 8.09208 8.65847 8.03347C8.71708 7.97487 8.75 7.89538 8.75 7.8125V5.7825C8.75 5.74106 8.76646 5.70132 8.79576 5.67201C8.82507 5.64271 8.86481 5.62625 8.90625 5.62625H11.0938C11.1352 5.62625 11.1749 5.64271 11.2042 5.67201C11.2335 5.70132 11.25 5.74106 11.25 5.7825V7.8125C11.25 7.89538 11.2829 7.97487 11.3415 8.03347C11.4001 8.09208 11.4796 8.125 11.5625 8.125C11.6454 8.125 11.7249 8.09208 11.7835 8.03347C11.8421 7.97487 11.875 7.89538 11.875 7.8125V6.875C12.2668 7.16262 12.5845 7.53936 12.8018 7.97408C13.0192 8.40879 13.13 8.889 13.125 9.375H6.875C6.87377 8.89088 6.98624 8.41324 7.20335 7.98053C7.42046 7.54782 7.73615 7.17215 8.125 6.88375ZM12.7094 12.9869C12.6536 13.2688 12.5426 13.537 12.3826 13.7757C12.2227 14.0145 12.017 14.2193 11.7775 14.3781L10.52 15.2162C10.3662 15.3195 10.1852 15.3746 10 15.3746C9.8148 15.3746 9.63378 15.3195 9.48 15.2162L8.2225 14.3781C7.98298 14.2193 7.7773 14.0145 7.61735 13.7757C7.45741 13.537 7.34636 13.2688 7.29063 12.9869L6.94375 11.25H13.0562L12.7094 12.9869ZM13.4375 10.625H6.5625C6.47962 10.625 6.40013 10.5921 6.34153 10.5335C6.28292 10.4749 6.25 10.3954 6.25 10.3125C6.25 10.2296 6.28292 10.1501 6.34153 10.0915C6.40013 10.0329 6.47962 10 6.5625 10H13.4375C13.5204 10 13.5999 10.0329 13.6585 10.0915C13.7171 10.1501 13.75 10.2296 13.75 10.3125C13.75 10.3954 13.7171 10.4749 13.6585 10.5335C13.5999 10.5921 13.5204 10.625 13.4375 10.625ZM19.6875 8.11063H18.27C18.0929 7.49524 17.8472 6.90172 17.5375 6.34125L18.5375 5.34125C18.5961 5.28265 18.629 5.20318 18.629 5.12031C18.629 5.03745 18.5961 4.95798 18.5375 4.89937L15.6 1.96187C15.5414 1.90329 15.4619 1.87038 15.3791 1.87038C15.2962 1.87038 15.2167 1.90329 15.1581 1.96187L14.1581 2.96187C13.5973 2.65186 13.0033 2.40594 12.3875 2.22875V0.8125C12.3875 0.72962 12.3546 0.650134 12.296 0.591529C12.2374 0.532924 12.1579 0.5 12.075 0.5H7.92438C7.84149 0.5 7.76201 0.532924 7.7034 0.591529C7.6448 0.650134 7.61188 0.72962 7.61188 0.8125V2.23C6.99606 2.40699 6.40212 2.6527 5.84125 2.9625L4.84125 1.9625C4.78265 1.90392 4.70318 1.871 4.62031 1.871C4.53745 1.871 4.45798 1.90392 4.39937 1.9625L1.46187 4.9C1.40329 4.9586 1.37038 5.03807 1.37038 5.12094C1.37038 5.2038 1.40329 5.28327 1.46187 5.34188L2.46187 6.34188C2.15186 6.90272 1.90594 7.49666 1.72875 8.1125H0.3125C0.22962 8.1125 0.150134 8.14542 0.0915291 8.20403C0.032924 8.26263 0 8.34212 0 8.425L0 12.5769C0 12.6598 0.032924 12.7392 0.0915291 12.7978C0.150134 12.8565 0.22962 12.8894 0.3125 12.8894H1.73C1.90708 13.5048 2.15279 14.0983 2.4625 14.6587L1.4625 15.6587C1.40392 15.7174 1.371 15.7968 1.371 15.8797C1.371 15.9626 1.40392 16.042 1.4625 16.1006L4.4 19.0381C4.4586 19.0967 4.53807 19.1296 4.62094 19.1296C4.7038 19.1296 4.78327 19.0967 4.84188 19.0381L5.84188 18.0381C6.40272 18.3481 6.99666 18.5941 7.6125 18.7712V20.1875C7.6125 20.2704 7.64542 20.3499 7.70403 20.4085C7.76263 20.4671 7.84212 20.5 7.925 20.5H12.0769C12.1598 20.5 12.2392 20.4671 12.2978 20.4085C12.3565 20.3499 12.3894 20.2704 12.3894 20.1875V18.77C13.0052 18.5928 13.5992 18.3469 14.16 18.0369L15.16 19.0369C15.2186 19.0955 15.2981 19.1284 15.3809 19.1284C15.4638 19.1284 15.5433 19.0955 15.6019 19.0369L18.5394 16.0994C18.598 16.0408 18.6309 15.9613 18.6309 15.8784C18.6309 15.7956 18.598 15.7161 18.5394 15.6575L17.5394 14.6575C17.8494 14.0967 18.0953 13.5027 18.2725 12.8869H19.6875C19.7704 12.8869 19.8499 12.854 19.9085 12.7953C19.9671 12.7367 20 12.6573 20 12.5744V8.42438C20 8.34149 19.9671 8.26201 19.9085 8.2034C19.8499 8.1448 19.7704 8.11188 19.6875 8.11188V8.11063ZM19.375 12.2631H18.0319C17.9626 12.2631 17.8953 12.2862 17.8406 12.3286C17.7858 12.371 17.7467 12.4304 17.7294 12.4975C17.5428 13.2193 17.2552 13.9112 16.875 14.5525C16.8399 14.6121 16.8255 14.6817 16.8343 14.7504C16.843 14.8191 16.8742 14.8829 16.9231 14.9319L17.8731 15.8819L15.3794 18.3756L14.4294 17.4256C14.3809 17.3769 14.3177 17.3455 14.2495 17.3364C14.1814 17.3272 14.1121 17.3408 14.0525 17.375C13.4119 17.7547 12.7209 18.0421 12 18.2288C11.9329 18.2461 11.8735 18.2852 11.8311 18.3399C11.7887 18.3947 11.7656 18.462 11.7656 18.5312V19.875H8.23687V18.5319C8.23686 18.4626 8.21383 18.3953 8.1714 18.3406C8.12898 18.2858 8.06957 18.2467 8.0025 18.2294C7.28068 18.0428 6.58884 17.7552 5.9475 17.375C5.88786 17.3399 5.81825 17.3255 5.74959 17.3343C5.68093 17.343 5.6171 17.3742 5.56813 17.4231L4.61812 18.375L2.125 15.8819L3.075 14.9319C3.1242 14.8831 3.15581 14.8194 3.16486 14.7507C3.17391 14.6821 3.15989 14.6123 3.125 14.5525C2.74528 13.9119 2.45786 13.2209 2.27125 12.5C2.25393 12.4329 2.21482 12.3735 2.16007 12.3311C2.10531 12.2887 2.03802 12.2656 1.96875 12.2656H0.625V8.73687H1.96812C2.03739 8.73686 2.10469 8.71383 2.15945 8.6714C2.2142 8.62898 2.25331 8.56957 2.27062 8.5025C2.45721 7.78068 2.74485 7.08884 3.125 6.4475C3.16012 6.38786 3.17445 6.31825 3.16574 6.24959C3.15703 6.18093 3.12578 6.1171 3.07687 6.06813L2.125 5.11812L4.61812 2.625L5.56813 3.575C5.61688 3.6242 5.6806 3.65581 5.74926 3.66486C5.81793 3.67391 5.88766 3.65989 5.9475 3.625C6.5881 3.24528 7.27908 2.95786 8 2.77125C8.06707 2.75393 8.12648 2.71482 8.1689 2.66007C8.21133 2.60531 8.23436 2.53802 8.23438 2.46875V1.125H11.7613V2.46812C11.7613 2.53739 11.7843 2.60469 11.8267 2.65945C11.8691 2.7142 11.9286 2.75331 11.9956 2.77062C12.7181 2.95704 13.4106 3.24468 14.0525 3.625C14.1121 3.66012 14.1817 3.67445 14.2504 3.66574C14.3191 3.65703 14.3829 3.62578 14.4319 3.57687L15.3819 2.62688L17.8756 5.12063L16.9256 6.07063C16.8769 6.11913 16.8455 6.18234 16.8364 6.25048C16.8272 6.31861 16.8408 6.38786 16.875 6.4475C17.2547 7.0881 17.5421 7.77908 17.7288 8.5C17.7461 8.56707 17.7852 8.62648 17.8399 8.6689C17.8947 8.71133 17.962 8.73436 18.0312 8.73438H19.375V12.2631Z" fill="#9397B6"/>
</g>
<defs>
<clipPath id="clip0_1284_8402">
<rect width="20" height="20" fill="white" transform="translate(0 0.5)"/>
</clipPath>
</defs>
</svg>
