<svg width="20" height="21" viewBox="0 0 20 21" fill="none" xmlns="http://www.w3.org/2000/svg">
<g id="manage-profile">
<path id="Vector" d="M8.75 1.75C6.68625 1.75 5 3.43625 5 5.5C5 7.56375 6.68625 9.25 8.75 9.25C10.8137 9.25 12.5 7.56375 12.5 5.5C12.5 3.43625 10.8137 1.75 8.75 1.75ZM8.75 3C10.1381 3 11.25 4.1125 11.25 5.5C11.25 6.88812 10.1381 8 8.75 8C7.36187 8 6.25 6.88812 6.25 5.5C6.25 4.1125 7.36187 3 8.75 3ZM6.875 10.5C3.76937 10.5 1.25 13.0194 1.25 16.125V17.375C1.25 17.5408 1.31585 17.6997 1.43306 17.8169C1.55027 17.9342 1.70924 18 1.875 18H8.655C8.82076 18 8.97973 17.9342 9.09694 17.8169C9.21415 17.6997 9.28 17.5408 9.28 17.375C9.28 17.2092 9.21415 17.0503 9.09694 16.9331C8.97973 16.8158 8.82076 16.75 8.655 16.75H2.5V16.125C2.5 13.6906 4.44062 11.75 6.875 11.75H9.385C9.55076 11.75 9.70973 11.6842 9.82694 11.5669C9.94415 11.4497 10.01 11.2908 10.01 11.125C10.01 10.9592 9.94415 10.8003 9.82694 10.6831C9.70973 10.5658 9.55076 10.5 9.385 10.5H6.875ZM14.3669 10.5C14.2846 10.5009 14.2033 10.518 14.1277 10.5504C14.052 10.5827 13.9835 10.6297 13.926 10.6885C13.8686 10.7474 13.8233 10.817 13.7927 10.8934C13.7622 10.9698 13.7471 11.0515 13.7481 11.1337V11.8125C13.3565 11.8941 12.9843 12.0505 12.6519 12.2731L12.1719 11.7931C12.0244 11.6419 11.8575 11.5844 11.6994 11.5931C11.2262 11.6181 10.8337 12.235 11.2881 12.6769L11.77 13.1594C11.5485 13.4918 11.3932 13.8638 11.3125 14.255H10.6337C9.78875 14.2431 9.78875 15.5175 10.6337 15.505H11.315C11.3962 15.8994 11.5556 16.2662 11.7712 16.5919L11.2856 17.0775C10.6794 17.6669 11.5806 18.5675 12.1694 17.9612L12.6544 17.4769C12.9862 17.6985 13.3575 17.8543 13.7481 17.9356V18.6156C13.7356 19.4606 15.01 19.4606 14.9981 18.6156V17.9375C15.3882 17.8564 15.7591 17.7011 16.0906 17.48L16.5781 17.9675C16.6354 18.0286 16.7044 18.0775 16.781 18.1115C16.8575 18.1454 16.9401 18.1635 17.0239 18.1649C17.1076 18.1663 17.1908 18.1508 17.2684 18.1194C17.346 18.088 17.4166 18.0413 17.4758 17.9821C17.5351 17.9229 17.5818 17.8524 17.6133 17.7748C17.6447 17.6972 17.6603 17.614 17.659 17.5303C17.6577 17.4465 17.6395 17.3639 17.6057 17.2873C17.5718 17.2107 17.5229 17.1417 17.4619 17.0844L16.9762 16.5981C17.1977 16.2669 17.3534 15.8962 17.435 15.5062H18.1162C18.282 15.5062 18.441 15.4404 18.5582 15.3232C18.6754 15.206 18.7412 15.047 18.7412 14.8812C18.7412 14.7155 18.6754 14.5565 18.5582 14.4393C18.441 14.3221 18.282 14.2562 18.1162 14.2562H17.4375C17.3569 13.8625 17.2006 13.4881 16.9775 13.1537L17.4594 12.6719C17.5194 12.6138 17.5671 12.5443 17.5997 12.4674C17.6323 12.3905 17.6492 12.3079 17.6492 12.2244C17.6492 12.1409 17.6323 12.0582 17.5997 11.9813C17.5671 11.9045 17.5194 11.8349 17.4594 11.7769C17.3408 11.6613 17.1813 11.5972 17.0156 11.5987C16.8505 11.6016 16.6932 11.6697 16.5781 11.7881L16.095 12.2712C15.7629 12.0494 15.3911 11.8937 15 11.8125V11.1337C15.0013 11.0504 14.986 10.9676 14.9547 10.8902C14.9235 10.8129 14.8771 10.7426 14.8183 10.6835C14.7594 10.6244 14.6893 10.5777 14.6121 10.5462C14.5349 10.5147 14.4521 10.499 14.3687 10.5H14.3669ZM14.375 13C15.4175 13 16.25 13.8319 16.25 14.875C16.25 15.9175 15.4175 16.75 14.375 16.75C13.3319 16.75 12.5 15.9175 12.5 14.875C12.5 13.8319 13.3319 13 14.375 13Z" fill="#9397B6"/>
</g>
</svg>
