<svg width="25" height="25" viewBox="0 0 25 25" fill="none" xmlns="http://www.w3.org/2000/svg">
<g id="manage-profile">
<path id="Vector" d="M10.9375 1.5625C8.35781 1.5625 6.25 3.67031 6.25 6.25C6.25 8.82969 8.35781 10.9375 10.9375 10.9375C13.5172 10.9375 15.625 8.82969 15.625 6.25C15.625 3.67031 13.5172 1.5625 10.9375 1.5625ZM10.9375 3.125C12.6727 3.125 14.0625 4.51562 14.0625 6.25C14.0625 7.98516 12.6727 9.375 10.9375 9.375C9.20234 9.375 7.8125 7.98516 7.8125 6.25C7.8125 4.51562 9.20234 3.125 10.9375 3.125ZM8.59375 12.5C4.71172 12.5 1.5625 15.6492 1.5625 19.5312V21.0938C1.5625 21.3009 1.64481 21.4997 1.79132 21.6462C1.93784 21.7927 2.13655 21.875 2.34375 21.875H10.8187C11.0259 21.875 11.2247 21.7927 11.3712 21.6462C11.5177 21.4997 11.6 21.3009 11.6 21.0938C11.6 20.8865 11.5177 20.6878 11.3712 20.5413C11.2247 20.3948 11.0259 20.3125 10.8187 20.3125H3.125V19.5312C3.125 16.4883 5.55078 14.0625 8.59375 14.0625H11.7312C11.9384 14.0625 12.1372 13.9802 12.2837 13.8337C12.4302 13.6872 12.5125 13.4885 12.5125 13.2812C12.5125 13.074 12.4302 12.8753 12.2837 12.7288C12.1372 12.5823 11.9384 12.5 11.7312 12.5H8.59375ZM17.9586 12.5C17.8558 12.5011 17.7542 12.5225 17.6596 12.563C17.5651 12.6034 17.4794 12.6621 17.4076 12.7357C17.3357 12.8092 17.2791 12.8963 17.2409 12.9918C17.2028 13.0873 17.1838 13.1894 17.1852 13.2922V14.1406C16.6956 14.2427 16.2303 14.4381 15.8148 14.7164L15.2148 14.1164C15.0305 13.9273 14.8219 13.8555 14.6242 13.8664C14.0328 13.8977 13.5422 14.6687 14.1102 15.2211L14.7125 15.8242C14.4357 16.2398 14.2415 16.7047 14.1406 17.1937H13.2922C12.2359 17.1789 12.2359 18.7719 13.2922 18.7563H14.1438C14.2453 19.2492 14.4445 19.7078 14.7141 20.1148L14.107 20.7219C13.3492 21.4586 14.4758 22.5844 15.2117 21.8266L15.818 21.2211C16.2327 21.4982 16.6969 21.6928 17.1852 21.7945V22.6445C17.1695 23.7008 18.7625 23.7008 18.7477 22.6445V21.7969C19.2353 21.6955 19.6989 21.5014 20.1133 21.225L20.7227 21.8344C20.7943 21.9107 20.8805 21.9719 20.9762 22.0143C21.0719 22.0567 21.1752 22.0794 21.2799 22.0811C21.3845 22.0828 21.4885 22.0635 21.5855 22.0242C21.6826 21.985 21.7707 21.9266 21.8448 21.8526C21.9188 21.7786 21.9772 21.6905 22.0166 21.5935C22.0559 21.4964 22.0753 21.3925 22.0737 21.2878C22.0721 21.1832 22.0494 21.0799 22.0071 20.9841C21.9648 20.8884 21.9037 20.8021 21.8273 20.7305L21.2203 20.1227C21.4971 19.7086 21.6918 19.2453 21.7938 18.7578H22.6453C22.8525 18.7578 23.0512 18.6755 23.1977 18.529C23.3443 18.3825 23.4266 18.1838 23.4266 17.9766C23.4266 17.7694 23.3443 17.5706 23.1977 17.4241C23.0512 17.2776 22.8525 17.1953 22.6453 17.1953H21.7969C21.6961 16.7031 21.5008 16.2351 21.2219 15.8172L21.8242 15.2148C21.8993 15.1423 21.9589 15.0554 21.9997 14.9593C22.0404 14.8632 22.0614 14.7599 22.0614 14.6555C22.0614 14.5511 22.0404 14.4478 21.9997 14.3517C21.9589 14.2556 21.8993 14.1687 21.8242 14.0961C21.676 13.9516 21.4766 13.8715 21.2695 13.8734C21.0631 13.877 20.8665 13.9621 20.7227 14.1102L20.1187 14.7141C19.7036 14.4368 19.2389 14.2421 18.75 14.1406V13.2922C18.7517 13.188 18.7324 13.0844 18.6934 12.9878C18.6544 12.8911 18.5964 12.8033 18.5228 12.7294C18.4493 12.6555 18.3616 12.5972 18.2651 12.5578C18.1686 12.5184 18.0652 12.4987 17.9609 12.5H17.9586ZM17.9688 15.625C19.2719 15.625 20.3125 16.6648 20.3125 17.9688C20.3125 19.2719 19.2719 20.3125 17.9688 20.3125C16.6648 20.3125 15.625 19.2719 15.625 17.9688C15.625 16.6648 16.6648 15.625 17.9688 15.625Z" fill="black"/>
</g>
</svg>
