<svg width="12" height="12" viewBox="0 0 12 12" fill="none" xmlns="http://www.w3.org/2000/svg">
<g id="Frame">
<path id="Vector" d="M6 1.125C5.03582 1.125 4.09329 1.41091 3.2916 1.94659C2.48991 2.48226 1.86507 3.24363 1.49609 4.13442C1.12711 5.02521 1.03057 6.00541 1.21867 6.95107C1.40678 7.89672 1.87108 8.76536 2.55286 9.44715C3.23464 10.1289 4.10328 10.5932 5.04894 10.7813C5.99459 10.9694 6.97479 10.8729 7.86558 10.5039C8.75637 10.1349 9.51775 9.51009 10.0534 8.7084C10.5891 7.90671 10.875 6.96418 10.875 6C10.8736 4.70749 10.3596 3.46831 9.44564 2.55436C8.5317 1.64042 7.29251 1.12636 6 1.125ZM6 10.125C5.18415 10.125 4.38663 9.88307 3.70827 9.42981C3.02992 8.97655 2.50121 8.33231 2.189 7.57857C1.87679 6.82482 1.7951 5.99542 1.95426 5.19525C2.11343 4.39508 2.5063 3.66008 3.08319 3.08318C3.66008 2.50629 4.39508 2.11342 5.19525 1.95426C5.99543 1.7951 6.82483 1.87679 7.57857 2.189C8.33232 2.50121 8.97655 3.02992 9.42981 3.70827C9.88307 4.38663 10.125 5.18415 10.125 6C10.1238 7.09364 9.68877 8.14213 8.91545 8.91545C8.14213 9.68876 7.09364 10.1238 6 10.125ZM5.625 6.375V3.75C5.625 3.65054 5.66451 3.55516 5.73484 3.48484C5.80516 3.41451 5.90055 3.375 6 3.375C6.09946 3.375 6.19484 3.41451 6.26517 3.48484C6.33549 3.55516 6.375 3.65054 6.375 3.75V6.375C6.375 6.47446 6.33549 6.56984 6.26517 6.64017C6.19484 6.71049 6.09946 6.75 6 6.75C5.90055 6.75 5.80516 6.71049 5.73484 6.64017C5.66451 6.56984 5.625 6.47446 5.625 6.375ZM6.5625 8.0625C6.5625 8.17375 6.52951 8.28251 6.4677 8.37501C6.4059 8.46751 6.31804 8.53961 6.21526 8.58218C6.11248 8.62476 5.99938 8.6359 5.89026 8.61419C5.78115 8.59249 5.68092 8.53891 5.60225 8.46025C5.52359 8.38158 5.47001 8.28135 5.44831 8.17224C5.42661 8.06312 5.43775 7.95002 5.48032 7.84724C5.52289 7.74446 5.59499 7.65661 5.68749 7.5948C5.78 7.53299 5.88875 7.5 6 7.5C6.14919 7.5 6.29226 7.55926 6.39775 7.66475C6.50324 7.77024 6.5625 7.91332 6.5625 8.0625Z" fill="#F1416C"/>
</g>
</svg>
