<svg width="18" height="18" viewBox="0 0 18 18" fill="none" xmlns="http://www.w3.org/2000/svg">
<g id="notification">
<path id="Vector" d="M7.1662 15.6388C7.54066 16.1088 8.09055 16.413 8.69417 16.484C9.29779 16.5551 9.90538 16.3871 10.3824 16.0173C10.5292 15.9079 10.6612 15.7808 10.7754 15.6388M2.62562 10.3403V10.1761C2.64971 9.69018 2.80545 9.21937 3.07677 8.8122C3.52838 8.3231 3.83753 7.72373 3.97179 7.07698C3.97179 6.57713 3.97179 6.07013 4.01544 5.57027C4.24102 3.16381 6.62046 1.5 8.97079 1.5H9.02901C11.3793 1.5 13.7588 3.16381 13.9916 5.57027C14.0353 6.07013 13.9916 6.57713 14.028 7.07698C14.1641 7.72523 14.4729 8.32646 14.923 8.81934C15.1964 9.2229 15.3524 9.692 15.3742 10.1761V10.3332C15.3904 10.986 15.1656 11.6226 14.7411 12.1255C14.1802 12.7136 13.4191 13.0795 12.6018 13.1538C10.2052 13.4109 7.78727 13.4109 5.39072 13.1538C4.57436 13.0762 3.81432 12.7109 3.2514 12.1255C2.8335 11.6222 2.61168 10.9894 2.62562 10.3403Z" stroke="#585858" stroke-linecap="round" stroke-linejoin="round"/>
</g>
</svg>
