<svg width="20" height="21" viewBox="0 0 20 21" fill="none" xmlns="http://www.w3.org/2000/svg">
<g id="PencilSimpleLine">
<path id="Vector" d="M17.7594 6.23203L14.268 2.7414C14.1519 2.6253 14.0141 2.5332 13.8624 2.47036C13.7107 2.40752 13.5482 2.37518 13.384 2.37518C13.2198 2.37518 13.0572 2.40752 12.9056 2.47036C12.7539 2.5332 12.6161 2.6253 12.5 2.7414L2.86641 12.375C2.74983 12.4906 2.65741 12.6283 2.59451 12.78C2.5316 12.9317 2.49948 13.0944 2.50001 13.2586V16.75C2.50001 17.0815 2.6317 17.3995 2.86612 17.6339C3.10054 17.8683 3.41849 18 3.75001 18H16.875C17.0408 18 17.1997 17.9341 17.3169 17.8169C17.4342 17.6997 17.5 17.5408 17.5 17.375C17.5 17.2092 17.4342 17.0503 17.3169 16.9331C17.1997 16.8158 17.0408 16.75 16.875 16.75H9.00938L17.7594 7.99999C17.8755 7.88392 17.9676 7.74611 18.0304 7.59443C18.0933 7.44275 18.1256 7.28019 18.1256 7.11601C18.1256 6.95183 18.0933 6.78927 18.0304 6.63759C17.9676 6.48591 17.8755 6.3481 17.7594 6.23203ZM7.24141 16.75H3.75001V13.2586L10.625 6.38359L14.1164 9.87499L7.24141 16.75ZM15 8.9914L11.5094 5.49999L13.3844 3.62499L16.875 7.1164L15 8.9914Z" fill="#4B5675"/>
</g>
</svg>
