<svg width="20" height="21" viewBox="0 0 20 21" fill="none" xmlns="http://www.w3.org/2000/svg">
<g id="management">
<g id="Layer 2">
<path id="Vector" d="M5.76879 14.9999C6.1112 14.9999 6.44591 14.8983 6.73062 14.7081C7.01532 14.5179 7.23722 14.2475 7.36825 13.9311C7.49929 13.6148 7.53357 13.2667 7.46677 12.9309C7.39997 12.595 7.23508 12.2865 6.99296 12.0444C6.75085 11.8023 6.44237 11.6374 6.10654 11.5706C5.77071 11.5038 5.42261 11.5381 5.10627 11.6691C4.78992 11.8002 4.51954 12.0221 4.3293 12.3068C4.13907 12.5915 4.03754 12.9262 4.03754 13.2686C4.03836 13.7275 4.22103 14.1674 4.54552 14.4919C4.87001 14.8164 5.30988 14.999 5.76879 14.9999ZM5.76879 12.1592C5.98758 12.1592 6.20146 12.2241 6.38339 12.3457C6.56531 12.4672 6.7071 12.64 6.79083 12.8421C6.87456 13.0443 6.89647 13.2667 6.85378 13.4813C6.8111 13.6959 6.70574 13.893 6.55102 14.0477C6.39631 14.2024 6.1992 14.3078 5.98461 14.3505C5.77001 14.3932 5.54758 14.3713 5.34544 14.2875C5.1433 14.2038 4.97053 14.062 4.84897 13.8801C4.72742 13.6982 4.66254 13.4843 4.66254 13.2655C4.66336 12.9723 4.78018 12.6914 4.98746 12.4842C5.19474 12.2769 5.47564 12.1601 5.76879 12.1592Z" fill="white"/>
<path id="Vector_2" d="M1.21251 14.1969L2.39376 14.3438C2.4541 14.5342 2.53041 14.7192 2.62188 14.8969L1.87501 15.8344C1.82825 15.8944 1.80499 15.9694 1.80959 16.0453C1.81419 16.1213 1.84634 16.1929 1.90001 16.2469L2.77188 17.1188C2.82581 17.1724 2.89747 17.2046 2.97341 17.2092C3.04935 17.2138 3.12437 17.1905 3.18438 17.1437L4.12188 16.4125C4.29944 16.5041 4.48449 16.5804 4.67501 16.6406L4.82188 17.8219C4.83109 17.8981 4.86804 17.9683 4.92568 18.019C4.98332 18.0697 5.05761 18.0974 5.13438 18.0969H6.38438C6.46116 18.0974 6.53545 18.0697 6.59309 18.019C6.65072 17.9683 6.68767 17.8981 6.69688 17.8219L6.84376 16.6406C7.03423 16.5803 7.21926 16.504 7.39688 16.4125L8.33438 17.1437C8.39426 17.1918 8.46971 17.2161 8.54637 17.2121C8.62302 17.208 8.69551 17.1759 8.75001 17.1219L9.62188 16.25C9.67555 16.1961 9.7077 16.1244 9.7123 16.0485C9.7169 15.9725 9.69364 15.8975 9.64688 15.8375L8.91563 14.9C9.00719 14.7224 9.0835 14.5374 9.14376 14.3469L10.3125 14.1969C10.3887 14.1877 10.4589 14.1507 10.5096 14.0931C10.5603 14.0354 10.5881 13.9611 10.5875 13.8844V12.6344C10.5881 12.5576 10.5603 12.4833 10.5096 12.4257C10.4589 12.368 10.3887 12.3311 10.3125 12.3219L9.13126 12.175C9.071 11.9845 8.99469 11.7995 8.90313 11.6219L9.63438 10.6844C9.68114 10.6244 9.70441 10.5493 9.6998 10.4734C9.6952 10.3975 9.66305 10.3258 9.60938 10.2719L8.75001 9.41563C8.69608 9.36196 8.62442 9.32981 8.54848 9.32521C8.47254 9.3206 8.39752 9.34386 8.33751 9.39062L7.40001 10.1219C7.22201 10.0238 7.0359 9.9412 6.84376 9.875L6.69688 8.69375C6.68767 8.61753 6.65072 8.54736 6.59309 8.49664C6.53545 8.44592 6.46116 8.4182 6.38438 8.41875H5.13438C5.05761 8.4182 4.98332 8.44592 4.92568 8.49664C4.86804 8.54736 4.83109 8.61753 4.82188 8.69375L4.68751 9.875C4.49699 9.93519 4.31194 10.0115 4.13438 10.1031L3.19688 9.37187C3.13687 9.32511 3.06185 9.30185 2.98591 9.30646C2.90997 9.31106 2.83831 9.34321 2.78438 9.39687L1.91563 10.2875C1.85963 10.3394 1.82457 10.41 1.81709 10.486C1.8096 10.562 1.83021 10.6382 1.87501 10.7L2.60626 11.6375C2.51479 11.8151 2.43847 12.0002 2.37813 12.1906L1.19688 12.3375C1.12066 12.3467 1.0505 12.3837 0.999777 12.4413C0.949056 12.4989 0.921329 12.5732 0.921883 12.65V13.9C0.925531 13.9765 0.957144 14.049 1.01072 14.1037C1.0643 14.1585 1.1361 14.1916 1.21251 14.1969ZM1.56251 12.925L2.67501 12.7844C2.7378 12.7768 2.79681 12.7503 2.84424 12.7085C2.89167 12.6666 2.92528 12.6114 2.94063 12.55C3.00635 12.2758 3.11162 12.0126 3.25313 11.7688C3.2856 11.7146 3.30089 11.6518 3.29698 11.5888C3.29308 11.5258 3.27016 11.4654 3.23126 11.4156L2.54376 10.5312L3.02813 10.0469L3.91251 10.7344C3.96226 10.7733 4.02264 10.7962 4.08568 10.8001C4.14872 10.804 4.21146 10.7887 4.26563 10.7562C4.50953 10.6148 4.7727 10.5095 5.04688 10.4437C5.10824 10.4284 5.1635 10.3948 5.20534 10.3474C5.24719 10.2999 5.27366 10.2409 5.28126 10.1781L5.42188 9.06562H6.10626L6.25001 10.1875C6.2576 10.2503 6.28407 10.3093 6.32592 10.3567C6.36777 10.4042 6.42302 10.4378 6.48438 10.4531C6.75857 10.5189 7.02174 10.6242 7.26563 10.7656C7.31981 10.7981 7.38255 10.8134 7.44559 10.8095C7.50863 10.8056 7.569 10.7827 7.61876 10.7437L8.50313 10.0562L8.98751 10.5406L8.30001 11.425C8.2611 11.4748 8.23819 11.5351 8.23428 11.5982C8.23038 11.6612 8.24567 11.7239 8.27813 11.7781C8.41973 12.022 8.525 12.2852 8.59063 12.5594C8.60599 12.6207 8.6396 12.676 8.68703 12.7178C8.73446 12.7597 8.79347 12.7862 8.85626 12.7937L9.96876 12.9344V13.625L8.85626 13.7656C8.79347 13.7732 8.73446 13.7997 8.68703 13.8415C8.6396 13.8834 8.60599 13.9386 8.59063 14C8.525 14.2742 8.41973 14.5374 8.27813 14.7812C8.24567 14.8354 8.23038 14.8982 8.23428 14.9612C8.23819 15.0242 8.2611 15.0846 8.30001 15.1344L8.98751 16.0187L8.50313 16.5031L7.61876 15.8156C7.569 15.7767 7.50863 15.7538 7.44559 15.7499C7.38255 15.746 7.31981 15.7613 7.26563 15.7937C7.02174 15.9352 6.75857 16.0405 6.48438 16.1062C6.42302 16.1216 6.36777 16.1552 6.32592 16.2026C6.28407 16.2501 6.2576 16.3091 6.25001 16.3719L6.10938 17.4844H5.42813L5.28751 16.3719C5.27991 16.3091 5.25344 16.2501 5.21159 16.2026C5.16975 16.1552 5.11449 16.1216 5.05313 16.1062C4.77895 16.0405 4.51578 15.9352 4.27188 15.7937C4.21771 15.7613 4.15497 15.746 4.09193 15.7499C4.02889 15.7538 3.96851 15.7767 3.91876 15.8156L3.03438 16.5031L2.55313 16L3.24063 15.1156C3.27954 15.0659 3.30245 15.0055 3.30636 14.9425C3.31026 14.8794 3.29497 14.8167 3.26251 14.7625C3.12099 14.5186 3.01572 14.2554 2.95001 13.9812C2.93465 13.9199 2.90104 13.8646 2.85361 13.8228C2.80619 13.7809 2.74718 13.7545 2.68438 13.7469L1.56251 13.625V12.925ZM14.2313 6C13.8888 6 13.5541 6.10154 13.2694 6.29177C12.9847 6.482 12.7628 6.75238 12.6318 7.06873C12.5008 7.38507 12.4665 7.73317 12.5333 8.069C12.6001 8.40483 12.765 8.71331 13.0071 8.95543C13.2492 9.19755 13.5577 9.36243 13.8935 9.42923C14.2293 9.49604 14.5774 9.46175 14.8938 9.33072C15.2101 9.19968 15.4805 8.97778 15.6707 8.69308C15.861 8.40838 15.9625 8.07366 15.9625 7.73125C15.9617 7.27235 15.779 6.83248 15.4545 6.50798C15.13 6.18349 14.6902 6.00083 14.2313 6ZM14.2313 8.84063C14.0125 8.84063 13.7986 8.77574 13.6167 8.65419C13.4347 8.53263 13.2929 8.35986 13.2092 8.15772C13.1255 7.95558 13.1036 7.73315 13.1463 7.51856C13.1889 7.30396 13.2943 7.10685 13.449 6.95214C13.6037 6.79743 13.8008 6.69207 14.0154 6.64938C14.23 6.6067 14.4525 6.6286 14.6546 6.71233C14.8567 6.79606 15.0295 6.93785 15.1511 7.11978C15.2726 7.3017 15.3375 7.51558 15.3375 7.73437C15.3367 8.02752 15.2199 8.30842 15.0126 8.5157C14.8053 8.72298 14.5244 8.8398 14.2313 8.84063Z" fill="white"/>
<path id="Vector_3" d="M18.7875 6.80304L17.6062 6.65616C17.5459 6.4657 17.4696 6.28068 17.3781 6.10304L18.1094 5.16554C18.1561 5.10552 18.1794 5.03051 18.1748 4.95456C18.1702 4.87862 18.138 4.80696 18.0844 4.75304L17.2125 3.88116C17.1586 3.82749 17.0869 3.79534 17.011 3.79074C16.935 3.78614 16.86 3.8094 16.8 3.85616L15.8625 4.58741C15.6861 4.49395 15.5021 4.41554 15.3125 4.35304L15.1562 3.17491C15.147 3.09869 15.1101 3.02853 15.0524 2.9778C14.9948 2.92708 14.9205 2.89936 14.8437 2.89991H13.5937C13.517 2.89936 13.4427 2.92708 13.385 2.9778C13.3274 3.02853 13.2904 3.09869 13.2812 3.17491L13.1344 4.35616C12.9439 4.41649 12.7589 4.4928 12.5812 4.58429L11.6437 3.85304C11.5837 3.80627 11.5087 3.78301 11.4328 3.78762C11.3568 3.79222 11.2852 3.82437 11.2312 3.87804L10.3594 4.74991C10.3057 4.80384 10.2735 4.8755 10.2689 4.95144C10.2643 5.02738 10.2876 5.10239 10.3344 5.16241L11.0656 6.09991C10.9739 6.27742 10.8976 6.46248 10.8375 6.65304L9.68748 6.80304C9.61126 6.81225 9.5411 6.8492 9.49038 6.90683C9.43966 6.96447 9.41193 7.03876 9.41248 7.11554V8.36554C9.41193 8.44231 9.43966 8.5166 9.49038 8.57424C9.5411 8.63188 9.61126 8.66882 9.68748 8.67804L10.8687 8.82491C10.9288 9.01547 11.0051 9.20052 11.0969 9.37804L10.3656 10.3155C10.3188 10.3756 10.2956 10.4506 10.3002 10.5265C10.3048 10.6025 10.3369 10.6741 10.3906 10.728L11.25 11.5843C11.3039 11.638 11.3756 11.6701 11.4515 11.6747C11.5275 11.6793 11.6025 11.656 11.6625 11.6093L12.6 10.878C12.778 10.9761 12.9641 11.0587 13.1562 11.1249L13.3031 12.3062C13.3123 12.3824 13.3493 12.4525 13.4069 12.5033C13.4645 12.554 13.5388 12.5817 13.6156 12.5812H14.8656C14.9424 12.5817 15.0167 12.554 15.0743 12.5033C15.1319 12.4525 15.1689 12.3824 15.1781 12.3062L15.3125 11.1249C15.503 11.0646 15.688 10.9883 15.8656 10.8968L16.8031 11.628C16.8631 11.6748 16.9381 11.6981 17.0141 11.6935C17.09 11.6889 17.1617 11.6567 17.2156 11.603L18.0875 10.7312C18.1482 10.678 18.186 10.6035 18.193 10.5231C18.2 10.4427 18.1756 10.3627 18.125 10.2999L17.3937 9.36241C17.4852 9.18478 17.5615 8.99975 17.6219 8.80929L18.8031 8.66241C18.8793 8.6532 18.9495 8.61625 19.0002 8.55861C19.0509 8.50098 19.0787 8.42669 19.0781 8.34991V7.09991C19.0745 7.02341 19.0428 6.95091 18.9893 6.89619C18.9357 6.84146 18.8639 6.80831 18.7875 6.80304ZM18.4375 8.07491L17.325 8.21241C17.2622 8.22001 17.2032 8.24648 17.1558 8.28832C17.1083 8.33017 17.0747 8.38543 17.0594 8.44679C16.9936 8.72098 16.8884 8.98416 16.7469 9.22804C16.7144 9.28221 16.6991 9.34495 16.703 9.40799C16.7069 9.47103 16.7298 9.53141 16.7687 9.58116L17.4562 10.4655L16.9719 10.9499L16.0875 10.2624C16.0377 10.2235 15.9774 10.2006 15.9143 10.1967C15.8513 10.1928 15.7885 10.2081 15.7344 10.2405C15.4905 10.382 15.2273 10.4873 14.9531 10.553C14.8917 10.5684 14.8365 10.602 14.7946 10.6494C14.7528 10.6969 14.7263 10.7559 14.7187 10.8187L14.5781 11.9312H13.8875L13.75 10.8124C13.7424 10.7496 13.7159 10.6906 13.6741 10.6432C13.6322 10.5958 13.577 10.5621 13.5156 10.5468C13.2414 10.481 12.9783 10.3758 12.7344 10.2343C12.6802 10.2018 12.6174 10.1865 12.5544 10.1904C12.4914 10.1943 12.431 10.2173 12.3812 10.2562L11.4969 10.9437L11.0125 10.4593L11.7 9.57491C11.7389 9.52516 11.7618 9.46478 11.7657 9.40174C11.7696 9.3387 11.7543 9.27596 11.7219 9.22179C11.5801 8.978 11.4749 8.7148 11.4094 8.44054C11.394 8.37918 11.3604 8.32392 11.313 8.28207C11.2655 8.24023 11.2065 8.21376 11.1437 8.20616L10.0312 8.06866V7.37491L11.1437 7.23741C11.2065 7.22982 11.2655 7.20334 11.313 7.1615C11.3604 7.11965 11.394 7.06439 11.4094 7.00304C11.4748 6.72874 11.5801 6.46553 11.7219 6.22179C11.7543 6.16761 11.7696 6.10487 11.7657 6.04183C11.7618 5.97879 11.7389 5.91842 11.7 5.86866L11.0125 4.98429L11.4969 4.49991L12.3812 5.18741C12.431 5.22631 12.4914 5.24923 12.5544 5.25313C12.6174 5.25704 12.6802 5.24175 12.7344 5.20929C12.9783 5.06781 13.2414 4.96254 13.5156 4.89679C13.577 4.88143 13.6322 4.84782 13.6741 4.80039C13.7159 4.75296 13.7424 4.69395 13.75 4.63116L13.8906 3.51866H14.575L14.7156 4.63116C14.7232 4.69395 14.7497 4.75296 14.7915 4.80039C14.8334 4.84782 14.8886 4.88143 14.95 4.89679C15.2242 4.96254 15.4873 5.06781 15.7312 5.20929C15.7854 5.24175 15.8482 5.25704 15.9112 5.25313C15.9742 5.24923 16.0346 5.22631 16.0844 5.18741L16.9687 4.49991L17.4531 4.98429L16.7656 5.86866C16.7267 5.91842 16.7038 5.97879 16.6999 6.04183C16.696 6.10487 16.7113 6.16761 16.7437 6.22179C16.8853 6.46564 16.9906 6.72882 17.0562 7.00304C17.0716 7.06439 17.1052 7.11965 17.1526 7.1615C17.2001 7.20334 17.2591 7.22982 17.3219 7.23741L18.4375 7.37491V8.07491Z" fill="white"/>
</g>
</g>
</svg>
