<svg width="20" height="20" viewBox="0 0 20 20" fill="none" xmlns="http://www.w3.org/2000/svg">
<g id="icon/PersonArmsSpread">
<path id="Vector" d="M7.81256 2.8125C7.81256 2.37985 7.94086 1.95692 8.18122 1.59719C8.42159 1.23746 8.76323 0.957081 9.16295 0.791515C9.56266 0.625948 10.0025 0.582628 10.4268 0.667033C10.8512 0.751438 11.2409 0.959778 11.5469 1.2657C11.8528 1.57163 12.0611 1.96141 12.1455 2.38574C12.2299 2.81007 12.1866 3.24991 12.0211 3.64962C11.8555 4.04933 11.5751 4.39098 11.2154 4.63134C10.8556 4.87171 10.4327 5 10.0001 5C9.4199 5 8.8635 4.76953 8.45327 4.3593C8.04303 3.94906 7.81256 3.39266 7.81256 2.8125ZM17.7813 7.23203C17.7244 6.95201 17.5714 6.70065 17.3489 6.52136C17.1264 6.34207 16.8483 6.24609 16.5626 6.25H3.43757C3.15258 6.24999 2.87615 6.34735 2.65408 6.52596C2.43201 6.70457 2.27764 6.9537 2.21656 7.23206C2.15547 7.51042 2.19133 7.80129 2.3182 8.05648C2.44507 8.31166 2.65533 8.51584 2.91413 8.63516H2.91882L7.12897 10.4891L5.41647 16.9969C5.28578 17.2959 5.27718 17.6341 5.3925 17.9393C5.50782 18.2446 5.73792 18.4926 6.03366 18.6305C6.19895 18.709 6.37959 18.7498 6.56256 18.75C6.7982 18.7503 7.02914 18.6841 7.22874 18.5588C7.42834 18.4336 7.58848 18.2545 7.69069 18.0422L10.0001 14.0625L12.311 18.0469C12.4547 18.3393 12.707 18.564 13.0139 18.6732C13.3209 18.7823 13.6584 18.7673 13.9545 18.6314C14.2505 18.4954 14.4818 18.2492 14.5991 17.9452C14.7163 17.6412 14.7102 17.3035 14.5821 17.0039L12.8696 10.4961L17.0883 8.63985C17.3502 8.52313 17.5628 8.31842 17.6894 8.06125C17.816 7.80407 17.8485 7.51069 17.7813 7.23203Z" fill="#8C8C8C"/>
</g>
</svg>
