<svg width="15" height="15" viewBox="0 0 15 15" fill="none" xmlns="http://www.w3.org/2000/svg">
<g id="plus" clip-path="url(#clip0_679_14931)">
<path id="Vector" d="M13.1875 6.1875H8.8125V1.8125C8.8125 1.4644 8.67422 1.13056 8.42808 0.884423C8.18194 0.638281 7.8481 0.5 7.5 0.5C7.1519 0.5 6.81806 0.638281 6.57192 0.884422C6.32578 1.13056 6.1875 1.4644 6.1875 1.8125V6.1875H1.8125C1.4644 6.1875 1.13056 6.32578 0.884423 6.57192C0.638281 6.81806 0.5 7.1519 0.5 7.5C0.5 7.8481 0.638281 8.18194 0.884422 8.42808C1.13056 8.67422 1.4644 8.8125 1.8125 8.8125H6.1875V13.1875C6.1875 13.5356 6.32578 13.8694 6.57192 14.1156C6.81806 14.3617 7.1519 14.5 7.5 14.5C7.8481 14.5 8.18194 14.3617 8.42808 14.1156C8.67422 13.8694 8.8125 13.5356 8.8125 13.1875V8.8125H13.1875C13.5356 8.8125 13.8694 8.67422 14.1156 8.42808C14.3617 8.18194 14.5 7.8481 14.5 7.5C14.5 7.1519 14.3617 6.81806 14.1156 6.57192C13.8694 6.32578 13.5356 6.1875 13.1875 6.1875Z" fill="#FFDFDE" stroke="#FFDFDE"/>
</g>
<defs>
<clipPath id="clip0_679_14931">
<rect width="15" height="15" fill="white"/>
</clipPath>
</defs>
</svg>
