<svg width="15" height="16" viewBox="0 0 15 16" fill="none" xmlns="http://www.w3.org/2000/svg">
<g id="plus">
<path id="Vector" d="M13.1875 6.93749H8.5625V2.31249C8.5625 2.0307 8.45056 1.76045 8.2513 1.56119C8.05204 1.36193 7.78179 1.24999 7.5 1.24999C7.21821 1.24999 6.94796 1.36193 6.7487 1.56119C6.54944 1.76045 6.4375 2.0307 6.4375 2.31249V6.93749H1.8125C1.53071 6.93749 1.26046 7.04943 1.0612 7.24869C0.861942 7.44795 0.75 7.7182 0.75 7.99999C0.75 8.28178 0.861942 8.55203 1.0612 8.75129C1.26046 8.95055 1.53071 9.06249 1.8125 9.06249H6.4375V13.6875C6.4375 13.9693 6.54944 14.2395 6.7487 14.4388C6.94796 14.638 7.21821 14.75 7.5 14.75C7.78179 14.75 8.05204 14.638 8.2513 14.4388C8.45056 14.2395 8.5625 13.9693 8.5625 13.6875V9.06249H13.1875C13.4693 9.06249 13.7395 8.95055 13.9388 8.75129C14.1381 8.55203 14.25 8.28178 14.25 7.99999C14.25 7.7182 14.1381 7.44795 13.9388 7.24869C13.7395 7.04943 13.4693 6.93749 13.1875 6.93749Z" fill="white" stroke="white" stroke-width="0.5"/>
</g>
</svg>
