<svg width="20" height="21" viewBox="0 0 20 21" fill="none" xmlns="http://www.w3.org/2000/svg">
<g id="plus">
<path id="Vector" d="M13.1296 2.16675C16.3251 2.16675 18.3334 4.16032 18.3334 7.37785V9.51794C18.3334 9.68639 18.266 9.84785 18.1462 9.96627C18.0264 10.0847 17.8641 10.1502 17.6957 10.1483V10.1336C17.3435 10.1336 17.0581 9.84813 17.0581 9.49597V7.37785C17.0581 4.83461 15.6655 3.44202 13.1296 3.44202H6.87777C4.34186 3.44202 2.94197 4.84194 2.94197 7.37785V13.6297C2.94197 16.1583 4.34186 17.5581 6.87777 17.5581H13.1296C15.6655 17.5581 17.0581 16.1583 17.0581 13.6297C17.0581 13.2775 17.3435 12.992 17.6957 12.992C18.0479 12.992 18.3334 13.2775 18.3334 13.6297C18.3334 16.8399 16.3398 18.8334 13.1296 18.8334H6.87777C3.66024 18.8334 1.66669 16.8399 1.66669 13.6297V7.37785C1.66669 4.16032 3.66024 2.16675 6.87777 2.16675H13.1296ZM10.0587 11.8706C10.2285 11.8744 10.3896 11.9465 10.5055 12.0707C10.6214 12.1949 10.6823 12.3606 10.6743 12.5303V13.3365L10.663 13.4366C10.6374 13.5678 10.5711 13.6887 10.4721 13.781C10.3484 13.8965 10.1838 13.9581 10.0147 13.9521C9.66422 13.9363 9.39069 13.6432 9.39902 13.2925V12.4863C9.40476 12.3171 9.4775 12.1572 9.60122 12.0417C9.72495 11.9263 9.88951 11.8647 10.0587 11.8706ZM10.0293 7.04069C10.1003 7.04067 10.17 7.05262 10.2358 7.0754C10.4982 7.15442 10.689 7.39776 10.689 7.68567L10.6884 9.67843L12.8584 9.6792C12.9315 9.67834 13.0034 9.69022 13.0712 9.71358C13.17 9.74372 13.2615 9.79835 13.336 9.87374C13.4545 9.99354 13.52 10.1557 13.5181 10.3242C13.5181 10.6707 13.2415 10.9539 12.8951 10.9618H7.21491C7.15525 10.9605 7.09762 10.9511 7.04308 10.9346C6.76431 10.8652 6.55859 10.6152 6.55524 10.3169C6.55332 10.1484 6.61887 9.98621 6.73729 9.86641C6.85571 9.74662 7.01715 9.67919 7.1856 9.6792H9.38436V7.67834C9.39225 7.32666 9.67758 7.04455 10.0293 7.04069Z" fill="#9397B6"/>
</g>
</svg>
