<svg width="20" height="21" viewBox="0 0 20 21" fill="none" xmlns="http://www.w3.org/2000/svg">
<g id="target">
<path id="Vector" d="M8.58833 5.83526C7.85928 6.03421 7.18914 6.40645 6.63499 6.92026C6.60824 6.94509 6.58663 6.97494 6.57141 7.00811C6.55619 7.04128 6.54765 7.07713 6.54629 7.1136C6.54492 7.15007 6.55075 7.18646 6.56344 7.22068C6.57614 7.2549 6.59545 7.28628 6.62027 7.31304C6.6451 7.3398 6.67495 7.3614 6.70812 7.37662C6.74129 7.39184 6.77714 7.40038 6.81361 7.40175C6.85008 7.40312 6.88647 7.39729 6.92069 7.38459C6.95491 7.3719 6.98629 7.35259 7.01305 7.32776C7.50121 6.87495 8.09158 6.54684 8.73388 6.37137C8.76945 6.36215 8.80284 6.34596 8.83211 6.32375C8.86138 6.30153 8.88595 6.27373 8.9044 6.24195C8.92285 6.21017 8.93481 6.17505 8.93959 6.13862C8.94437 6.10218 8.94187 6.06516 8.93225 6.0297C8.92262 5.99424 8.90605 5.96104 8.8835 5.93203C8.86095 5.90301 8.83287 5.87876 8.80088 5.86068C8.7689 5.84259 8.73364 5.83103 8.69715 5.82667C8.66067 5.82231 8.62368 5.82523 8.58833 5.83526ZM6.07222 8.02026C6.04014 8.0029 6.00496 7.99204 5.96869 7.9883C5.93241 7.98456 5.89576 7.98802 5.86082 7.99847C5.82588 8.00892 5.79335 8.02616 5.76508 8.04921C5.73682 8.07225 5.71338 8.10064 5.69611 8.13276C5.58383 8.34115 5.48763 8.55779 5.40833 8.78082C5.38365 8.85022 5.38755 8.92658 5.41917 8.9931C5.45079 9.05962 5.50754 9.11086 5.57694 9.13554C5.64634 9.16022 5.7227 9.15632 5.78922 9.1247C5.85574 9.09308 5.90698 9.03633 5.93166 8.96693C6.0011 8.77137 6.08638 8.57915 6.18499 8.39637C6.21988 8.33154 6.2276 8.2555 6.20645 8.18498C6.1853 8.11445 6.13702 8.05521 6.07222 8.02026Z" fill="#9397B6"/>
<path id="Vector_2" d="M18.4722 10.0833H16.8917C16.7608 6.68967 14.1353 3.92578 10.8003 3.57967V2.02772C10.8003 1.88038 10.7418 1.73907 10.6376 1.63489C10.5334 1.5307 10.3921 1.47217 10.2447 1.47217C10.0974 1.47217 9.95608 1.5307 9.85189 1.63489C9.7477 1.73907 9.68917 1.88038 9.68917 2.02772V3.55578C6.2114 3.76022 3.42834 6.58717 3.29362 10.0833H1.52778C1.38044 10.0833 1.23913 10.1418 1.13495 10.246C1.03076 10.3502 0.972229 10.4915 0.972229 10.6388C0.972229 10.7862 1.03076 10.9275 1.13495 11.0317C1.23913 11.1359 1.38044 11.1944 1.52778 11.1944H3.3414C3.74306 14.4177 6.4064 16.948 9.68917 17.1408V18.9722C9.68917 19.1195 9.7477 19.2608 9.85189 19.365C9.95608 19.4692 10.0974 19.5277 10.2447 19.5277C10.3921 19.5277 10.5334 19.4692 10.6376 19.365C10.7418 19.2608 10.8003 19.1195 10.8003 18.9722V17.1169C13.9425 16.7908 16.4545 14.3174 16.8439 11.1944H18.4722C18.6196 11.1944 18.7609 11.1359 18.8651 11.0317C18.9693 10.9275 19.0278 10.7862 19.0278 10.6388C19.0278 10.4915 18.9693 10.3502 18.8651 10.246C18.7609 10.1418 18.6196 10.0833 18.4722 10.0833ZM10.8003 15.9936V15.0833C10.8003 14.9359 10.7418 14.7946 10.6376 14.6904C10.5334 14.5863 10.3921 14.5277 10.2447 14.5277C10.0974 14.5277 9.95608 14.5863 9.85189 14.6904C9.7477 14.7946 9.68917 14.9359 9.68917 15.0833V16.0222C7.02084 15.8336 4.85945 13.8024 4.46806 11.1944H5.41667C5.56402 11.1944 5.70532 11.1359 5.80951 11.0317C5.9137 10.9275 5.97223 10.7862 5.97223 10.6388C5.97223 10.4915 5.9137 10.3502 5.80951 10.246C5.70532 10.1418 5.56402 10.0833 5.41667 10.0833H4.4114C4.54473 7.20133 6.82501 4.87606 9.68917 4.67411V5.91661C9.68917 6.06395 9.7477 6.20526 9.85189 6.30945C9.95608 6.41364 10.0974 6.47217 10.2447 6.47217C10.3921 6.47217 10.5334 6.41364 10.6376 6.30945C10.7418 6.20526 10.8003 6.06395 10.8003 5.91661V4.70245C13.5206 5.04189 15.645 7.30411 15.7739 10.0833H14.5833C14.436 10.0833 14.2947 10.1418 14.1905 10.246C14.0863 10.3502 14.0278 10.4915 14.0278 10.6388C14.0278 10.7862 14.0863 10.9275 14.1905 11.0317C14.2947 11.1359 14.436 11.1944 14.5833 11.1944H15.7172C15.3411 13.7024 13.3278 15.6783 10.8003 15.9936Z" fill="#9397B6"/>
</g>
</svg>
