<svg width="38" height="38" viewBox="0 0 38 38" fill="none" xmlns="http://www.w3.org/2000/svg">
<g id="project-launch" clip-path="url(#clip0_144_4450)">
<path id="Vector" d="M18.6954 27.2591L10.7402 19.3038C12.155 15.502 14.372 12.0915 17.1858 9.27774C22.2285 4.23507 29.1799 1.11698 36.8783 1.117C36.8783 1.20393 36.8744 1.29482 36.8744 1.38175C36.7716 13.2613 29.2274 23.3348 18.6954 27.2591Z" fill="white"/>
<path id="Vector_2" d="M18.6954 27.2591L10.7402 19.3038C25.6232 27.6661 35.4991 4.79623 36.8744 1.38174C36.7716 13.2613 29.2274 23.3348 18.6954 27.2591Z" fill="#DFE1E6"/>
<path id="Vector_3" d="M10.7402 19.3006L6.46705 15.0274C5.33725 13.8976 6.13565 11.9644 7.73743 11.9694L15.6862 10.9099C13.5773 13.3704 11.8951 16.2074 10.7402 19.3006ZM22.9672 31.5275L18.699 27.2594C21.7922 26.1045 24.6293 24.4223 27.0897 22.3133L26.0302 30.2621C26.0302 31.8589 24.102 32.6624 22.9672 31.5275Z" fill="#FAC41D"/>
<path id="Vector_4" d="M26.6679 25.4868C24.7799 26.9229 22.7011 28.1181 20.4716 29.0319L18.699 27.2594C21.7922 26.1045 24.6293 24.4223 27.0897 22.3134L26.6679 25.4868Z" fill="#F4A01E"/>
<path id="Vector_5" d="M34.5619 12.2218C36.0448 8.81893 36.8814 5.06962 36.8814 1.11765C32.9295 1.11765 29.1801 1.95422 25.7772 3.43708L34.5619 12.2218Z" fill="#F37D7F"/>
<path id="Vector_6" d="M34.5619 12.2218C36.0448 8.81893 36.8814 5.06962 36.8814 1.11765C32.9295 1.11765 29.1801 1.95422 25.7772 3.43708L34.5619 12.2218Z" fill="#F37D7F"/>
<path id="Vector_7" d="M34.5606 12.2502C36.0157 8.91742 36.8409 5.24627 36.8744 1.38174C36.3879 2.58966 34.8362 6.23274 32.3767 10.0662L34.5606 12.2502Z" fill="#EF3F3E"/>
<path id="Vector_8" d="M24.4602 17.0894C26.4213 17.0894 28.011 15.4997 28.011 13.5386C28.011 11.5776 26.4213 9.98785 24.4602 9.98785C22.4992 9.98785 20.9095 11.5776 20.9095 13.5386C20.9095 15.4997 22.4992 17.0894 24.4602 17.0894Z" fill="#5EA7DC"/>
<path id="Vector_9" d="M12.1808 30.831C12.1752 30.8254 12.1689 30.8208 12.1633 30.8152C12.2658 30.7332 12.3655 30.6463 12.4605 30.5513C13.8448 29.167 13.8448 26.9227 12.4605 25.5384C11.0762 24.1542 8.83187 24.1541 7.44759 25.5384C7.35263 25.6334 7.26566 25.7331 7.18372 25.8356C7.17814 25.83 7.17351 25.8237 7.1679 25.8181C5.78362 24.4338 3.53928 24.4338 2.155 25.8181C0.770721 27.2024 0.770721 29.4467 2.155 30.831C3.53928 32.2153 5.78362 32.2153 7.1679 30.831C7.26286 30.736 7.26286 30.736 7.1679 30.831C5.78363 32.2153 5.78365 34.4596 7.1679 35.8439C8.55219 37.2282 10.7966 37.2282 12.1808 35.8439C13.5651 34.4596 13.5651 32.2153 12.1808 30.831Z" fill="white"/>
<path id="Vector_10" d="M12.1826 35.8427C10.7955 37.2298 8.5508 37.2298 7.16762 35.8466C6.33377 35.0128 6.00179 33.8667 6.17568 32.7918C6.31003 33.0289 6.48392 33.2502 6.68943 33.4557C8.07261 34.8389 10.3173 34.8389 11.7005 33.4557C12.2538 32.9024 12.5857 32.2069 12.6964 31.4876C13.5382 32.8511 13.3643 34.6611 12.1826 35.8427Z" fill="#DFE1E6"/>
<path id="Vector_11" d="M18.1062 29.4332C17.8879 29.2149 17.5342 29.2149 17.316 29.4332L15.8098 30.9396C15.5915 31.1579 15.5915 31.5118 15.8098 31.7299C16.028 31.9481 16.3817 31.9481 16.6 31.7299L18.1062 30.2234C18.3245 30.0051 18.3245 29.6512 18.1062 29.4332ZM8.56578 19.8928C8.34749 19.6745 7.99386 19.6745 7.77557 19.8928L6.2691 21.399C6.0508 21.617 6.0508 21.9709 6.2691 22.1892C6.48739 22.4075 6.84102 22.4075 7.05931 22.1892L8.56578 20.683C8.78407 20.465 8.78407 20.1111 8.56578 19.8928Z" fill="#010101"/>
<path id="Vector_12" d="M37.4401 1.11763V0.558807H36.8813C30.1399 0.558807 24.9426 3.22748 24.6609 3.32209L24.6815 3.34269C21.1575 5.02861 17.998 7.42544 15.4204 10.3814L7.6989 11.4108C6.74442 11.4231 5.92747 11.9757 5.56156 12.8595C5.19047 13.7547 5.38611 14.7368 6.07181 15.4225L10.0907 19.4416L10.0894 19.445L13.9265 23.2822L12.4305 24.778C10.8406 23.5677 8.60664 23.6773 7.1428 25.0554C5.56123 23.8494 3.25124 23.9314 1.75976 25.4229C0.159691 27.023 0.159965 29.6264 1.76003 31.2262C2.83168 32.2978 4.34138 32.6514 5.70645 32.2944C5.35036 33.6587 5.7059 35.172 6.7728 36.2389C8.37416 37.8409 10.9724 37.8431 12.5761 36.2389C14.0304 34.7846 14.1828 32.491 12.9409 30.8586C14.323 29.3939 14.4308 27.1571 13.2208 25.5681L14.7167 24.0724L18.5537 27.9095L18.5576 27.9081L22.5721 31.9228C24.0542 33.4049 26.5545 32.3553 26.5887 30.3017L27.6183 22.5778C30.5739 20.0003 32.9705 16.8411 34.6563 13.3175L34.6769 13.3381C34.8079 12.9447 37.4401 7.98158 37.4401 1.11763ZM11.7858 31.2262C12.9499 32.3905 12.9499 34.2844 11.7858 35.4487C10.6191 36.6155 8.73014 36.6159 7.563 35.4487C6.39897 34.2844 6.39897 32.3905 7.563 31.2262L7.63422 31.1549C7.74336 31.0458 7.79794 30.9028 7.79794 30.7598C7.79794 30.6169 7.74336 30.4739 7.63422 30.3647C7.41593 30.1464 7.0623 30.1464 6.84401 30.3647L6.77279 30.4359C5.60605 31.6027 3.71734 31.6031 2.55024 30.4359C1.38593 29.2719 1.38593 27.3774 2.54996 26.2131C3.74478 25.0183 5.64171 25.0838 6.7496 26.1883C6.87255 26.3353 7.04786 26.4046 7.22138 26.3929C7.53681 26.372 7.6126 26.1635 7.84269 25.9334C9.00941 24.7667 10.8981 24.7663 12.0652 25.9334C13.2327 27.1009 13.2324 28.9891 12.0652 30.1563C11.8349 30.3866 11.6328 30.4527 11.6142 30.7918C11.6052 30.9506 11.6734 31.1137 11.7858 31.2262ZM34.297 11.3778L26.6211 3.70192C29.7167 2.43631 33.0092 1.75065 36.3165 1.68246C36.2506 4.8804 35.6026 8.18423 34.297 11.3778ZM6.59407 13.2873C6.7908 12.812 7.21592 12.5282 7.73573 12.5282L14.3625 11.6501C12.7778 13.6974 11.4316 16.0904 10.5307 18.3009L6.86202 14.6323C6.43199 14.202 6.44154 13.6554 6.59407 13.2873ZM26.3494 23.637L25.4762 30.1882L25.4713 30.2621C25.4713 31.3675 24.1445 31.9147 23.3623 31.1326L19.6989 27.4688C21.9263 26.5615 24.305 25.2194 26.3494 23.637ZM18.8304 26.6055L15.1123 22.8873L15.1116 22.8866L11.3941 19.169C14.0408 12.3457 19.2298 7.07703 25.5179 4.17912L33.8198 12.481C30.9073 18.8004 25.6229 23.9716 18.8304 26.6055Z" fill="#010101"/>
<path id="Vector_13" d="M21.5546 10.6326C19.9526 12.2349 19.9526 14.8421 21.5546 16.4443C23.161 18.0502 25.7596 18.0505 27.3663 16.4443C28.9683 14.8421 28.9683 12.2349 27.3663 10.6326C25.7599 9.02675 23.1613 9.02644 21.5546 10.6326ZM26.5761 15.6541C25.4044 16.8253 23.5121 16.8209 22.3448 15.6541C21.1786 14.4876 21.1786 12.5893 22.3448 11.4228C23.5165 10.2517 25.4087 10.256 26.5761 11.4228C27.7423 12.5893 27.7423 14.4876 26.5761 15.6541Z" fill="#010101"/>
<path id="Vector_14" d="M10.7733 13.1211L9.38138 13.2499C9.15108 13.2712 8.98136 13.4753 9.00291 13.7059C9.02283 13.9231 9.20565 14.0862 9.41958 14.0862C9.43268 14.0862 9.4455 14.0857 9.45887 14.0843L10.8507 13.9555C11.081 13.9343 11.2508 13.7302 11.2292 13.4996C11.2079 13.269 11.0041 13.0952 10.7733 13.1211Z" fill="white"/>
</g>
<defs>
<clipPath id="clip0_144_4450">
<rect width="38" height="38" fill="white"/>
</clipPath>
</defs>
</svg>
