<svg width="18" height="18" viewBox="0 0 18 18" fill="none" xmlns="http://www.w3.org/2000/svg">
<path d="M7.3125 2.8125H3.9375C3.31618 2.8125 2.8125 3.31618 2.8125 3.9375V7.3125C2.8125 7.93382 3.31618 8.4375 3.9375 8.4375H7.3125C7.93382 8.4375 8.4375 7.93382 8.4375 7.3125V3.9375C8.4375 3.31618 7.93382 2.8125 7.3125 2.8125Z" fill="white"/>
<path d="M7.3125 9.5625H3.9375C3.31618 9.5625 2.8125 10.0662 2.8125 10.6875V14.0625C2.8125 14.6838 3.31618 15.1875 3.9375 15.1875H7.3125C7.93382 15.1875 8.4375 14.6838 8.4375 14.0625V10.6875C8.4375 10.0662 7.93382 9.5625 7.3125 9.5625Z" fill="white"/>
<path d="M14.0625 2.8125H10.6875C10.0662 2.8125 9.5625 3.31618 9.5625 3.9375V7.3125C9.5625 7.93382 10.0662 8.4375 10.6875 8.4375H14.0625C14.6838 8.4375 15.1875 7.93382 15.1875 7.3125V3.9375C15.1875 3.31618 14.6838 2.8125 14.0625 2.8125Z" fill="white"/>
<path d="M10.125 12.9375C10.2742 12.9375 10.4173 12.8782 10.5227 12.7727C10.6282 12.6673 10.6875 12.5242 10.6875 12.375V10.125C10.6875 9.97582 10.6282 9.83274 10.5227 9.72725C10.4173 9.62176 10.2742 9.5625 10.125 9.5625C9.97582 9.5625 9.83274 9.62176 9.72725 9.72725C9.62176 9.83274 9.5625 9.97582 9.5625 10.125V12.375C9.5625 12.5242 9.62176 12.6673 9.72725 12.7727C9.83274 12.8782 9.97582 12.9375 10.125 12.9375Z" fill="white"/>
<path d="M14.625 10.6875H12.9375V10.125C12.9375 9.97582 12.8782 9.83274 12.7727 9.72725C12.6673 9.62176 12.5242 9.5625 12.375 9.5625C12.2258 9.5625 12.0827 9.62176 11.9773 9.72725C11.8718 9.83274 11.8125 9.97582 11.8125 10.125V14.0625H10.125C9.97582 14.0625 9.83274 14.1218 9.72725 14.2273C9.62176 14.3327 9.5625 14.4758 9.5625 14.625C9.5625 14.7742 9.62176 14.9173 9.72725 15.0227C9.83274 15.1282 9.97582 15.1875 10.125 15.1875H12.375C12.5242 15.1875 12.6673 15.1282 12.7727 15.0227C12.8782 14.9173 12.9375 14.7742 12.9375 14.625V11.8125H14.625C14.7742 11.8125 14.9173 11.7532 15.0227 11.6477C15.1282 11.5423 15.1875 11.3992 15.1875 11.25C15.1875 11.1008 15.1282 10.9577 15.0227 10.8523C14.9173 10.7468 14.7742 10.6875 14.625 10.6875Z" fill="white"/>
<path d="M14.625 12.9375C14.4758 12.9375 14.3327 12.9968 14.2273 13.1023C14.1218 13.2077 14.0625 13.3508 14.0625 13.5V14.625C14.0625 14.7742 14.1218 14.9173 14.2273 15.0227C14.3327 15.1282 14.4758 15.1875 14.625 15.1875C14.7742 15.1875 14.9173 15.1282 15.0227 15.0227C15.1282 14.9173 15.1875 14.7742 15.1875 14.625V13.5C15.1875 13.3508 15.1282 13.2077 15.0227 13.1023C14.9173 12.9968 14.7742 12.9375 14.625 12.9375Z" fill="white"/>
</svg>
