<svg width="19" height="19" viewBox="0 0 19 19" fill="none" xmlns="http://www.w3.org/2000/svg">
<g id="Group 151">
<circle id="Ellipse 64" cx="9.5" cy="9.5" r="9.5" fill="#FF5F59"/>
<path id="Layer 63" d="M8.49707 13C8.17541 12.9997 7.86703 12.8715 7.63972 12.6437L5.35481 10.3517C5.12761 10.1239 5 9.81518 5 9.49325C5 9.17133 5.12761 8.86257 5.35481 8.63479L5.6379 8.34728C5.75061 8.23403 5.88454 8.14417 6.03201 8.08286C6.17948 8.02154 6.33759 7.98998 6.49727 7.98998C6.65694 7.98998 6.81505 8.02154 6.96252 8.08286C7.10999 8.14417 7.24392 8.23403 7.35663 8.34728L8.49707 9.49325L11.6434 6.34285C11.8755 6.1227 12.183 6 12.5027 6C12.8224 6 13.13 6.1227 13.3621 6.34285L13.6452 6.63036C13.8724 6.85813 14 7.1669 14 7.48882C14 7.81075 13.8724 8.11951 13.6452 8.34728L9.35846 12.6437C9.24543 12.757 9.11113 12.8468 8.9633 12.908C8.81547 12.9691 8.65702 13.0004 8.49707 13ZM6.49929 8.80081C6.44578 8.80103 6.39285 8.81189 6.34356 8.83274C6.29428 8.85359 6.24961 8.88403 6.21216 8.92229L5.92503 9.20575C5.88712 9.24339 5.85704 9.28818 5.83651 9.33752C5.81598 9.38687 5.8054 9.4398 5.8054 9.49325C5.8054 9.54671 5.81598 9.59964 5.83651 9.64898C5.85704 9.69833 5.88712 9.74311 5.92503 9.78076L8.21398 12.0686C8.28975 12.1441 8.39225 12.1864 8.49909 12.1864C8.60593 12.1864 8.70843 12.1441 8.7842 12.0686L13.075 7.77632C13.1129 7.73868 13.143 7.69389 13.1635 7.64455C13.184 7.5952 13.1946 7.54228 13.1946 7.48882C13.1946 7.43536 13.184 7.38244 13.1635 7.33309C13.143 7.28375 13.1129 7.23896 13.075 7.20132L12.7878 6.91786C12.7121 6.84244 12.6096 6.80011 12.5027 6.80011C12.3959 6.80011 12.2934 6.84244 12.2176 6.91786L8.7842 10.3517C8.70843 10.4271 8.60593 10.4695 8.49909 10.4695C8.39225 10.4695 8.28975 10.4271 8.21398 10.3517L6.78237 8.92229C6.70771 8.846 6.60596 8.80233 6.49929 8.80081Z" fill="white"/>
</g>
</svg>
