<svg width="12" height="12" viewBox="0 0 12 12" fill="none" xmlns="http://www.w3.org/2000/svg">
<g id="Frame">
<path id="Vector" d="M7.01302 4.01765L2.81302 8.14265C2.74288 8.21164 2.64844 8.25031 2.55006 8.25031C2.45167 8.25031 2.35723 8.21164 2.28709 8.14265L0.487087 6.375C0.451969 6.34046 0.423996 6.29935 0.404767 6.25401C0.385537 6.20866 0.375427 6.15997 0.375013 6.11072C0.3746 6.06147 0.383891 6.01262 0.402357 5.96696C0.420822 5.9213 0.448101 5.87972 0.482634 5.8446C0.517168 5.80949 0.55828 5.78151 0.603624 5.76228C0.648968 5.74305 0.697656 5.73294 0.746907 5.73253C0.796158 5.73212 0.845009 5.74141 0.89067 5.75987C0.93633 5.77834 0.977906 5.80562 1.01302 5.84015L2.55006 7.34953L6.48756 3.48234C6.55854 3.4126 6.65433 3.37391 6.75384 3.37479C6.80311 3.37522 6.85182 3.38536 6.89717 3.40462C6.94253 3.42387 6.98365 3.45188 7.01818 3.48703C7.05271 3.52218 7.07999 3.56378 7.09844 3.60947C7.11689 3.65516 7.12617 3.70404 7.12573 3.75331C7.1253 3.80258 7.11516 3.85129 7.0959 3.89664C7.07664 3.942 7.04864 3.98312 7.01349 4.01765H7.01302ZM11.5177 3.48703C11.4832 3.45185 11.4421 3.42382 11.3967 3.40455C11.3514 3.38527 11.3027 3.37513 11.2534 3.37469C11.2041 3.37426 11.1552 3.38354 11.1095 3.40201C11.0638 3.42048 11.0222 3.44778 10.9871 3.48234L7.04959 7.34953L6.16693 6.48234C6.09594 6.41266 6.00018 6.37403 5.90072 6.37495C5.80125 6.37588 5.70622 6.41627 5.63654 6.48726C5.56686 6.55825 5.52823 6.65401 5.52915 6.75348C5.53008 6.85294 5.57048 6.94797 5.64146 7.01765L6.78662 8.14265C6.85676 8.21164 6.9512 8.25031 7.04959 8.25031C7.14797 8.25031 7.24242 8.21164 7.31256 8.14265L11.5126 4.01765C11.5478 3.98316 11.5758 3.94208 11.5951 3.89673C11.6145 3.85139 11.6246 3.80269 11.6251 3.75341C11.6256 3.70413 11.6164 3.65523 11.5979 3.60953C11.5795 3.56382 11.5522 3.52219 11.5177 3.48703Z" fill="#50CD89"/>
</g>
</svg>
