<svg width="32" height="32" viewBox="0 0 32 32" fill="none" xmlns="http://www.w3.org/2000/svg">
<g id="report">
<path id="Vector" d="M16.09 12.33L24.83 14.477C24.9586 14.5087 25.0946 14.488 25.2079 14.4195C25.3213 14.3509 25.4028 14.2401 25.4345 14.1115C25.4662 13.9829 25.4455 13.8469 25.3769 13.7336C25.3084 13.6202 25.1976 13.5387 25.069 13.507L16.329 11.36C16.2004 11.3292 16.0648 11.3503 15.9517 11.4188C15.8387 11.4874 15.7572 11.5978 15.725 11.726C15.709 11.7897 15.7058 11.8558 15.7155 11.9207C15.7253 11.9856 15.7477 12.0479 15.7817 12.104C15.8156 12.1602 15.8603 12.2091 15.9132 12.2479C15.9662 12.2866 16.0262 12.3146 16.09 12.33ZM26.294 16.897L13.67 13.796C13.6063 13.7804 13.5402 13.7775 13.4753 13.7874C13.4105 13.7973 13.3483 13.8199 13.2922 13.8539C13.2361 13.8879 13.1873 13.9326 13.1484 13.9855C13.1096 14.0383 13.0816 14.0983 13.066 14.162C13.0504 14.2257 13.0474 14.2919 13.0574 14.3567C13.0673 14.4215 13.0899 14.4837 13.1239 14.5398C13.1579 14.5959 13.2026 14.6447 13.2554 14.6836C13.3083 14.7224 13.3683 14.7504 13.432 14.766L26.057 17.868C26.1858 17.8994 26.3217 17.8784 26.435 17.8096C26.5483 17.7408 26.6296 17.6298 26.661 17.501C26.6924 17.3723 26.6714 17.2363 26.6026 17.123C26.5338 17.0097 26.4228 16.9284 26.294 16.897ZM25.579 19.811L12.954 16.709C12.8254 16.6775 12.6895 16.6983 12.5762 16.7669C12.4629 16.8356 12.3815 16.9464 12.35 17.075C12.3184 17.2036 12.3393 17.3395 12.4079 17.4528C12.4765 17.5661 12.5874 17.6475 12.716 17.679L25.341 20.781C25.4047 20.7966 25.4708 20.7996 25.5356 20.7896C25.6005 20.7797 25.6627 20.7571 25.7188 20.7231C25.7749 20.6891 25.8237 20.6444 25.8625 20.5916C25.9013 20.5387 25.9294 20.4787 25.945 20.415C25.9606 20.3513 25.9635 20.2852 25.9536 20.2204C25.9437 20.1555 25.9211 20.0933 25.8871 20.0372C25.8531 19.9811 25.8084 19.9323 25.7555 19.8935C25.7027 19.8547 25.6427 19.8266 25.579 19.811ZM24.863 22.724L16.654 20.707C16.5903 20.6914 16.5242 20.6885 16.4593 20.6984C16.3945 20.7083 16.3323 20.7309 16.2762 20.7649C16.1629 20.8336 16.0815 20.9444 16.05 21.073C16.0344 21.1367 16.0314 21.2029 16.0414 21.2677C16.0513 21.3325 16.0739 21.3947 16.1079 21.4508C16.1419 21.5069 16.1866 21.5557 16.2394 21.5946C16.2923 21.6334 16.3523 21.6614 16.416 21.677L24.625 23.694C24.6887 23.7096 24.7548 23.7126 24.8196 23.7026C24.8845 23.6927 24.9467 23.6701 25.0028 23.6361C25.0589 23.6021 25.1077 23.5574 25.1465 23.5046C25.1853 23.4517 25.2134 23.3917 25.229 23.328C25.2446 23.2643 25.2475 23.1982 25.2376 23.1334C25.2277 23.0685 25.2051 23.0063 25.1711 22.9502C25.1371 22.8941 25.0924 22.8453 25.0395 22.8065C24.9867 22.7677 24.9267 22.7396 24.863 22.724ZM24.147 25.637L21.772 25.054C21.646 25.0297 21.5155 25.0547 21.4074 25.1239C21.2994 25.1931 21.222 25.3012 21.1915 25.4258C21.1609 25.5504 21.1794 25.682 21.2431 25.7934C21.3069 25.9047 21.411 25.9873 21.534 26.024L23.909 26.607C23.9727 26.6226 24.0388 26.6256 24.1036 26.6156C24.1685 26.6057 24.2307 26.5831 24.2868 26.5491C24.3429 26.5151 24.3917 26.4704 24.4305 26.4176C24.4693 26.3647 24.4974 26.3047 24.513 26.241C24.5286 26.1773 24.5315 26.1112 24.5216 26.0464C24.5117 25.9815 24.4891 25.9193 24.4551 25.8632C24.4211 25.8071 24.3764 25.7583 24.3235 25.7195C24.2707 25.6807 24.2107 25.6526 24.147 25.637ZM17.776 9.65502L23.603 11.087C23.7316 11.1187 23.8676 11.098 23.9809 11.0295C24.0943 10.9609 24.1758 10.8501 24.2075 10.7215C24.2392 10.5929 24.2185 10.4569 24.1499 10.3436C24.0814 10.2302 23.9706 10.1487 23.842 10.117L18.5 8.80402L18.739 7.83202L24.08 9.14502C24.2086 9.17658 24.3445 9.15575 24.4578 9.08711C24.5711 9.01847 24.6524 8.90765 24.684 8.77902C24.7155 8.65039 24.6947 8.51449 24.6261 8.40122C24.5574 8.28795 24.4466 8.20658 24.318 8.17502L18.491 6.74302C18.3624 6.71163 18.2265 6.73253 18.1133 6.80114C18.0001 6.86976 17.9187 6.98048 17.887 7.10902L17.41 9.05102C17.3939 9.11472 17.3906 9.18099 17.4004 9.24598C17.4101 9.31096 17.4326 9.37336 17.4667 9.42956C17.5007 9.48575 17.5456 9.53462 17.5987 9.57332C17.6518 9.61203 17.7121 9.6398 17.776 9.65502Z" fill="black"/>
<path id="Vector_2" d="M15.637 28.806C15.863 28.789 16.075 28.719 16.267 28.609L17.472 29.649C17.621 29.7778 17.7941 29.8758 17.9811 29.9374C18.1682 29.999 18.3656 30.023 18.562 30.008C18.962 29.979 19.326 29.795 19.587 29.492L20.198 28.784L25.135 29.997C25.1988 30.0129 25.265 30.0159 25.33 30.0061C25.3949 29.9963 25.4573 29.9737 25.5135 29.9397C25.5697 29.9057 25.6187 29.8609 25.6575 29.8079C25.6964 29.755 25.7244 29.6949 25.74 29.631L30.035 12.152C30.04 12.13 30.036 12.108 30.038 12.086C30.053 11.9783 30.0319 11.8686 29.978 11.774L27.048 6.93504C26.9893 6.84258 26.9013 6.7725 26.798 6.73604C26.778 6.72804 26.761 6.71404 26.74 6.70904L23.75 5.97504L19.909 2.13404C19.8305 2.06001 19.7302 2.01335 19.623 2.00104C19.6 1.99804 19.579 1.98804 19.555 1.98804H6.55499C6.42239 1.98804 6.29521 2.04072 6.20144 2.13448C6.10767 2.22825 6.05499 2.35543 6.05499 2.48804V13.78L2.57399 12.897C2.48403 12.8743 2.38951 12.8771 2.30103 12.905C2.21254 12.933 2.13358 12.985 2.07297 13.0552C2.01236 13.1255 1.9725 13.2112 1.95784 13.3029C1.94319 13.3945 1.95432 13.4884 1.98999 13.574L3.71099 17.702L3.71899 17.712C3.7477 17.7794 3.79109 17.8396 3.84599 17.888L6.05599 19.795V24.487C6.05599 24.6196 6.10867 24.7468 6.20244 24.8406C6.29621 24.9344 6.42339 24.987 6.55599 24.987H8.34699L8.25999 25.338C8.24431 25.4017 8.24135 25.4679 8.25126 25.5327C8.26117 25.5976 8.28377 25.6598 8.31776 25.7159C8.35176 25.772 8.39648 25.8209 8.44937 25.8597C8.50226 25.8985 8.56228 25.9265 8.62599 25.942L14.037 27.272C14.035 27.321 14.027 27.37 14.03 27.42C14.059 27.819 14.242 28.184 14.546 28.445C14.6949 28.5744 14.868 28.673 15.0553 28.7349C15.2426 28.7969 15.4403 28.8211 15.637 28.806ZM18.488 29.012C18.4225 29.0178 18.3565 29.0102 18.2941 28.9896C18.2317 28.9689 18.1741 28.9357 18.125 28.892L16.99 27.912L18.95 25.642L20.085 26.622C20.135 26.6646 20.176 26.7167 20.2058 26.7752C20.2355 26.8338 20.2533 26.8977 20.2581 26.9632C20.263 27.0287 20.2547 27.0945 20.2339 27.1567C20.2132 27.219 20.1802 27.2766 20.137 27.326L19.641 27.9L18.83 28.84C18.7432 28.9403 18.6202 29.0021 18.488 29.012ZM6.83699 15.186L10.3 18.176L16.677 23.68L16.024 24.437L6.18299 15.943L6.83699 15.186ZM13.014 5.98704H12.055V4.98704H13.26L13.014 5.98704ZM10.336 16.884L9.29699 15.987H10.557L10.336 16.884ZM24.888 28.908L20.93 27.935C20.938 27.925 20.94 27.913 20.947 27.903C21.053 27.764 21.136 27.613 21.187 27.45C21.19 27.441 21.19 27.432 21.193 27.422C21.2766 27.1459 21.278 26.8514 21.1972 26.5744C21.1165 26.2975 20.9569 26.05 20.738 25.862L19.538 24.826C19.6503 24.5368 19.6705 24.2199 19.5956 23.9188C19.5208 23.6176 19.3547 23.347 19.12 23.144C18.8849 22.9419 18.5931 22.8173 18.2844 22.7874C17.9758 22.7576 17.6655 22.8238 17.396 22.977L11.185 17.616L14.359 4.69604L26.013 7.56004L25.178 10.958C25.1623 11.0217 25.1593 11.0879 25.1693 11.1527C25.1792 11.2176 25.2018 11.2798 25.2358 11.3359C25.2698 11.392 25.3145 11.4409 25.3674 11.4797C25.4203 11.5185 25.4803 11.5465 25.544 11.562L28.943 12.398L24.888 28.908ZM28.007 10.452L28.496 11.26L26.269 10.712L26.816 8.48604L28.007 10.452ZM21.875 5.51404L20.056 5.06704V3.69404L21.875 5.51404ZM7.05499 2.98704H19.055V4.82104L14.113 3.60704C13.9844 3.57592 13.8487 3.59694 13.7355 3.66551C13.6224 3.73408 13.5409 3.84464 13.509 3.97304L13.506 3.98704H11.556C11.4234 3.98704 11.2962 4.03972 11.2024 4.13348C11.1087 4.22725 11.056 4.35443 11.056 4.48704V6.48704C11.056 6.61965 11.1087 6.74682 11.2024 6.84059C11.2962 6.93436 11.4234 6.98704 11.556 6.98704H12.769L12.278 8.98704H10.556C10.4234 8.98704 10.2962 9.03972 10.2024 9.13348C10.1087 9.22725 10.056 9.35443 10.056 9.48704C10.056 9.61965 10.1087 9.74682 10.2024 9.84059C10.2962 9.93436 10.4234 9.98704 10.556 9.98704H12.032L11.541 11.987H8.55499C8.42239 11.987 8.29521 12.0397 8.20144 12.1335C8.10767 12.2273 8.05499 12.3544 8.05499 12.487C8.05499 12.6196 8.10767 12.7468 8.20144 12.8406C8.29521 12.9344 8.42239 12.987 8.55499 12.987H11.294L10.803 14.987H8.55499C8.44809 14.9896 8.3449 15.0268 8.26099 15.093L7.11199 14.101C7.09409 14.0856 7.07503 14.0716 7.05499 14.059V2.98704ZM4.32199 16.569L3.29699 14.111L5.87799 14.766L4.69699 16.134L4.32199 16.569ZM5.52999 16.7L15.371 25.194L14.718 25.951L9.88299 21.778L6.88199 19.187L6.87999 19.186L4.87799 17.458L5.52999 16.7ZM7.05499 20.658L8.99799 22.335L8.59199 23.987H7.05499V20.658ZM9.84699 23.068L13.32 26.066L9.34999 25.091L9.84699 23.068ZM15.028 27.347C15.0242 27.265 15.0406 27.1832 15.076 27.109C15.081 27.099 15.093 27.094 15.097 27.084C15.113 27.049 15.132 27.007 15.144 26.99C15.146 26.988 15.146 26.985 15.148 26.984L16.453 25.472L16.455 25.471L16.456 25.469L17.761 23.957C17.8065 23.9042 17.8632 23.8622 17.927 23.834C17.949 23.824 17.972 23.822 17.995 23.815C18.0362 23.8001 18.0793 23.7911 18.123 23.788C18.161 23.7883 18.1989 23.7927 18.236 23.801C18.258 23.805 18.28 23.805 18.301 23.812C18.378 23.8387 18.4474 23.8838 18.503 23.9434C18.5586 24.0029 18.5988 24.0752 18.6201 24.1539C18.6414 24.2326 18.6431 24.3153 18.6252 24.3948C18.6072 24.4743 18.5701 24.5482 18.517 24.61L15.903 27.637C15.8605 27.6875 15.8083 27.7289 15.7496 27.7588C15.6908 27.7888 15.6267 27.8068 15.5609 27.8116C15.4952 27.8164 15.4291 27.8081 15.3666 27.7871C15.3041 27.766 15.2464 27.7327 15.197 27.689C15.0986 27.6011 15.0381 27.4786 15.028 27.347Z" fill="black"/>
</g>
</svg>
