<svg width="20" height="21" viewBox="0 0 20 21" fill="none" xmlns="http://www.w3.org/2000/svg">
<g id="report">
<path id="Vector" d="M9.99998 11.223C10.5991 11.2221 11.1891 11.0772 11.7205 10.8004C12.2518 10.5237 12.7088 10.1233 13.053 9.633C13.059 9.625 13.068 9.622 13.074 9.614L13.081 9.599C13.5542 8.90961 13.7827 8.08158 13.7302 7.24708C13.6777 6.41258 13.3472 5.61973 12.7913 4.99509C12.2355 4.37045 11.4864 3.95003 10.6636 3.80095C9.84087 3.65186 8.99189 3.78271 8.25221 4.1726C7.51253 4.56248 6.92478 5.18894 6.5828 5.95195C6.24082 6.71497 6.16432 7.57056 6.36551 8.38214C6.5667 9.19372 7.03398 9.91451 7.69276 10.4294C8.35154 10.9444 9.16384 11.2238 9.99998 11.223ZM12.745 7.478C12.7446 7.86684 12.6611 8.2511 12.5 8.605L10.5 7.216V4.783C11.1298 4.89986 11.6989 5.23321 12.1088 5.72535C12.5188 6.21749 12.7438 6.83747 12.745 7.478ZM9.49998 4.783V7.478C9.50012 7.55861 9.51974 7.63799 9.55717 7.70938C9.59461 7.78077 9.64875 7.84205 9.71498 7.888L11.929 9.427C11.6242 9.72974 11.2525 9.95664 10.8439 10.0894C10.4354 10.2222 10.0013 10.2572 9.57676 10.1915C9.1522 10.1259 8.74901 9.9614 8.39965 9.71137C8.0503 9.46134 7.76455 9.13275 7.56544 8.75208C7.36633 8.3714 7.25942 7.94927 7.25332 7.51971C7.24723 7.09014 7.34211 6.66515 7.53033 6.27898C7.71856 5.8928 7.99486 5.55623 8.33698 5.29639C8.67909 5.03654 9.07746 4.86069 9.49998 4.783ZM5.64398 13.373C5.64398 13.2404 5.69666 13.1132 5.79043 13.0194C5.8842 12.9257 6.01137 12.873 6.14398 12.873H9.99998C10.1326 12.873 10.2598 12.9257 10.3535 13.0194C10.4473 13.1132 10.5 13.2404 10.5 13.373C10.5 13.5056 10.4473 13.6328 10.3535 13.7266C10.2598 13.8203 10.1326 13.873 9.99998 13.873H6.14398C6.07832 13.873 6.0133 13.8601 5.95264 13.8349C5.89198 13.8098 5.83686 13.773 5.79043 13.7266C5.744 13.6801 5.70717 13.625 5.68204 13.5643C5.65692 13.5037 5.64398 13.4387 5.64398 13.373ZM14.356 15.173C14.356 15.3056 14.3033 15.4328 14.2095 15.5266C14.1158 15.6203 13.9886 15.673 13.856 15.673H6.14398C6.01137 15.673 5.8842 15.6203 5.79043 15.5266C5.69666 15.4328 5.64398 15.3056 5.64398 15.173C5.64398 15.0404 5.69666 14.9132 5.79043 14.8194C5.8842 14.7257 6.01137 14.673 6.14398 14.673H13.856C13.9879 14.673 14.1145 14.7251 14.2081 14.818C14.3018 14.9109 14.3549 15.0371 14.356 15.169V15.173ZM14.356 16.973C14.356 17.1056 14.3033 17.2328 14.2095 17.3266C14.1158 17.4203 13.9886 17.473 13.856 17.473H6.14398C6.01137 17.473 5.8842 17.4203 5.79043 17.3266C5.69666 17.2328 5.64398 17.1056 5.64398 16.973C5.64398 16.8404 5.69666 16.7132 5.79043 16.6194C5.8842 16.5257 6.01137 16.473 6.14398 16.473H13.856C13.9872 16.473 14.1132 16.5246 14.2067 16.6166C14.3003 16.7087 14.3539 16.8338 14.356 16.965V16.973ZM17.291 4.289C17.2657 4.22772 17.2287 4.172 17.182 4.125L14.215 1.149C14.1688 1.10146 14.1133 1.064 14.052 1.039C13.9912 1.01347 13.9259 1.00021 13.86 1H4.16998C3.77216 1 3.39063 1.15804 3.10932 1.43934C2.82802 1.72064 2.66998 2.10218 2.66998 2.5V18.5C2.66998 18.8978 2.82802 19.2794 3.10932 19.5607C3.39063 19.842 3.77216 20 4.16998 20H15.83C16.2278 20 16.6093 19.842 16.8906 19.5607C17.1719 19.2794 17.33 18.8978 17.33 18.5V4.48C17.3302 4.41434 17.3169 4.34933 17.291 4.289ZM14.36 2.71L15.626 3.98H14.86C14.7274 3.98 14.6002 3.92732 14.5064 3.83355C14.4127 3.73979 14.36 3.61261 14.36 3.48V2.71ZM15.83 19H4.16998C4.03737 19 3.9102 18.9473 3.81643 18.8536C3.72266 18.7598 3.66998 18.6326 3.66998 18.5V2.5C3.66998 2.36739 3.72266 2.24021 3.81643 2.14645C3.9102 2.05268 4.03737 2 4.16998 2H13.36V3.48C13.36 3.87782 13.518 4.25936 13.7993 4.54066C14.0806 4.82196 14.4622 4.98 14.86 4.98H16.33V18.5C16.33 18.6326 16.2773 18.7598 16.1835 18.8536C16.0898 18.9473 15.9626 19 15.83 19Z" fill="#9397B6"/>
</g>
</svg>
