<svg width="15" height="16" viewBox="0 0 15 16" fill="none" xmlns="http://www.w3.org/2000/svg">
<g id="right-arrow">
<path id="Vector" d="M7.94403 10.2125L11.4753 6.67496C11.5339 6.61686 11.5804 6.54773 11.6121 6.47157C11.6438 6.39541 11.6602 6.31372 11.6602 6.23121C11.6602 6.1487 11.6438 6.06701 11.6121 5.99085C11.5804 5.91469 11.5339 5.84556 11.4753 5.78746C11.3582 5.67105 11.1998 5.60571 11.0347 5.60571C10.8695 5.60571 10.7111 5.67105 10.594 5.78746L7.46903 8.88121L4.37528 5.78746C4.25818 5.67105 4.09977 5.60571 3.93466 5.60571C3.76954 5.60571 3.61113 5.67105 3.49403 5.78746C3.43498 5.84534 3.388 5.91437 3.35581 5.99054C3.32363 6.06671 3.30688 6.14852 3.30653 6.23121C3.30688 6.3139 3.32363 6.3957 3.35581 6.47187C3.388 6.54805 3.43498 6.61707 3.49403 6.67496L7.02528 10.2125C7.08381 10.2759 7.15484 10.3265 7.2339 10.3612C7.31297 10.3958 7.39834 10.4137 7.48466 10.4137C7.57097 10.4137 7.65635 10.3958 7.73541 10.3612C7.81447 10.3265 7.88551 10.2759 7.94403 10.2125Z" fill="#9397B6"/>
</g>
</svg>
