<svg width="20" height="20" viewBox="0 0 20 20" fill="none" xmlns="http://www.w3.org/2000/svg">
<path d="M8.10714 14.5275C8.07668 14.6486 7.31496 17.501 3.12511 17.501C2.95935 17.501 2.80038 17.4351 2.68317 17.3179C2.56596 17.2007 2.50011 17.0417 2.50011 16.876C2.50011 12.6861 5.35246 11.9244 5.47355 11.8939C5.63444 11.8537 5.80471 11.8791 5.9469 11.9645C6.08909 12.0498 6.19156 12.1881 6.23175 12.349C6.27195 12.5099 6.24659 12.6802 6.16124 12.8224C6.0759 12.9646 5.93757 13.067 5.77668 13.1072C5.70636 13.1268 4.02511 13.6182 3.7798 16.2213C6.38293 15.976 6.87511 14.2978 6.89543 14.2197C6.93687 14.059 7.04044 13.9214 7.18336 13.8371C7.32629 13.7528 7.49685 13.7287 7.65754 13.7701C7.81822 13.8116 7.95586 13.9151 8.04018 14.0581C8.1245 14.201 8.14858 14.3715 8.10714 14.5322V14.5275ZM15.3728 9.26191L15.0001 9.63457V14.1916C15.001 14.3564 14.9692 14.5197 14.9064 14.6721C14.8437 14.8244 14.7512 14.9628 14.6345 15.0791L11.9532 17.7588C11.8376 17.8752 11.7001 17.9676 11.5486 18.0307C11.397 18.0937 11.2345 18.1261 11.0704 18.126C10.935 18.1259 10.8004 18.104 10.672 18.0611C10.4514 17.9882 10.2557 17.855 10.1069 17.6766C9.95803 17.4983 9.86206 17.2818 9.8298 17.0518L9.41027 14.0447L5.95636 10.5908L2.9509 10.1713C2.72054 10.139 2.50377 10.043 2.32496 9.89424C2.14616 9.74546 2.01242 9.54973 1.93879 9.32908C1.86516 9.10843 1.85456 8.87161 1.90817 8.64526C1.96179 8.41891 2.07751 8.21202 2.2423 8.04785L4.92199 5.3666C5.0383 5.24987 5.17666 5.15743 5.32902 5.09466C5.48138 5.03189 5.64471 5.00004 5.80949 5.00097H10.3665L10.7392 4.62832C12.8236 2.54472 15.3345 2.45488 16.3181 2.51347C16.6228 2.53199 16.9103 2.6614 17.1261 2.87729C17.342 3.09317 17.4714 3.3806 17.49 3.68535C17.547 4.66582 17.4571 7.17753 15.3735 9.26191H15.3728ZM9.11652 6.25097H5.80949L3.12511 8.93378L6.02746 9.33847L9.11652 6.25097ZM13.7501 10.8846L10.6618 13.9728L11.0681 16.876L13.7501 14.1916V10.8846Z" fill="#3B61FF"/>
</svg>
