<svg width="20" height="21" viewBox="0 0 20 21" fill="none" xmlns="http://www.w3.org/2000/svg">
<g id="rocket" clip-path="url(#clip0_1279_2104)">
<path id="Vector" d="M18.4962 2.69565C18.4575 2.60774 18.3872 2.53741 18.3028 2.50224C18.2571 2.48115 13.7579 0.589321 10.0565 4.28858C9.34997 4.99537 8.66804 5.82876 8.04236 6.70786L7.1882 6.51094C5.89818 6.21205 4.56949 6.59182 3.63096 7.52718L1.30048 9.86207C0.681829 10.481 1.07903 11.5324 1.94022 11.5992L5.22329 11.8629C5.07917 12.2462 4.95614 12.6225 4.88584 12.8721C4.82257 13.0936 4.83311 13.3222 4.8999 13.5332C4.30586 13.695 3.76454 13.9903 3.45873 14.2963C2.78383 14.9679 2.18276 17.9111 2.07028 18.4948C2.02107 18.7762 2.27064 18.9907 2.50966 18.9344C3.09316 18.8184 6.03526 18.217 6.70664 17.5454C7.02651 17.2254 7.31475 16.6769 7.47292 16.1037C7.69789 16.174 7.92637 16.174 8.13376 16.1142H8.13727C8.38684 16.0439 8.75241 15.9279 9.14258 15.7767L9.40621 19.061C9.47299 19.9225 10.5275 20.3163 11.1426 19.701L13.4766 17.3661C14.4117 16.4307 14.7948 15.098 14.4925 13.8075L14.2957 12.953C15.1744 12.3271 16.0075 11.6449 16.714 10.9381C20.4119 7.24235 18.5172 2.74136 18.4962 2.69565ZM1.83477 10.3931L4.16525 8.05816C4.92099 7.30213 5.98957 6.99972 7.01948 7.24235L7.58541 7.37246C6.74531 8.63485 6.03526 9.95702 5.52207 11.1315L1.99998 10.8502C1.7715 10.8291 1.67308 10.5513 1.83477 10.3931ZM6.17587 17.018C5.84897 17.345 4.22852 17.7986 2.92092 18.0869C3.20564 16.7753 3.65908 15.1578 3.9895 14.8308C4.27422 14.5424 4.8296 14.2927 5.37092 14.1943L6.81209 15.636C6.80858 15.6501 6.80858 15.6641 6.80506 15.6817C6.69961 16.1986 6.44301 16.7507 6.17587 17.018ZM7.52565 15.2844L5.71891 13.4769C5.61346 13.3714 5.57128 13.2132 5.60994 13.0725C5.64158 12.9635 6.06553 12.3954 6.14286 12.1668L8.83539 14.8604C8.6737 14.9167 8.09509 15.3477 7.92988 15.3934C7.78928 15.4356 7.63462 15.3934 7.52565 15.2844ZM13.7579 13.9833C13.9969 15.0206 13.6946 16.0861 12.9424 16.8386L10.6084 19.1735C10.4467 19.3353 10.1725 19.2333 10.1514 19.0082L9.8702 15.4848C11.0442 14.9749 12.3659 14.2611 13.6278 13.4207L13.7579 13.9833ZM9.60519 14.5685L6.43109 11.3932C7.32743 9.2025 8.67507 6.72896 10.5838 4.81955C12.7631 2.63938 15.6279 2.31236 17.8599 3.1352C18.1236 3.87364 19.171 7.42169 16.1762 10.4177C14.2675 12.3271 11.7951 13.6754 9.60519 14.5685Z" fill="#9397B6" stroke="#9397B6" stroke-width="0.5"/>
<path id="Vector_2" d="M12.5855 5.58552C11.8048 6.3662 11.8048 7.63108 12.5855 8.41448C13.3662 9.19517 14.6311 9.19517 15.4145 8.41448C16.1952 7.6338 16.1952 6.3662 15.4145 5.58552C14.6311 4.80483 13.3662 4.80483 12.5855 5.58552ZM15.0037 8.00374C14.4488 8.55865 13.5512 8.55865 12.9963 8.00374C12.4413 7.44883 12.4413 6.55117 12.9963 5.99626C13.5512 5.44135 14.4488 5.44135 15.0037 5.99626C15.5559 6.55117 15.5559 7.45155 15.0037 8.00374Z" fill="#9397B6" stroke="#9397B6" stroke-width="0.5"/>
</g>
<defs>
<clipPath id="clip0_1279_2104">
<rect width="20" height="20" fill="white" transform="translate(0 0.5)"/>
</clipPath>
</defs>
</svg>
