<svg width="21" height="21" viewBox="0 0 21 21" fill="none" xmlns="http://www.w3.org/2000/svg">
<path d="M3.39799 2.50333C3.28969 2.47187 3.17489 2.4703 3.06577 2.49879C2.95664 2.52727 2.85726 2.58476 2.77815 2.66514C2.69905 2.74553 2.64317 2.84582 2.61644 2.95539C2.58971 3.06496 2.59313 3.17972 2.62633 3.2875L4.65299 9.875H11.7497C11.9154 9.875 12.0744 9.94085 12.1916 10.0581C12.3088 10.1753 12.3747 10.3342 12.3747 10.5C12.3747 10.6658 12.3088 10.8247 12.1916 10.9419C12.0744 11.0592 11.9154 11.125 11.7497 11.125H4.65299L2.62633 17.7125C2.59332 17.8202 2.59006 17.9349 2.61687 18.0443C2.64369 18.1538 2.6996 18.2539 2.77867 18.3342C2.85774 18.4144 2.95704 18.4718 3.06607 18.5003C3.17509 18.5288 3.28978 18.5272 3.39799 18.4958C8.91046 16.8928 14.1088 14.3603 18.7688 11.0075C18.8494 10.9496 18.9149 10.8734 18.9602 10.7852C19.0054 10.6969 19.029 10.5992 19.029 10.5C19.029 10.4008 19.0054 10.3031 18.9602 10.2148C18.9149 10.1266 18.8494 10.0504 18.7688 9.9925C14.1088 6.63941 8.91053 4.10663 3.39799 2.50333Z" fill="white"/>
</svg>
