<svg width="16" height="16" viewBox="0 0 16 16" fill="none" xmlns="http://www.w3.org/2000/svg">
<g id="Frame">
<path id="Vector" d="M14.333 7.33331C14.3331 8.91074 13.7121 10.4248 12.6042 11.5477C11.4964 12.6706 9.99092 13.3121 8.41363 13.3333H8.33301C6.80066 13.3371 5.32568 12.7507 4.21426 11.6958C4.16653 11.6507 4.12816 11.5966 4.10134 11.5366C4.07452 11.4766 4.05978 11.412 4.05795 11.3463C4.05612 11.2806 4.06725 11.2152 4.09069 11.1539C4.11413 11.0925 4.14943 11.0364 4.19457 10.9886C4.23971 10.9409 4.29381 10.9025 4.35378 10.8757C4.41375 10.8489 4.47842 10.8341 4.54409 10.8323C4.60975 10.8305 4.67514 10.8416 4.73651 10.8651C4.79788 10.8885 4.85403 10.9238 4.90176 10.9689C5.61663 11.6431 6.51431 12.0917 7.48265 12.2587C8.45099 12.4256 9.44707 12.3036 10.3464 11.9077C11.2458 11.5119 12.0086 10.8598 12.5395 10.033C13.0705 9.20614 13.346 8.24118 13.3317 7.25865C13.3174 6.27612 13.0139 5.31959 12.4592 4.50854C11.9044 3.69749 11.123 3.06788 10.2125 2.69837C9.30194 2.32886 8.30274 2.23583 7.33966 2.4309C6.37659 2.62597 5.49234 3.10049 4.79738 3.79519C4.79228 3.80071 4.78685 3.80593 4.78113 3.81081L3.11988 5.33331H4.83301C4.96562 5.33331 5.09279 5.38599 5.18656 5.47976C5.28033 5.57353 5.33301 5.7007 5.33301 5.83331C5.33301 5.96592 5.28033 6.0931 5.18656 6.18686C5.09279 6.28063 4.96562 6.33331 4.83301 6.33331H1.83301C1.7004 6.33331 1.57322 6.28063 1.47945 6.18686C1.38569 6.0931 1.33301 5.96592 1.33301 5.83331V2.83331C1.33301 2.7007 1.38569 2.57353 1.47945 2.47976C1.57322 2.38599 1.7004 2.33331 1.83301 2.33331C1.96562 2.33331 2.09279 2.38599 2.18656 2.47976C2.28033 2.57353 2.33301 2.7007 2.33301 2.83331V4.69581L4.09863 3.08331C4.93862 2.24659 6.00767 1.67748 7.17084 1.44783C8.334 1.21818 9.53913 1.33829 10.6341 1.79299C11.729 2.24769 12.6648 3.0166 13.3231 4.00265C13.9814 4.9887 14.3328 6.14769 14.333 7.33331Z" fill="#071437"/>
</g>
</svg>
