<svg width="146" height="145" viewBox="0 0 146 145" fill="none" xmlns="http://www.w3.org/2000/svg">
<rect x="0.5" width="145" height="145" rx="72.5" fill="#262626"/>
<path d="M120.766 81.8744L120.51 81.9026L123.676 110.919L123.932 110.891L120.766 81.8744Z" fill="#434343"/>
<path d="M128.968 94.5409L127.41 109.994L127.667 110.02L129.224 94.5669L128.968 94.5409Z" fill="#434343"/>
<path d="M131.644 108.127H120.088V111.889H131.644V108.127Z" fill="#434343"/>
<path opacity="0.2" d="M131.644 108.127H120.088V111.889H131.644V108.127Z" fill="#262626"/>
<path d="M138.608 101.202C140.798 98.2834 139.754 93.7908 136.277 91.1672C132.801 88.5436 128.208 88.7825 126.019 91.7007C123.829 94.6189 124.873 99.1115 128.35 101.735C131.826 104.359 136.419 104.12 138.608 101.202Z" fill="#74A00C"/>
<path opacity="0.2" d="M138.608 101.202C140.798 98.2834 139.754 93.7908 136.277 91.1672C132.801 88.5436 128.208 88.7825 126.019 91.7007C123.829 94.6189 124.873 99.1115 128.35 101.735C131.826 104.359 136.419 104.12 138.608 101.202Z" fill="#262626"/>
<path opacity="0.5" d="M138.611 101.202C138.462 101.401 138.302 101.587 138.131 101.76C135.722 103.304 132.165 103.061 129.343 100.931C125.866 98.3079 124.823 93.8155 127.012 90.8972C127.161 90.6982 127.322 90.513 127.491 90.3393C129.902 88.7939 133.458 89.0381 136.281 91.1669C139.757 93.791 140.801 98.2836 138.611 101.202Z" fill="#262626"/>
<path d="M122.484 90.1317C125.928 87.4652 126.864 82.8922 124.574 79.9176C122.285 76.9429 117.637 76.693 114.193 79.3595C110.749 82.0259 109.813 86.5989 112.102 89.5736C114.392 92.5483 119.039 92.7981 122.484 90.1317Z" fill="#74A00C"/>
<path opacity="0.2" d="M121.393 89.3648C118.725 91.4311 115.336 91.746 112.878 90.4008C112.598 90.1532 112.338 89.8765 112.103 89.5709C109.813 86.5971 110.749 82.0235 114.193 79.3577C116.86 77.2925 120.25 76.9766 122.706 78.3205C122.987 78.5682 123.247 78.846 123.482 79.1516C125.772 82.1254 124.836 86.699 121.393 89.3648Z" fill="#262626"/>
<g opacity="0.05">
<path d="M40.0439 52.3853C45.5359 52.3853 49.9881 47.9199 49.9881 42.4114C49.9881 36.903 45.5359 32.4375 40.0439 32.4375C34.5518 32.4375 30.0996 36.903 30.0996 42.4114C30.0996 47.9199 34.5518 52.3853 40.0439 52.3853Z" fill="#434343"/>
</g>
<path d="M36.7891 45.976L37.7168 44.5334C38.452 45.0985 39.0951 45.3866 39.779 45.3866C40.5989 45.3866 40.9594 45.0456 40.9594 44.3853C40.9594 42.8927 37.1412 42.9197 37.1412 40.3017C37.1412 38.6189 38.3035 37.5469 40.1363 37.5469C41.3736 37.5469 42.2143 38.059 42.8899 38.7777L41.826 40.0001C41.3002 39.5205 40.8545 39.2679 40.2506 39.2679C39.5547 39.2679 39.1772 39.5494 39.1772 40.2011C39.1772 41.5845 42.9953 41.4637 42.9953 44.2368C42.9953 45.9027 41.8961 47.1077 39.779 47.1077C38.8653 47.1077 37.6059 46.7187 36.7891 45.9763V45.976ZM39.3331 36.125H40.7441V38.2143H39.3331V36.125ZM39.3331 46.2367H40.7441V48.5292H39.3331V46.2367Z" fill="#262626"/>
<path d="M116.915 32.1309H29.9116C27.775 32.1309 26.043 33.8681 26.043 36.011V99.9008C26.043 102.044 27.775 103.781 29.9116 103.781H116.915C119.052 103.781 120.784 102.044 120.784 99.9008V36.011C120.784 33.8681 119.052 32.1309 116.915 32.1309Z" fill="#262626"/>
<path d="M116.915 103.909H29.9116C27.7074 103.909 25.9141 102.11 25.9141 99.8992V36.0095C25.9141 33.7987 27.7074 32 29.9116 32H116.915C119.119 32 120.913 33.7987 120.913 36.0095V99.8993C120.913 102.11 119.119 103.909 116.915 103.909ZM29.9116 32.2587C27.8495 32.2587 26.172 33.9412 26.172 36.0095V99.8993C26.172 101.968 27.8495 103.65 29.9116 103.65H116.915C118.977 103.65 120.655 101.968 120.655 99.8993V36.0095C120.655 33.9412 118.977 32.2587 116.915 32.2587H29.9116Z" fill="#434343"/>
<path d="M42.9539 67.1512C42.8549 67.1512 42.756 67.1133 42.6804 67.0375L40.8751 65.2268C40.7239 65.0753 40.7239 64.8296 40.8751 64.6781C41.0262 64.5266 41.271 64.5266 41.4221 64.6781L43.2274 66.4889C43.3786 66.6403 43.3786 66.8861 43.2274 67.0375C43.1519 67.1133 43.0528 67.1512 42.9539 67.1512Z" fill="#74A00C"/>
<path d="M41.1486 67.1512C41.0495 67.1512 40.9506 67.1133 40.8751 67.0375C40.7239 66.8861 40.7239 66.6403 40.8751 66.4889L42.6804 64.6781C42.8316 64.5266 43.0763 64.5266 43.2274 64.6781C43.3786 64.8296 43.3786 65.0753 43.2274 65.2268L41.4221 67.0375C41.3465 67.1133 41.2475 67.1512 41.1486 67.1512Z" fill="#74A00C"/>
<path d="M94.6442 84.455L94.1289 85.6406L97.3003 87.0273L97.8157 85.8417L94.6442 84.455Z" fill="#74A00C"/>
<path d="M95.6469 52.6698L92.6641 54.4277L93.3174 55.5428L96.3002 53.7849L95.6469 52.6698Z" fill="#74A00C"/>
<path d="M45.9425 55.6804L45.543 56.9102L48.8326 57.9852L49.2321 56.7554L45.9425 55.6804Z" fill="#74A00C"/>
<path d="M49.8265 76.2972L46.9922 78.2871L47.7317 79.3467L50.566 77.3568L49.8265 76.2972Z" fill="#74A00C"/>
<path d="M101.763 71.7472L101.645 73.0352L105.014 73.3467L105.133 72.0588L101.763 71.7472Z" fill="#74A00C"/>
<path d="M105.196 62.4835C105.097 62.4835 104.998 62.4456 104.923 62.3698L103.117 60.5591C102.966 60.4076 102.966 60.1619 103.117 60.0104C103.268 59.8588 103.513 59.8588 103.664 60.0104L105.47 61.8212C105.621 61.9726 105.621 62.2183 105.47 62.3698C105.394 62.4456 105.295 62.4835 105.196 62.4835Z" fill="#74A00C"/>
<path d="M103.391 62.4835C103.292 62.4835 103.193 62.4456 103.117 62.3698C102.966 62.2183 102.966 61.9726 103.117 61.8212L104.923 60.0104C105.074 59.8588 105.318 59.8588 105.47 60.0104C105.621 60.1619 105.621 60.4076 105.47 60.5591L103.664 62.3698C103.589 62.4456 103.49 62.4835 103.391 62.4835Z" fill="#74A00C"/>
<path opacity="0.4" d="M73.4117 90.4636C84.7732 90.4636 93.9835 81.2258 93.9835 69.8304C93.9835 58.4351 84.7732 49.1973 73.4117 49.1973C62.0502 49.1973 52.8398 58.4351 52.8398 69.8304C52.8398 81.2258 62.0502 90.4636 73.4117 90.4636Z" fill="#74A00C"/>
<path d="M73.4143 84.2604C81.36 84.2604 87.8013 77.7999 87.8013 69.8305C87.8013 61.8611 81.36 55.4006 73.4143 55.4006C65.4686 55.4006 59.0273 61.8611 59.0273 69.8305C59.0273 77.7999 65.4686 84.2604 73.4143 84.2604Z" fill="#74A00C"/>
<path d="M70.4724 76.0216C70.252 76.0216 70.0322 75.9349 69.8679 75.7633L65.2885 70.9833C64.9678 70.6486 64.9783 70.1164 65.3121 69.7947C65.6461 69.473 66.1763 69.4835 66.4972 69.8185L70.5153 74.0127L81.0204 64.5606C81.365 64.2506 81.8949 64.2793 82.2042 64.6251C82.5132 64.9706 82.4846 65.5022 82.14 65.8122L71.0319 75.8067C70.8722 75.9505 70.6719 76.0217 70.4723 76.0217L70.4724 76.0216Z" fill="#262626"/>
<path d="M120.783 36.011V39.9155H26.043V36.011C26.043 33.868 27.7749 32.1309 29.9116 32.1309H116.915C119.051 32.1309 120.783 33.868 120.783 36.011H120.783Z" fill="#434343"/>
<path d="M8.33515 104.25C6.85618 104.25 5.44633 103.569 4.52431 102.384C3.49397 101.061 3.21943 99.2971 3.79869 97.7216C4.07233 96.9773 11.0878 78.8133 12.309 75.6562L20.7516 80.5835C20.0649 82.3587 17.577 89.0869 15.5782 94.5069L18.8988 94.1449L19.9439 103.012L8.85832 104.221C8.68345 104.24 8.50885 104.25 8.33515 104.25Z" fill="#9F7739"/>
<path d="M14.1308 104.531L12.6562 111.892H41.2967L39.647 104.391L14.1308 104.531Z" fill="#262626"/>
<path d="M35.9502 71.8783C35.9206 71.8745 35.1082 74.9411 28.7675 74.4638C24.3779 74.134 23.3076 71.1372 23.207 71.1372C23.6803 71.0363 24.4489 70.9316 24.659 70.8191C25.3502 70.4466 25.8538 69.9931 26.1072 69.02C26.3054 68.2589 26.4064 65.3292 26.4064 63.8594L33.161 65.3817C33.0668 67.0398 32.4079 70.8837 34.7174 71.564C35.1017 71.6766 35.5157 71.78 35.9502 71.8783Z" fill="#FF9E85"/>
<path d="M32.9278 68.6432C30.2649 68.8539 26.8442 67.7263 26.1946 64.1631L25.6084 60.9479C24.9586 57.3846 26.2979 54.1537 29.6429 53.5401C32.988 52.9266 36.0149 55.3566 36.6646 58.9198L36.9242 60.3432C37.1734 61.7104 37.6787 68.2672 32.9278 68.6432Z" fill="#FF9E85"/>
<path d="M20.3228 71.6334C17.9299 71.8115 15.49 72.0714 13.7292 73.7064C11.6087 75.6754 11.2246 78.0965 12.5773 84.7592C13.7412 90.4921 13.2796 92.9973 14.0582 103.576C14.0811 103.888 14.1303 104.532 14.1303 104.532L39.7278 104.49C39.7278 104.49 42.1261 90.4543 43.4506 83.9808C44.4576 79.0594 47.1026 73.0849 35.9501 71.8809C35.9205 71.8776 26.9759 71.1385 20.3226 71.6336L20.3228 71.6334Z" fill="#9F7739"/>
<path d="M14.1304 104.594C14.0959 104.594 14.0674 104.567 14.0659 104.532L13.2637 83.6473C13.2624 83.6116 13.2902 83.5816 13.3256 83.5802C13.3649 83.5779 13.3913 83.6067 13.3927 83.6423L14.1949 104.527C14.1962 104.563 14.1685 104.593 14.133 104.594C14.1321 104.594 14.1312 104.594 14.1304 104.594Z" fill="#262626"/>
<path d="M55.2045 79.0891L57.0029 75.043C57.1685 74.6705 57.6181 74.5142 57.9818 74.7163C58.3042 74.8955 58.4148 75.3095 58.2647 75.647L57.8792 76.5146L60.3404 74.3446C60.6099 74.0986 61.0973 73.9695 61.3526 74.2908C61.5761 74.5369 61.5915 74.8989 61.41 75.1614C61.4127 75.1637 61.4161 75.1651 61.4182 75.1681C61.4201 75.1702 61.4207 75.1729 61.4223 75.1751L61.8378 74.7956C62.1582 74.503 62.676 74.5651 62.9117 74.9593C63.0844 75.248 63.0076 75.623 62.7595 75.8497L62.5827 76.0113C62.5851 76.0186 62.5861 76.0261 62.5857 76.0338C62.876 75.8705 63.2539 75.9325 63.4738 76.209C63.7071 76.5021 63.6489 76.9336 63.3724 77.186L62.9334 77.587C62.9533 77.5848 62.974 77.591 62.9888 77.6073C62.9973 77.617 63.0012 77.6285 63.003 77.6404C63.2911 77.5703 63.6129 77.6862 63.7803 77.9811C63.9433 78.2682 63.8629 78.634 63.6194 78.8564L59.9138 82.2401C58.8533 83.2084 57.313 83.4345 56.0204 82.8117C54.8874 82.2658 54.3931 80.915 54.9048 79.7636L55.2045 79.0894V79.0891Z" fill="#FF9E85"/>
<g opacity="0.2">
<path d="M58.9859 77.3198C59.0097 77.3456 59.0496 77.3478 59.0759 77.3245L61.414 75.2578C61.4407 75.2341 61.4433 75.1934 61.4197 75.1665C61.3996 75.1396 61.3553 75.1371 61.3286 75.1608L58.9906 77.2275C58.9639 77.2511 58.9613 77.2919 58.9849 77.3188L58.9859 77.3198Z" fill="#262626"/>
</g>
<g opacity="0.2">
<path d="M59.8648 78.381C59.8886 78.4067 59.9285 78.4089 59.9548 78.3857L62.5641 76.0792C62.5908 76.0555 62.5934 76.0148 62.5698 75.9879C62.5481 75.9635 62.5054 75.9585 62.4787 75.9822L59.8695 78.2887C59.8428 78.3123 59.8402 78.3531 59.8638 78.38L59.8648 78.3811V78.381Z" fill="#262626"/>
</g>
<g opacity="0.2">
<path d="M60.8121 79.5343C60.8358 79.5601 60.8758 79.5623 60.9021 79.539L62.9834 77.6993C63.0101 77.6756 63.0127 77.6349 62.9891 77.608C62.9647 77.5815 62.9247 77.5786 62.8981 77.6023L60.8167 79.442C60.7901 79.4657 60.7875 79.5064 60.8111 79.5333L60.8121 79.5345V79.5343Z" fill="#262626"/>
</g>
<path d="M35.3944 65.3703C34.9163 62.9615 34.6972 61.3545 34.7226 59.659C35.3959 58.4745 35.2189 57.1152 35.0658 56.5277C35.7256 56.8887 36.0016 56.9281 36.6226 56.9281C36.6226 56.9281 35.5093 52.4464 31.725 51.2405C31.0291 50.9689 29.2524 50.6258 26.8933 50.9503C24.8868 51.2263 19.9407 52.731 19.2341 58.3161H19.2339C19.2339 58.3161 19.2339 58.3176 19.2338 58.3193C19.2104 58.5045 18.7355 63.6504 17.7887 66.1193C16.5159 69.4382 14.729 70.4695 14.7743 74.2989C14.8326 79.2246 23.8611 79.8802 29.3068 79.5117C34.7526 79.1433 37.7924 77.3474 37.8318 73.7976C37.8759 69.8203 36.3509 70.1897 35.3946 65.3704L35.3944 65.3703Z" fill="#0A0A0A"/>
<path d="M35.3972 63.3524C34.3807 63.5389 33.3577 62.5992 33.1718 61.5797C32.9859 60.5601 33.7075 59.8467 34.7241 59.6602L35.3972 63.3524Z" fill="#FF9E85"/>
<path d="M46.3327 103.513C46.1335 103.513 45.9329 103.501 45.732 103.476C43.8684 103.242 42.3082 101.947 41.7305 100.155L35.0117 79.3143L44.2141 76.33L47.748 87.2919L53.8543 77.5521L62.0417 82.7156L50.4253 101.245C49.5333 102.667 47.9805 103.513 46.3327 103.513Z" fill="#9F7739"/>
<path d="M40.9084 97.7618C40.9045 97.7618 40.9005 97.7616 40.8965 97.7608C40.8616 97.7543 40.8384 97.7206 40.8448 97.6854L43.1287 85.2506C43.1353 85.2154 43.1684 85.1918 43.2039 85.1987C43.2389 85.2052 43.2621 85.2389 43.2556 85.2741L40.9717 97.7089C40.9659 97.7401 40.9388 97.7618 40.9084 97.7618Z" fill="#262626"/>
<path d="M48.5674 90.2289C48.5386 90.2289 48.5124 90.2096 48.5049 90.1804L47.7442 87.2411C47.7353 87.2065 47.7561 87.1712 47.7904 87.1623C47.8254 87.1531 47.8602 87.1742 47.8691 87.2086L48.6298 90.148C48.6387 90.1825 48.6179 90.2178 48.5836 90.2267C48.5782 90.2281 48.5726 90.2288 48.5674 90.2288V90.2289Z" fill="#262626"/>
<path d="M6.43364 112.018H135.341C135.412 112.018 135.47 111.96 135.47 111.889C135.47 111.818 135.412 111.76 135.341 111.76H6.43364C6.36246 111.76 6.30469 111.818 6.30469 111.889C6.30469 111.96 6.36246 112.018 6.43364 112.018Z" fill="#434343"/>
<path d="M105.113 68.5995H129.788C131.089 68.5995 132.145 67.5411 132.145 66.2354V50.0164C132.145 48.7108 131.089 47.6524 129.788 47.6524H105.113C103.811 47.6524 102.756 48.7108 102.756 50.0164V66.2354C102.756 67.5411 103.811 68.5995 105.113 68.5995Z" fill="#434343"/>
<path d="M109.438 50.5703H106.357C105.824 50.5703 105.393 51.0033 105.393 51.5375V53.3372C105.393 53.8714 105.824 54.3044 106.357 54.3044H109.438C109.97 54.3044 110.402 53.8714 110.402 53.3372V51.5375C110.402 51.0033 109.97 50.5703 109.438 50.5703Z" fill="#262626"/>
<path d="M110.403 50.9846V51.8608H108.705L108.432 51.5863V50.5703H109.99C110.218 50.5703 110.403 50.7558 110.403 50.9845L110.403 50.9846Z" fill="#74A00C"/>
<path d="M110.403 53.0156V53.8919C110.403 54.1207 110.218 54.306 109.99 54.306H108.432V53.2627L108.705 53.0156H110.403Z" fill="#74A00C"/>
<path d="M107.336 50.5703V51.5863L107.09 51.8608H105.393V50.9846C105.393 50.7558 105.577 50.5704 105.805 50.5704H107.336L107.336 50.5703Z" fill="#74A00C"/>
<path d="M107.336 53.2627V54.306H105.805C105.577 54.306 105.393 54.1206 105.393 53.8919V53.0156H107.09L107.336 53.2627Z" fill="#74A00C"/>
<path d="M129.86 64.4387C129.86 65.6469 128.875 66.6353 127.67 66.6353C127.15 66.6353 126.685 66.4431 126.302 66.1411C125.809 65.7293 125.48 65.1251 125.48 64.4387C125.48 63.7523 125.809 63.1208 126.302 62.7364C126.685 62.4344 127.15 62.2422 127.67 62.2422C128.875 62.2422 129.86 63.2306 129.86 64.4387Z" fill="#262626"/>
<path d="M125.481 66.1411C125.097 66.4431 124.632 66.6353 124.112 66.6353C122.907 66.6353 121.922 65.6469 121.922 64.4387C121.922 63.2306 122.907 62.2422 124.112 62.2422C124.632 62.2422 125.097 62.4344 125.481 62.7364C124.988 63.1482 124.768 63.7523 124.768 64.4387C124.768 65.1251 124.988 65.7567 125.481 66.1411Z" fill="#74A00C"/>
<path d="M110.165 57.3145H105.797C105.575 57.3145 105.395 57.4954 105.395 57.7185V57.7186C105.395 57.9418 105.575 58.1227 105.797 58.1227H110.165C110.387 58.1227 110.567 57.9418 110.567 57.7186V57.7185C110.567 57.4954 110.387 57.3145 110.165 57.3145Z" fill="#262626"/>
<path d="M116.594 57.3145H112.227C112.005 57.3145 111.824 57.4954 111.824 57.7185V57.7186C111.824 57.9418 112.005 58.1227 112.227 58.1227H116.594C116.817 58.1227 116.997 57.9418 116.997 57.7186V57.7185C116.997 57.4954 116.817 57.3145 116.594 57.3145Z" fill="#262626"/>
<path d="M123.026 57.3145H118.659C118.436 57.3145 118.256 57.4954 118.256 57.7185V57.7186C118.256 57.9418 118.436 58.1227 118.659 58.1227H123.026C123.248 58.1227 123.429 57.9418 123.429 57.7186V57.7185C123.429 57.4954 123.248 57.3145 123.026 57.3145Z" fill="#262626"/>
<path d="M129.457 57.3145H125.09C124.868 57.3145 124.688 57.4954 124.688 57.7185V57.7186C124.688 57.9418 124.868 58.1227 125.09 58.1227H129.457C129.68 58.1227 129.86 57.9418 129.86 57.7186V57.7185C129.86 57.4954 129.68 57.3145 129.457 57.3145Z" fill="#262626"/>
</svg>
