<svg width="15" height="15" viewBox="0 0 15 15" fill="none" xmlns="http://www.w3.org/2000/svg">
<g id="upload">
<path id="Vector" d="M5.44375 4.81875L6.875 3.38125V9.375C6.875 9.54076 6.94085 9.69973 7.05806 9.81694C7.17527 9.93415 7.33424 10 7.5 10C7.66576 10 7.82473 9.93415 7.94194 9.81694C8.05915 9.69973 8.125 9.54076 8.125 9.375V3.38125L9.55625 4.81875C9.61435 4.87733 9.68348 4.92382 9.75964 4.95555C9.8358 4.98728 9.91749 5.00362 10 5.00362C10.0825 5.00362 10.1642 4.98728 10.2404 4.95555C10.3165 4.92382 10.3856 4.87733 10.4437 4.81875C10.5023 4.76064 10.5488 4.69152 10.5806 4.61536C10.6123 4.53919 10.6286 4.4575 10.6286 4.375C10.6286 4.29249 10.6123 4.2108 10.5806 4.13464C10.5488 4.05847 10.5023 3.98935 10.4437 3.93125L7.94375 1.43125C7.88431 1.37435 7.81422 1.32974 7.7375 1.3C7.58534 1.23748 7.41466 1.23748 7.2625 1.3C7.18578 1.32974 7.11569 1.37435 7.05625 1.43125L4.55625 3.93125C4.49798 3.98952 4.45175 4.0587 4.42021 4.13484C4.38868 4.21098 4.37244 4.29258 4.37244 4.375C4.37244 4.45741 4.38868 4.53901 4.42021 4.61515C4.45175 4.69129 4.49798 4.76047 4.55625 4.81875C4.61452 4.87702 4.68371 4.92325 4.75984 4.95478C4.83598 4.98632 4.91759 5.00255 5 5.00255C5.08241 5.00255 5.16402 4.98632 5.24016 4.95478C5.31629 4.92325 5.38548 4.87702 5.44375 4.81875ZM13.125 7.5C12.9592 7.5 12.8003 7.56584 12.6831 7.68305C12.5658 7.80026 12.5 7.95924 12.5 8.125V11.875C12.5 12.0408 12.4342 12.1997 12.3169 12.3169C12.1997 12.4341 12.0408 12.5 11.875 12.5H3.125C2.95924 12.5 2.80027 12.4341 2.68306 12.3169C2.56585 12.1997 2.5 12.0408 2.5 11.875V8.125C2.5 7.95924 2.43415 7.80026 2.31694 7.68305C2.19973 7.56584 2.04076 7.5 1.875 7.5C1.70924 7.5 1.55027 7.56584 1.43306 7.68305C1.31585 7.80026 1.25 7.95924 1.25 8.125V11.875C1.25 12.3723 1.44754 12.8492 1.79917 13.2008C2.15081 13.5525 2.62772 13.75 3.125 13.75H11.875C12.3723 13.75 12.8492 13.5525 13.2008 13.2008C13.5525 12.8492 13.75 12.3723 13.75 11.875V8.125C13.75 7.95924 13.6842 7.80026 13.5669 7.68305C13.4497 7.56584 13.2908 7.5 13.125 7.5Z" fill="#9397B6"/>
</g>
</svg>
