<svg width="20" height="20" viewBox="0 0 20 20" fill="none" xmlns="http://www.w3.org/2000/svg">
<path opacity="0.2" d="M10.625 8.4375C10.625 9.24099 10.3867 10.0264 9.94035 10.6945C9.49395 11.3626 8.85948 11.8833 8.11715 12.1908C7.37483 12.4982 6.55799 12.5787 5.76995 12.4219C4.9819 12.2652 4.25803 11.8783 3.68988 11.3101C3.12173 10.742 2.73481 10.0181 2.57806 9.23005C2.42131 8.44201 2.50176 7.62517 2.80924 6.88285C3.11672 6.14052 3.63742 5.50605 4.3055 5.05965C4.97357 4.61326 5.75902 4.375 6.5625 4.375C7.63994 4.375 8.67326 4.80301 9.43512 5.56488C10.197 6.32675 10.625 7.36006 10.625 8.4375Z" fill="#8C8C8C"/>
<path d="M9.16074 12.3374C9.9984 11.7798 10.6344 10.9674 10.9746 10.0203C11.3148 9.07325 11.3412 8.04185 11.0499 7.07862C10.7586 6.1154 10.165 5.27149 9.35702 4.67169C8.54899 4.07189 7.5694 3.74805 6.56309 3.74805C5.55678 3.74805 4.57718 4.07189 3.76916 4.67169C2.96114 5.27149 2.36759 6.1154 2.07628 7.07862C1.78498 8.04185 1.81139 9.07325 2.1516 10.0203C2.49182 10.9674 3.12777 11.7798 3.96543 12.3374C2.45019 12.8959 1.15614 13.9293 0.276369 15.2835C0.230132 15.3523 0.198015 15.4295 0.181886 15.5107C0.165757 15.592 0.165938 15.6756 0.182417 15.7568C0.198897 15.838 0.231347 15.915 0.277881 15.9836C0.324415 16.0521 0.384105 16.1107 0.453481 16.1559C0.522857 16.2012 0.600535 16.2322 0.682001 16.2472C0.763466 16.2621 0.847094 16.2607 0.928023 16.2431C1.00895 16.2255 1.08557 16.1919 1.15341 16.1444C1.22126 16.0969 1.27899 16.0364 1.32324 15.9664C1.89074 15.0935 2.66727 14.3763 3.58234 13.8798C4.4974 13.3833 5.522 13.1232 6.56309 13.1232C7.60418 13.1232 8.62878 13.3833 9.54384 13.8798C10.4589 14.3763 11.2354 15.0935 11.8029 15.9664C11.8946 16.1026 12.0362 16.1973 12.1971 16.23C12.3581 16.2626 12.5254 16.2307 12.6629 16.1409C12.8005 16.0512 12.8972 15.911 12.9321 15.7506C12.9671 15.5901 12.9375 15.4224 12.8498 15.2835C11.97 13.9293 10.676 12.8959 9.16074 12.3374ZM3.12559 8.43745C3.12559 7.75758 3.32719 7.09297 3.70491 6.52768C4.08263 5.96238 4.61949 5.52179 5.24761 5.26161C5.87573 5.00144 6.5669 4.93336 7.23371 5.066C7.90052 5.19864 8.51303 5.52603 8.99377 6.00677C9.47451 6.48751 9.8019 7.10002 9.93454 7.76683C10.0672 8.43363 9.9991 9.1248 9.73892 9.75292C9.47875 10.381 9.03815 10.9179 8.47286 11.2956C7.90757 11.6733 7.24296 11.8749 6.56309 11.8749C5.65172 11.8739 4.77798 11.5114 4.13355 10.867C3.48912 10.2226 3.12662 9.34881 3.12559 8.43745ZM19.5428 16.1484C19.4039 16.2389 19.2348 16.2706 19.0727 16.2365C18.9105 16.2023 18.7685 16.1052 18.6779 15.9664C18.1111 15.093 17.3347 14.3755 16.4194 13.8791C15.5042 13.3828 14.4792 13.1236 13.4381 13.1249C13.2723 13.1249 13.1134 13.0591 12.9961 12.9419C12.8789 12.8247 12.8131 12.6657 12.8131 12.4999C12.8131 12.3342 12.8789 12.1752 12.9961 12.058C13.1134 11.9408 13.2723 11.8749 13.4381 11.8749C13.9443 11.8745 14.4442 11.7622 14.902 11.5461C15.3598 11.3301 15.7642 11.0156 16.0864 10.6251C16.4086 10.2346 16.6405 9.77779 16.7656 9.28727C16.8908 8.79676 16.9061 8.28466 16.8104 7.78756C16.7146 7.29047 16.5103 6.82064 16.212 6.41166C15.9137 6.00268 15.5287 5.66464 15.0846 5.42169C14.6405 5.17874 14.1482 5.03688 13.6429 5.00625C13.1376 4.97562 12.6317 5.05696 12.1615 5.24448C12.0849 5.27762 12.0023 5.29506 11.9188 5.29577C11.8353 5.29647 11.7525 5.28043 11.6753 5.24859C11.598 5.21675 11.528 5.16975 11.4692 5.11038C11.4105 5.05101 11.3642 4.98046 11.3332 4.90291C11.3022 4.82536 11.287 4.74238 11.2886 4.65887C11.2902 4.57536 11.3085 4.49302 11.3425 4.41671C11.3765 4.3404 11.4254 4.27167 11.4863 4.21458C11.5473 4.15749 11.6191 4.1132 11.6975 4.08432C12.7736 3.65514 13.9706 3.6397 15.0574 4.04097C16.1443 4.44224 17.044 5.23179 17.5831 6.2573C18.1222 7.28282 18.2623 8.47164 17.9766 9.59442C17.6909 10.7172 16.9995 11.6944 16.0357 12.3374C17.551 12.8959 18.845 13.9293 19.7248 15.2835C19.8153 15.4224 19.847 15.5915 19.8129 15.7537C19.7787 15.9158 19.6816 16.0578 19.5428 16.1484Z" fill="#595959"/>
</svg>
