<svg width="25" height="25" viewBox="0 0 25 25" fill="none" xmlns="http://www.w3.org/2000/svg">
<path d="M17.1875 11.1672V11.0938C17.1893 10.4778 17.0689 9.86757 16.8333 9.29844C16.5977 8.72931 16.2515 8.21257 15.8148 7.77813C15.526 7.49296 15.1992 7.249 14.8438 7.05312V6.60312C14.8439 6.47478 14.8187 6.34767 14.7697 6.22905C14.7206 6.11044 14.6487 6.00264 14.558 5.91181C14.4674 5.82098 14.3597 5.74891 14.2411 5.6997C14.1226 5.65048 13.9955 5.6251 13.8672 5.625H11.1328C11.0045 5.6251 10.8774 5.65048 10.7589 5.6997C10.6403 5.74891 10.5326 5.82098 10.442 5.91181C10.3513 6.00264 10.2794 6.11044 10.2303 6.22905C10.1813 6.34767 10.1561 6.47478 10.1562 6.60312V7.05234C9.443 7.45843 8.85026 8.04648 8.4385 8.75648C8.02675 9.46647 7.81074 10.273 7.8125 11.0938V11.1672C7.57922 11.2486 7.37787 11.4021 7.23756 11.6055C7.09725 11.8088 7.02523 12.0516 7.03193 12.2985C7.03863 12.5455 7.12369 12.784 7.27481 12.9795C7.42594 13.1749 7.63531 13.3173 7.87266 13.3859L8.34766 15.7617C8.43673 16.2148 8.61483 16.6458 8.87164 17.0296C9.12845 17.4134 9.45887 17.7425 9.84375 17.9977L11.4156 19.0453C11.736 19.2601 12.1131 19.3748 12.4988 19.3748C12.8846 19.3748 13.2616 19.2601 13.582 19.0453L15.1562 17.9977C15.5414 17.7426 15.8721 17.4136 16.1292 17.0298C16.3863 16.646 16.5646 16.215 16.6539 15.7617L17.1289 13.3859C17.3662 13.3171 17.5754 13.1746 17.7264 12.979C17.8774 12.7835 17.9623 12.5449 17.9688 12.298C17.9753 12.051 17.9031 11.8083 17.7627 11.6051C17.6223 11.4018 17.4208 11.2485 17.1875 11.1672ZM10.1562 7.97969V9.14062C10.1562 9.24423 10.1974 9.34358 10.2707 9.41684C10.3439 9.4901 10.4433 9.53125 10.5469 9.53125C10.6505 9.53125 10.7498 9.4901 10.8231 9.41684C10.8963 9.34358 10.9375 9.24423 10.9375 9.14062V6.60312C10.9375 6.55132 10.9581 6.50165 10.9947 6.46502C11.0313 6.42839 11.081 6.40781 11.1328 6.40781H13.8672C13.919 6.40781 13.9687 6.42839 14.0053 6.46502C14.0419 6.50165 14.0625 6.55132 14.0625 6.60312V9.14062C14.0625 9.24423 14.1037 9.34358 14.1769 9.41684C14.2502 9.4901 14.3495 9.53125 14.4531 9.53125C14.5567 9.53125 14.6561 9.4901 14.7293 9.41684C14.8026 9.34358 14.8438 9.24423 14.8438 9.14062V7.96875C15.3335 8.32828 15.7306 8.7992 16.0023 9.3426C16.274 9.88599 16.4125 10.4862 16.4062 11.0938H8.59375C8.59221 10.4886 8.7328 9.89155 9.00419 9.35066C9.27558 8.80978 9.67019 8.34018 10.1562 7.97969ZM15.8867 15.6086C15.8171 15.961 15.6782 16.2962 15.4783 16.5947C15.2784 16.8932 15.0213 17.1491 14.7219 17.3477L13.15 18.3953C12.9578 18.5243 12.7315 18.5932 12.5 18.5932C12.2685 18.5932 12.0422 18.5243 11.85 18.3953L10.2781 17.3477C9.97872 17.1491 9.72162 16.8932 9.52169 16.5947C9.32176 16.2962 9.18295 15.961 9.11328 15.6086L8.67969 13.4375H16.3203L15.8867 15.6086ZM16.7969 12.6563H8.20312C8.09952 12.6563 8.00017 12.6151 7.92691 12.5418C7.85365 12.4686 7.8125 12.3692 7.8125 12.2656C7.8125 12.162 7.85365 12.0627 7.92691 11.9894C8.00017 11.9162 8.09952 11.875 8.20312 11.875H16.7969C16.9005 11.875 16.9998 11.9162 17.0731 11.9894C17.1463 12.0627 17.1875 12.162 17.1875 12.2656C17.1875 12.3692 17.1463 12.4686 17.0731 12.5418C16.9998 12.6151 16.9005 12.6563 16.7969 12.6563ZM24.6094 9.51328H22.8375C22.6162 8.74405 22.309 8.00215 21.9219 7.30156L23.1719 6.05156C23.2451 5.97831 23.2862 5.87897 23.2862 5.77539C23.2862 5.67181 23.2451 5.57247 23.1719 5.49922L19.5 1.82734C19.4267 1.75411 19.3274 1.71297 19.2238 1.71297C19.1202 1.71297 19.0209 1.75411 18.9477 1.82734L17.6977 3.07734C16.9966 2.68983 16.2542 2.38242 15.4844 2.16094V0.390625C15.4844 0.287025 15.4432 0.187668 15.37 0.114411C15.2967 0.041155 15.1973 0 15.0938 0L9.90547 0C9.80187 0 9.70251 0.041155 9.62926 0.114411C9.556 0.187668 9.51484 0.287025 9.51484 0.390625V2.1625C8.74508 2.38374 8.00265 2.69088 7.30156 3.07812L6.05156 1.82812C5.97831 1.75489 5.87897 1.71376 5.77539 1.71376C5.67181 1.71376 5.57247 1.75489 5.49922 1.82812L1.82734 5.5C1.75411 5.57325 1.71297 5.67259 1.71297 5.77617C1.71297 5.87975 1.75411 5.97909 1.82734 6.05234L3.07734 7.30234C2.68983 8.0034 2.38242 8.74583 2.16094 9.51562H0.390625C0.287025 9.51562 0.187668 9.55678 0.114411 9.63004C0.041155 9.70329 0 9.80265 0 9.90625L0 15.0961C0 15.1997 0.041155 15.2991 0.114411 15.3723C0.187668 15.4456 0.287025 15.4867 0.390625 15.4867H2.1625C2.38385 16.2559 2.69099 16.9978 3.07812 17.6984L1.82812 18.9484C1.75489 19.0217 1.71376 19.121 1.71376 19.2246C1.71376 19.3282 1.75489 19.4275 1.82812 19.5008L5.5 23.1727C5.57325 23.2459 5.67259 23.287 5.77617 23.287C5.87975 23.287 5.97909 23.2459 6.05234 23.1727L7.30234 21.9227C8.0034 22.3102 8.74583 22.6176 9.51562 22.8391V24.6094C9.51562 24.713 9.55678 24.8123 9.63004 24.8856C9.70329 24.9588 9.80265 25 9.90625 25H15.0961C15.1997 25 15.2991 24.9588 15.3723 24.8856C15.4456 24.8123 15.4867 24.713 15.4867 24.6094V22.8375C16.2565 22.616 16.9989 22.3086 17.7 21.9211L18.95 23.1711C19.0233 23.2443 19.1226 23.2855 19.2262 23.2855C19.3298 23.2855 19.4291 23.2443 19.5023 23.1711L23.1742 19.4992C23.2474 19.426 23.2886 19.3266 23.2886 19.223C23.2886 19.1195 23.2474 19.0201 23.1742 18.9469L21.9242 17.6969C22.3117 16.9958 22.6191 16.2534 22.8406 15.4836H24.6094C24.713 15.4836 24.8123 15.4424 24.8856 15.3692C24.9588 15.2959 25 15.1966 25 15.093V9.90547C25 9.80187 24.9588 9.70251 24.8856 9.62926C24.8123 9.556 24.713 9.51484 24.6094 9.51484V9.51328ZM24.2188 14.7039H22.5398C22.4533 14.7039 22.3691 14.7327 22.3007 14.7857C22.2323 14.8388 22.1834 14.913 22.1617 14.9969C21.9285 15.8991 21.5689 16.7639 21.0938 17.5656C21.0498 17.6402 21.0319 17.7272 21.0428 17.813C21.0537 17.8988 21.0928 17.9786 21.1539 18.0398L22.3414 19.2273L19.2242 22.3445L18.0367 21.157C17.9761 21.0961 17.8971 21.0569 17.8119 21.0455C17.7267 21.034 17.6402 21.051 17.5656 21.0938C16.7649 21.5684 15.9012 21.9277 15 22.1609C14.9162 22.1826 14.8419 22.2315 14.7889 22.2999C14.7358 22.3684 14.7071 22.4525 14.707 22.5391V24.2188H10.2961V22.5398C10.2961 22.4533 10.2673 22.3691 10.2143 22.3007C10.1612 22.2323 10.087 22.1834 10.0031 22.1617C9.10085 21.9285 8.23605 21.5689 7.43437 21.0938C7.35983 21.0498 7.27282 21.0319 7.18699 21.0428C7.10116 21.0537 7.02138 21.0928 6.96016 21.1539L5.77266 22.3438L2.65625 19.2273L3.84375 18.0398C3.90525 17.9789 3.94476 17.8993 3.95607 17.8134C3.96738 17.7276 3.94986 17.6404 3.90625 17.5656C3.4316 16.7649 3.07233 15.9012 2.83906 15C2.81742 14.9162 2.76853 14.8419 2.70009 14.7889C2.63164 14.7358 2.54752 14.7071 2.46094 14.707H0.78125V10.2961H2.46016C2.54674 10.2961 2.63086 10.2673 2.69931 10.2143C2.76775 10.1612 2.81664 10.087 2.83828 10.0031C3.07151 9.10085 3.43106 8.23605 3.90625 7.43437C3.95015 7.35983 3.96807 7.27282 3.95718 7.18699C3.94629 7.10116 3.90722 7.02138 3.84609 6.96016L2.65625 5.77266L5.77266 2.65625L6.96016 3.84375C7.0211 3.90525 7.10074 3.94476 7.18658 3.95607C7.27242 3.96738 7.35958 3.94986 7.43437 3.90625C8.23512 3.4316 9.09885 3.07233 10 2.83906C10.0838 2.81742 10.1581 2.76853 10.2111 2.70009C10.2642 2.63164 10.2929 2.54752 10.293 2.46094V0.78125H14.7016V2.46016C14.7016 2.54674 14.7304 2.63086 14.7834 2.69931C14.8364 2.76775 14.9107 2.81664 14.9945 2.83828C15.8976 3.07131 16.7632 3.43085 17.5656 3.90625C17.6402 3.95015 17.7272 3.96807 17.813 3.95718C17.8988 3.94629 17.9786 3.90722 18.0398 3.84609L19.2273 2.65859L22.3445 5.77578L21.157 6.96328C21.0961 7.02391 21.0569 7.10293 21.0455 7.1881C21.034 7.27326 21.051 7.35982 21.0938 7.43437C21.5684 8.23512 21.9277 9.09885 22.1609 10C22.1826 10.0838 22.2315 10.1581 22.2999 10.2111C22.3684 10.2642 22.4525 10.2929 22.5391 10.293H24.2188V14.7039Z" fill="black"/>
</svg>
